<svg width="65" height="55" viewBox="0 0 65 55" fill="none" xmlns="http://www.w3.org/2000/svg">
<g filter="url(#filter0_d_4476_37985)">
<path d="M17.4078 21.2741C21.9018 21.2741 25.5449 17.631 25.5449 13.1371C25.5449 8.64309 21.9018 5 17.4078 5C12.9138 5 9.27075 8.64309 9.27075 13.1371C9.27075 17.631 12.9138 21.2741 17.4078 21.2741Z" fill="url(#paint0_linear_4476_37985)"/>
<path d="M46.5335 21.2741C51.0275 21.2741 54.6706 17.631 54.6706 13.1371C54.6706 8.64309 51.0275 5 46.5335 5C42.0396 5 38.3965 8.64309 38.3965 13.1371C38.3965 17.631 42.0396 21.2741 46.5335 21.2741Z" fill="url(#paint1_linear_4476_37985)"/>
<path d="M17.4078 18.4887C20.3634 18.4887 22.7594 16.0927 22.7594 13.137C22.7594 10.1814 20.3634 7.7854 17.4078 7.7854C14.4522 7.7854 12.0562 10.1814 12.0562 13.137C12.0562 16.0927 14.4522 18.4887 17.4078 18.4887Z" fill="#FFF0F2"/>
<path d="M46.5335 18.4887C49.4891 18.4887 51.8851 16.0927 51.8851 13.137C51.8851 10.1814 49.4891 7.7854 46.5335 7.7854C43.5779 7.7854 41.1819 10.1814 41.1819 13.137C41.1819 16.0927 43.5779 18.4887 46.5335 18.4887Z" fill="#FFF0F2"/>
<path d="M53.4926 24.9648C51.3602 16.1408 42.5361 9.52576 31.9724 9.52576C21.4086 9.52576 12.5845 16.1438 10.4522 24.9648C7.03114 27.9563 5 31.6811 5 35.7188C5 45.5677 17.0764 49.3722 31.9724 49.3722C46.8684 49.3722 58.9448 45.5677 58.9448 35.7188C58.9448 31.6811 56.9136 27.9563 53.4926 24.9679V24.9648Z" fill="url(#paint2_linear_4476_37985)"/>
<path d="M35.2122 24.9044C36.3204 26.5336 38.1889 27.6046 40.3079 27.6046C40.4103 27.6046 40.5123 27.6008 40.6135 27.5958C41.4194 30.0589 43.7347 31.8389 46.467 31.839C46.8032 31.839 47.1328 31.8107 47.4543 31.7589C49.4702 33.0128 50.7874 35.0815 50.7874 37.422C50.7872 40.4438 48.592 43.0123 45.5315 43.9591C42.3055 45.8082 37.5496 46.6114 32.1907 46.6115C26.8313 46.6114 22.0748 45.8086 18.8489 43.9591C15.7892 43.0119 13.5952 40.4433 13.595 37.422C13.595 35.0917 14.8998 33.0301 16.9006 31.7745C17.1902 31.8163 17.4862 31.839 17.7874 31.839C20.5248 31.8389 22.844 30.0523 23.6458 27.5822C23.8087 27.5951 23.9736 27.6046 24.1399 27.6046C26.2583 27.6045 28.1263 26.534 29.2346 24.9054C30.1199 25.3978 31.139 25.6798 32.2239 25.6798C33.3087 25.6797 34.3269 25.3968 35.2122 24.9044Z" fill="white"/>
<path d="M20 44C23.3137 44 26 41.7614 26 39C26 36.2386 23.3137 34 20 34C16.6863 34 14 36.2386 14 39C14 41.7614 16.6863 44 20 44Z" fill="url(#paint3_radial_4476_37985)"/>
<path d="M44 44C47.3137 44 50 41.7614 50 39C50 36.2386 47.3137 34 44 34C40.6863 34 38 36.2386 38 39C38 41.7614 40.6863 44 44 44Z" fill="url(#paint4_radial_4476_37985)"/>
<path d="M31.9802 36.9001V39.3547V39.3547C30.688 41.3648 27.7497 41.3648 26.4575 39.3547V39.3547" stroke="#816363" stroke-width="0.490909" stroke-linecap="round" stroke-linejoin="bevel"/>
<path d="M31.9803 39.3547V39.3547C33.2725 41.3648 36.2108 41.3648 37.5031 39.3547V39.3547" stroke="#816363" stroke-width="0.490909" stroke-linecap="round" stroke-linejoin="bevel"/>
<g clip-path="url(#clip0_4476_37985)">
<path d="M31.0784 34.8553C32.351 34.6943 34.8193 34.7407 34.8716 36.4632C34.7453 36.8549 33.6526 36.5952 33.1491 36.9261C32.6949 37.2264 32.5875 38.3481 31.7952 38.1305C31.3236 38.0013 31.1974 37.18 30.8129 36.9261C30.3108 36.5952 29.2167 36.8549 29.0904 36.4632C29.0396 35.3705 30.1628 34.97 31.0784 34.8553Z" fill="#816363"/>
<path d="M26.1495 34.0006C27.4395 33.9353 27.4395 37.1422 26.1495 37.0769C24.9059 37.0131 24.9059 34.0645 26.1495 34.0006Z" fill="#3A3A3A"/>
<path d="M37.8111 34.0007C39.0547 34.0646 39.0547 37.0132 37.8111 37.0771C36.5211 37.1424 36.5211 33.9354 37.8111 34.0007Z" fill="#3A3A3A"/>
</g>
<path d="M48.5217 22.2799L49.6247 25.0766C49.8294 25.5955 50.2402 26.0063 50.7591 26.211L53.5558 27.314L50.7591 28.4169C50.2402 28.6216 49.8294 29.0324 49.6247 29.5514L48.5217 32.348L47.4187 29.5514C47.2141 29.0324 46.8033 28.6216 46.2843 28.4169L43.4877 27.314L46.2843 26.211C46.8033 26.0063 47.2141 25.5955 47.4187 25.0766L48.5217 22.2799Z" fill="#FFD257"/>
<path d="M48.5217 22.2799L49.6247 25.0766C49.8294 25.5955 50.2402 26.0063 50.7591 26.211L53.5558 27.314L50.7591 28.4169C50.2402 28.6216 49.8294 29.0324 49.6247 29.5514L48.5217 32.348L47.4187 29.5514C47.2141 29.0324 46.8033 28.6216 46.2843 28.4169L43.4877 27.314L46.2843 26.211C46.8033 26.0063 47.2141 25.5955 47.4187 25.0766L48.5217 22.2799Z" fill="#FAF791"/>
<path d="M55.7445 29.2838L56.6077 31.4725C56.7679 31.8786 57.0894 32.2001 57.4955 32.3603L59.6842 33.2235L57.4955 34.0867C57.0894 34.2469 56.7679 34.5684 56.6077 34.9745L55.7445 37.1632L54.8813 34.9745C54.7211 34.5684 54.3996 34.2469 53.9935 34.0867L51.8048 33.2235L53.9935 32.3603C54.3996 32.2001 54.7211 31.8786 54.8813 31.4725L55.7445 29.2838Z" fill="#FFD257"/>
<path d="M55.7445 29.2838L56.6077 31.4725C56.7679 31.8786 57.0894 32.2001 57.4955 32.3603L59.6842 33.2235L57.4955 34.0867C57.0894 34.2469 56.7679 34.5684 56.6077 34.9745L55.7445 37.1632L54.8813 34.9745C54.7211 34.5684 54.3996 34.2469 53.9935 34.0867L51.8048 33.2235L53.9935 32.3603C54.3996 32.2001 54.7211 31.8786 54.8813 31.4725L55.7445 29.2838Z" fill="#FAF791"/>
</g>
<defs>
<filter id="filter0_d_4476_37985" x="0" y="0" width="64.6842" height="54.3722" filterUnits="userSpaceOnUse" color-interpolation-filters="sRGB">
<feFlood flood-opacity="0" result="BackgroundImageFix"/>
<feColorMatrix in="SourceAlpha" type="matrix" values="0 0 0 0 0 0 0 0 0 0 0 0 0 0 0 0 0 0 127 0" result="hardAlpha"/>
<feOffset/>
<feGaussianBlur stdDeviation="2.5"/>
<feComposite in2="hardAlpha" operator="out"/>
<feColorMatrix type="matrix" values="0 0 0 0 0.305882 0 0 0 0 0.34902 0 0 0 0 0.407843 0 0 0 0.1 0"/>
<feBlend mode="normal" in2="BackgroundImageFix" result="effect1_dropShadow_4476_37985"/>
<feBlend mode="normal" in="SourceGraphic" in2="effect1_dropShadow_4476_37985" result="shape"/>
</filter>
<linearGradient id="paint0_linear_4476_37985" x1="17.4482" y1="5.02431" x2="17.4482" y2="21.2936" gradientUnits="userSpaceOnUse">
<stop stop-color="#66CBFE"/>
<stop offset="0.4" stop-color="#A1E7D0"/>
<stop offset="0.6" stop-color="#A1E7D0"/>
<stop offset="1" stop-color="#CCEEFD"/>
</linearGradient>
<linearGradient id="paint1_linear_4476_37985" x1="46.5739" y1="5.02431" x2="46.5739" y2="21.2936" gradientUnits="userSpaceOnUse">
<stop stop-color="#66CBFE"/>
<stop offset="0.4" stop-color="#A1E7D0"/>
<stop offset="0.6" stop-color="#A1E7D0"/>
<stop offset="1" stop-color="#CCEEFD"/>
</linearGradient>
<linearGradient id="paint2_linear_4476_37985" x1="32.1063" y1="9.58528" x2="32.1063" y2="49.4199" gradientUnits="userSpaceOnUse">
<stop stop-color="#66CBFE"/>
<stop offset="0.4" stop-color="#A1E7D0"/>
<stop offset="0.6" stop-color="#A1E7D0"/>
<stop offset="1" stop-color="#CCEEFD"/>
</linearGradient>
<radialGradient id="paint3_radial_4476_37985" cx="0" cy="0" r="1" gradientUnits="userSpaceOnUse" gradientTransform="translate(20 39) rotate(90) scale(5 6)">
<stop stop-color="#FC5E78" stop-opacity="0.9"/>
<stop offset="1" stop-color="white"/>
</radialGradient>
<radialGradient id="paint4_radial_4476_37985" cx="0" cy="0" r="1" gradientUnits="userSpaceOnUse" gradientTransform="translate(44 39) rotate(90) scale(5 6)">
<stop stop-color="#FC5E78" stop-opacity="0.9"/>
<stop offset="1" stop-color="white"/>
</radialGradient>
<clipPath id="clip0_4476_37985">
<rect width="15.3685" height="4.15738" fill="white" transform="translate(24.2959 34.0007)"/>
</clipPath>
</defs>
</svg>
