<svg width="65" height="60" viewBox="0 0 65 60" fill="none" xmlns="http://www.w3.org/2000/svg">
<g filter="url(#filter0_d_533_39451)">
<path d="M17.4079 24.2741C21.9019 24.2741 25.545 20.631 25.545 16.137C25.545 11.6431 21.9019 7.99998 17.4079 7.99998C12.9139 7.99998 9.27084 11.6431 9.27084 16.137C9.27084 20.631 12.9139 24.2741 17.4079 24.2741Z" fill="#CDEEFF"/>
<path d="M17.4079 24.2741C21.9019 24.2741 25.545 20.631 25.545 16.137C25.545 11.6431 21.9019 7.99998 17.4079 7.99998C12.9139 7.99998 9.27084 11.6431 9.27084 16.137C9.27084 20.631 12.9139 24.2741 17.4079 24.2741Z" fill="url(#paint0_linear_533_39451)" style="mix-blend-mode:plus-darker"/>
<path d="M46.5336 24.2741C51.0276 24.2741 54.6707 20.631 54.6707 16.137C54.6707 11.6431 51.0276 7.99997 46.5336 7.99997C42.0397 7.99997 38.3966 11.6431 38.3966 16.137C38.3966 20.631 42.0397 24.2741 46.5336 24.2741Z" fill="#CDEEFF"/>
<path d="M46.5336 24.2741C51.0276 24.2741 54.6707 20.631 54.6707 16.137C54.6707 11.6431 51.0276 7.99997 46.5336 7.99997C42.0397 7.99997 38.3966 11.6431 38.3966 16.137C38.3966 20.631 42.0397 24.2741 46.5336 24.2741Z" fill="url(#paint1_linear_533_39451)" style="mix-blend-mode:plus-darker"/>
<path d="M17.4078 21.4887C20.3635 21.4887 22.7595 19.0927 22.7595 16.137C22.7595 13.1814 20.3635 10.7854 17.4078 10.7854C14.4522 10.7854 12.0562 13.1814 12.0562 16.137C12.0562 19.0927 14.4522 21.4887 17.4078 21.4887Z" fill="#FFF0F2"/>
<path d="M46.5336 21.4887C49.4892 21.4887 51.8852 19.0927 51.8852 16.137C51.8852 13.1814 49.4892 10.7854 46.5336 10.7854C43.578 10.7854 41.182 13.1814 41.182 16.137C41.182 19.0927 43.578 21.4887 46.5336 21.4887Z" fill="#FFF0F2"/>
<path d="M53.4926 27.9649C51.3602 19.1408 42.5361 12.5258 31.9724 12.5258C21.4086 12.5258 12.5845 19.1439 10.4522 27.9649C7.03114 30.9564 5 34.6811 5 38.7189C5 48.5677 17.0764 52.3723 31.9724 52.3723C46.8684 52.3723 58.9448 48.5677 58.9448 38.7189C58.9448 34.6811 56.9136 30.9564 53.4926 27.9679V27.9649Z" fill="#CDEEFF"/>
<path d="M53.4926 27.9649C51.3602 19.1408 42.5361 12.5258 31.9724 12.5258C21.4086 12.5258 12.5845 19.1439 10.4522 27.9649C7.03114 30.9564 5 34.6811 5 38.7189C5 48.5677 17.0764 52.3723 31.9724 52.3723C46.8684 52.3723 58.9448 48.5677 58.9448 38.7189C58.9448 34.6811 56.9136 30.9564 53.4926 27.9679V27.9649Z" fill="url(#paint2_linear_533_39451)" style="mix-blend-mode:plus-darker"/>
<path d="M35.2122 27.9044C36.3205 29.5336 38.1889 30.6045 40.3079 30.6046C40.4104 30.6046 40.5124 30.6007 40.6136 30.5958C41.4195 33.0588 43.7348 34.8388 46.4671 34.8389C46.8033 34.8389 47.1329 34.8107 47.4544 34.7589C49.4702 36.0128 50.7874 38.0814 50.7874 40.4219C50.7872 43.4438 48.592 46.0122 45.5316 46.9591C42.3056 48.8082 37.5496 49.6114 32.1907 49.6114C26.8313 49.6114 22.0749 48.8086 18.8489 46.9591C15.7892 46.0119 13.5952 43.4433 13.595 40.4219C13.595 38.0916 14.8998 36.03 16.9007 34.7745C17.1903 34.8163 17.4863 34.8389 17.7874 34.8389C20.5248 34.8389 22.844 33.0523 23.6458 30.5821C23.8088 30.595 23.9737 30.6046 24.14 30.6046C26.2584 30.6044 28.1264 29.5339 29.2347 27.9053C30.12 28.3978 31.139 28.6798 32.2239 28.6798C33.3087 28.6797 34.327 28.3967 35.2122 27.9044Z" fill="white"/>
<g filter="url(#filter1_f_533_39451)">
<path d="M20.9256 44.8368C24.1451 44.8368 26.7551 43.5318 26.7551 41.922C26.7551 40.3122 24.1451 39.0072 20.9256 39.0072C17.706 39.0072 15.096 40.3122 15.096 41.922C15.096 43.5318 17.706 44.8368 20.9256 44.8368Z" fill="#FC5E78"/>
</g>
<g filter="url(#filter2_f_533_39451)">
<path d="M43.0163 44.8368C46.2359 44.8368 48.8459 43.5318 48.8459 41.922C48.8459 40.3122 46.2359 39.0072 43.0163 39.0072C39.7968 39.0072 37.1868 40.3122 37.1868 41.922C37.1868 43.5318 39.7968 44.8368 43.0163 44.8368Z" fill="#FC5E78"/>
</g>
<path d="M31.9803 39.9001V42.3546V42.3546C30.6881 44.3647 27.7498 44.3647 26.4576 42.3546V42.3546" stroke="#816363" stroke-width="0.490909" stroke-linecap="round" stroke-linejoin="bevel"/>
<path d="M31.9804 42.3546V42.3546C33.2726 44.3647 36.2109 44.3647 37.5031 42.3546V42.3546" stroke="#816363" stroke-width="0.490909" stroke-linecap="round" stroke-linejoin="bevel"/>
<g clip-path="url(#clip0_533_39451)">
<path d="M31.0784 37.8553C32.351 37.6942 34.8193 37.7407 34.8716 39.4631C34.7453 39.8549 33.6526 39.5952 33.1491 39.926C32.6949 40.2264 32.5875 41.3481 31.7952 41.1304C31.3236 41.0013 31.1974 40.18 30.8129 39.926C30.3108 39.5952 29.2167 39.8549 29.0904 39.4631C29.0396 38.3705 30.1628 37.97 31.0784 37.8553Z" fill="#816363"/>
<path d="M26.1495 37.0006C27.4395 36.9353 27.4395 40.1422 26.1495 40.0769C24.9059 40.0131 24.9059 37.0644 26.1495 37.0006Z" fill="#3A3A3A"/>
<path d="M37.8111 37.0006C39.0547 37.0645 39.0547 40.0131 37.8111 40.077C36.5211 40.1423 36.5211 36.9353 37.8111 37.0006Z" fill="#3A3A3A"/>
</g>
<path d="M48.5217 25.2799L49.6247 28.0765C49.8294 28.5955 50.2402 29.0063 50.7591 29.2109L53.5558 30.3139L50.7591 31.4169C50.2402 31.6216 49.8294 32.0324 49.6247 32.5513L48.5217 35.348L47.4187 32.5513C47.2141 32.0324 46.8033 31.6216 46.2843 31.4169L43.4877 30.3139L46.2843 29.2109C46.8033 29.0063 47.2141 28.5955 47.4187 28.0765L48.5217 25.2799Z" fill="#FFD257"/>
<path d="M48.5217 25.2799L49.6247 28.0765C49.8294 28.5955 50.2402 29.0063 50.7591 29.2109L53.5558 30.3139L50.7591 31.4169C50.2402 31.6216 49.8294 32.0324 49.6247 32.5513L48.5217 35.348L47.4187 32.5513C47.2141 32.0324 46.8033 31.6216 46.2843 31.4169L43.4877 30.3139L46.2843 29.2109C46.8033 29.0063 47.2141 28.5955 47.4187 28.0765L48.5217 25.2799Z" fill="#FAF791"/>
<path d="M55.7445 32.2838L56.6077 34.4724C56.7678 34.8786 57.0893 35.2001 57.4955 35.3603L59.6842 36.2235L57.4955 37.0867C57.0893 37.2468 56.7678 37.5683 56.6077 37.9745L55.7445 40.1631L54.8813 37.9745C54.7211 37.5683 54.3996 37.2468 53.9935 37.0867L51.8048 36.2235L53.9935 35.3603C54.3996 35.2001 54.7211 34.8786 54.8813 34.4724L55.7445 32.2838Z" fill="#FFD257"/>
<path d="M55.7445 32.2838L56.6077 34.4724C56.7678 34.8786 57.0893 35.2001 57.4955 35.3603L59.6842 36.2235L57.4955 37.0867C57.0893 37.2468 56.7678 37.5683 56.6077 37.9745L55.7445 40.1631L54.8813 37.9745C54.7211 37.5683 54.3996 37.2468 53.9935 37.0867L51.8048 36.2235L53.9935 35.3603C54.3996 35.2001 54.7211 34.8786 54.8813 34.4724L55.7445 32.2838Z" fill="#FAF791"/>
</g>
<defs>
<filter id="filter0_d_533_39451" x="0" y="2.99997" width="64.6841" height="54.3723" filterUnits="userSpaceOnUse" color-interpolation-filters="sRGB">
<feFlood flood-opacity="0" result="BackgroundImageFix"/>
<feColorMatrix in="SourceAlpha" type="matrix" values="0 0 0 0 0 0 0 0 0 0 0 0 0 0 0 0 0 0 127 0" result="hardAlpha"/>
<feOffset/>
<feGaussianBlur stdDeviation="2.5"/>
<feComposite in2="hardAlpha" operator="out"/>
<feColorMatrix type="matrix" values="0 0 0 0 0.305882 0 0 0 0 0.34902 0 0 0 0 0.407843 0 0 0 0.1 0"/>
<feBlend mode="normal" in2="BackgroundImageFix" result="effect1_dropShadow_533_39451"/>
<feBlend mode="normal" in="SourceGraphic" in2="effect1_dropShadow_533_39451" result="shape"/>
</filter>
<filter id="filter1_f_533_39451" x="9.26646" y="33.1777" width="23.3182" height="17.4886" filterUnits="userSpaceOnUse" color-interpolation-filters="sRGB">
<feFlood flood-opacity="0" result="BackgroundImageFix"/>
<feBlend mode="normal" in="SourceGraphic" in2="BackgroundImageFix" result="shape"/>
<feGaussianBlur stdDeviation="2.91477" result="effect1_foregroundBlur_533_39451"/>
</filter>
<filter id="filter2_f_533_39451" x="31.3573" y="33.1777" width="23.3182" height="17.4886" filterUnits="userSpaceOnUse" color-interpolation-filters="sRGB">
<feFlood flood-opacity="0" result="BackgroundImageFix"/>
<feBlend mode="normal" in="SourceGraphic" in2="BackgroundImageFix" result="shape"/>
<feGaussianBlur stdDeviation="2.91477" result="effect1_foregroundBlur_533_39451"/>
</filter>
<linearGradient id="paint0_linear_533_39451" x1="17.4079" y1="7.99998" x2="17.4079" y2="24.2741" gradientUnits="userSpaceOnUse">
<stop stop-color="#97DCFF"/>
<stop offset="1" stop-color="#93FC3E" stop-opacity="0"/>
</linearGradient>
<linearGradient id="paint1_linear_533_39451" x1="46.5336" y1="7.99997" x2="46.5336" y2="24.2741" gradientUnits="userSpaceOnUse">
<stop stop-color="#97DCFF"/>
<stop offset="1" stop-color="#93FC3E" stop-opacity="0"/>
</linearGradient>
<linearGradient id="paint2_linear_533_39451" x1="31.9724" y1="12.5258" x2="31.9724" y2="52.3723" gradientUnits="userSpaceOnUse">
<stop stop-color="#97DCFF"/>
<stop offset="1" stop-color="#93FC3E" stop-opacity="0"/>
</linearGradient>
<clipPath id="clip0_533_39451">
<rect width="15.3685" height="4.15738" fill="white" transform="translate(24.2959 37.0007)"/>
</clipPath>
</defs>
</svg>
