<svg width="64" height="55" viewBox="0 0 64 55" fill="none" xmlns="http://www.w3.org/2000/svg">
<g filter="url(#filter0_d_4476_38061)">
<path d="M17.4078 21.2741C21.9018 21.2741 25.5449 17.631 25.5449 13.1371C25.5449 8.64309 21.9018 5 17.4078 5C12.9138 5 9.27075 8.64309 9.27075 13.1371C9.27075 17.631 12.9138 21.2741 17.4078 21.2741Z" fill="url(#paint0_linear_4476_38061)"/>
<path d="M46.5335 21.2741C51.0275 21.2741 54.6706 17.631 54.6706 13.1371C54.6706 8.64309 51.0275 5 46.5335 5C42.0396 5 38.3965 8.64309 38.3965 13.1371C38.3965 17.631 42.0396 21.2741 46.5335 21.2741Z" fill="url(#paint1_linear_4476_38061)"/>
<path d="M17.4078 18.4887C20.3634 18.4887 22.7594 16.0927 22.7594 13.137C22.7594 10.1814 20.3634 7.7854 17.4078 7.7854C14.4522 7.7854 12.0562 10.1814 12.0562 13.137C12.0562 16.0927 14.4522 18.4887 17.4078 18.4887Z" fill="#FFF0F2"/>
<path d="M46.5335 18.4887C49.4891 18.4887 51.8851 16.0927 51.8851 13.137C51.8851 10.1814 49.4891 7.7854 46.5335 7.7854C43.5779 7.7854 41.1819 10.1814 41.1819 13.137C41.1819 16.0927 43.5779 18.4887 46.5335 18.4887Z" fill="#FFF0F2"/>
<path d="M53.4926 24.9648C51.3602 16.1408 42.5361 9.52576 31.9724 9.52576C21.4086 9.52576 12.5845 16.1438 10.4522 24.9648C7.03114 27.9563 5 31.6811 5 35.7188C5 45.5677 17.0764 49.3722 31.9724 49.3722C46.8684 49.3722 58.9448 45.5677 58.9448 35.7188C58.9448 31.6811 56.9136 27.9563 53.4926 24.9679V24.9648Z" fill="url(#paint2_linear_4476_38061)"/>
<path d="M35.2122 24.9044C36.3204 26.5336 38.1889 27.6046 40.3079 27.6046C40.4103 27.6046 40.5123 27.6008 40.6135 27.5958C41.4194 30.0589 43.7347 31.8389 46.467 31.839C46.8032 31.839 47.1328 31.8107 47.4543 31.7589C49.4702 33.0128 50.7874 35.0815 50.7874 37.422C50.7872 40.4438 48.592 43.0123 45.5315 43.9591C42.3055 45.8082 37.5495 46.6114 32.1907 46.6115C26.8321 46.6114 22.0767 45.808 18.8508 43.9591C15.7902 43.0124 13.5952 40.4439 13.595 37.422C13.595 35.0917 14.8998 33.0301 16.9006 31.7745C17.1902 31.8163 17.4862 31.839 17.7874 31.839C20.5248 31.8389 22.844 30.0523 23.6458 27.5822C23.8087 27.5951 23.9737 27.6046 24.1399 27.6046C26.2583 27.6044 28.1263 26.534 29.2346 24.9054C30.1199 25.3978 31.139 25.6798 32.2239 25.6798C33.3087 25.6797 34.3269 25.3968 35.2122 24.9044Z" fill="white"/>
<path d="M20 44C23.3137 44 26 41.7614 26 39C26 36.2386 23.3137 34 20 34C16.6863 34 14 36.2386 14 39C14 41.7614 16.6863 44 20 44Z" fill="url(#paint3_radial_4476_38061)"/>
<path d="M44 44C47.3137 44 50 41.7614 50 39C50 36.2386 47.3137 34 44 34C40.6863 34 38 36.2386 38 39C38 41.7614 40.6863 44 44 44Z" fill="url(#paint4_radial_4476_38061)"/>
<path d="M31.9802 36.9001V39.3547V39.3547C30.688 41.3648 27.7497 41.3648 26.4575 39.3547V39.3547" stroke="#816363" stroke-width="0.490909" stroke-linecap="round" stroke-linejoin="bevel"/>
<path d="M31.9803 39.3547V39.3547C33.2725 41.3648 36.2108 41.3648 37.5031 39.3547V39.3547" stroke="#816363" stroke-width="0.490909" stroke-linecap="round" stroke-linejoin="bevel"/>
<g clip-path="url(#clip0_4476_38061)">
<path d="M31.0784 34.8553C32.351 34.6943 34.8193 34.7407 34.8716 36.4632C34.7453 36.8549 33.6526 36.5952 33.1491 36.9261C32.6949 37.2264 32.5875 38.3481 31.7952 38.1305C31.3236 38.0013 31.1974 37.18 30.8129 36.9261C30.3108 36.5952 29.2167 36.8549 29.0904 36.4632C29.0396 35.3705 30.1628 34.97 31.0784 34.8553Z" fill="#816363"/>
<path d="M26.1495 34.0006C27.4395 33.9353 27.4395 37.1422 26.1495 37.0769C24.9059 37.0131 24.9059 34.0645 26.1495 34.0006Z" fill="#3A3A3A"/>
<path d="M37.8111 34.0007C39.0547 34.0646 39.0547 37.0132 37.8111 37.0771C36.5211 37.1424 36.5211 33.9354 37.8111 34.0007Z" fill="#3A3A3A"/>
</g>
<path d="M34.5927 29.8416C34.9574 30.3523 36.081 31.2424 37.6569 30.7171" stroke="#3A3A3A" stroke-width="0.437743" stroke-linecap="round"/>
<path d="M29.3397 29.8416C28.9749 30.3523 27.8514 31.2424 26.2755 30.7171" stroke="#3A3A3A" stroke-width="0.437743" stroke-linecap="round"/>
<path d="M47.7111 20.0912H32.2876V26.2946L47.7111 33.6987V20.0912Z" fill="url(#paint5_linear_4476_38061)" fill-opacity="0.3"/>
<line x1="32.5065" y1="20.0912" x2="32.5065" y2="26.895" stroke="#4E5968" stroke-width="0.437743"/>
<line x1="37.6477" y1="20.0912" x2="37.6477" y2="29.2963" stroke="#4E5968" stroke-width="0.437743"/>
<line x1="42.7888" y1="20.0912" x2="42.7888" y2="31.6976" stroke="#4E5968" stroke-width="0.437743"/>
<line x1="47.9301" y1="20.0912" x2="47.9301" y2="34.099" stroke="#4E5968" stroke-width="0.437743"/>
</g>
<defs>
<filter id="filter0_d_4476_38061" x="0" y="0" width="63.9448" height="54.3722" filterUnits="userSpaceOnUse" color-interpolation-filters="sRGB">
<feFlood flood-opacity="0" result="BackgroundImageFix"/>
<feColorMatrix in="SourceAlpha" type="matrix" values="0 0 0 0 0 0 0 0 0 0 0 0 0 0 0 0 0 0 127 0" result="hardAlpha"/>
<feOffset/>
<feGaussianBlur stdDeviation="2.5"/>
<feComposite in2="hardAlpha" operator="out"/>
<feColorMatrix type="matrix" values="0 0 0 0 0.305882 0 0 0 0 0.34902 0 0 0 0 0.407843 0 0 0 0.1 0"/>
<feBlend mode="normal" in2="BackgroundImageFix" result="effect1_dropShadow_4476_38061"/>
<feBlend mode="normal" in="SourceGraphic" in2="effect1_dropShadow_4476_38061" result="shape"/>
</filter>
<linearGradient id="paint0_linear_4476_38061" x1="17.4078" y1="5" x2="17.4078" y2="21.2741" gradientUnits="userSpaceOnUse">
<stop stop-color="#FEF883"/>
<stop offset="1" stop-color="#CFEEFD"/>
</linearGradient>
<linearGradient id="paint1_linear_4476_38061" x1="46.5335" y1="5" x2="46.5335" y2="21.2741" gradientUnits="userSpaceOnUse">
<stop stop-color="#FEF883"/>
<stop offset="1" stop-color="#CFEEFD"/>
</linearGradient>
<linearGradient id="paint2_linear_4476_38061" x1="31.9724" y1="9.52576" x2="31.9724" y2="49.3722" gradientUnits="userSpaceOnUse">
<stop stop-color="#FEF883"/>
<stop offset="1" stop-color="#CFEEFD"/>
</linearGradient>
<radialGradient id="paint3_radial_4476_38061" cx="0" cy="0" r="1" gradientUnits="userSpaceOnUse" gradientTransform="translate(20 39) rotate(90) scale(5 6)">
<stop stop-color="#FC5E78" stop-opacity="0.9"/>
<stop offset="1" stop-color="white"/>
</radialGradient>
<radialGradient id="paint4_radial_4476_38061" cx="0" cy="0" r="1" gradientUnits="userSpaceOnUse" gradientTransform="translate(44 39) rotate(90) scale(5 6)">
<stop stop-color="#FC5E78" stop-opacity="0.9"/>
<stop offset="1" stop-color="white"/>
</radialGradient>
<linearGradient id="paint5_linear_4476_38061" x1="39.9993" y1="20.0912" x2="39.8747" y2="29.8991" gradientUnits="userSpaceOnUse">
<stop stop-color="#4E5968"/>
<stop offset="1" stop-color="#9BB0CE" stop-opacity="0"/>
</linearGradient>
<clipPath id="clip0_4476_38061">
<rect width="15.3685" height="4.15738" fill="white" transform="translate(24.2959 34.0007)"/>
</clipPath>
</defs>
</svg>
