<svg width="24" height="24" viewBox="0 0 24 24" fill="none" xmlns="http://www.w3.org/2000/svg">
<path d="M12 2C17.5228 2 22 6.47715 22 12C22 17.5228 17.5228 22 12 22C6.47715 22 2 17.5228 2 12C2 6.47715 6.47715 2 12 2ZM15.707 8.29297C15.3165 7.90245 14.6835 7.90247 14.293 8.29297L11.999 10.5859L9.70605 8.29297C9.31553 7.90247 8.68251 7.90245 8.29199 8.29297C7.9018 8.68351 7.9016 9.31661 8.29199 9.70703L10.585 12L8.29199 14.2939C7.9019 14.6845 7.90161 15.3176 8.29199 15.708C8.68237 16.0984 9.3155 16.0981 9.70605 15.708L11.999 13.4141L14.293 15.708L14.3682 15.7764C14.7608 16.0968 15.3408 16.0739 15.707 15.708C16.0732 15.3418 16.096 14.7609 15.7754 14.3682L15.707 14.293L13.4131 12L15.707 9.70703C16.0975 9.31651 16.0975 8.68349 15.707 8.29297Z" fill="#FA4B4E"/>
</svg>
