<svg width="187" height="37" viewBox="0 0 187 37" fill="none" xmlns="http://www.w3.org/2000/svg">
<g clip-path="url(#clip0_3269_18612)">
<path d="M9.03931 23.529L7.03577 29.0463H0.411011L11.3852 1.64111H17.7784L28.7525 29.0463H21.9868L19.9732 23.529H9.03931ZM14.5062 8.60819L11.0831 18.1225H17.9294L14.5062 8.60819Z" fill="#333D4B"/>
<path d="M60.6279 9.88698C62.0575 11.4677 62.7623 13.8236 62.7623 16.9547V29.0565H56.51V18.0522C56.51 16.5117 56.2281 15.364 55.6744 14.6089C55.1207 13.8538 54.3454 13.4712 53.3487 13.4712C52.211 13.4712 51.3049 13.884 50.6303 14.7196C49.9558 15.5553 49.6235 16.8339 49.6235 18.5556V29.0464H43.4115V18.0421C43.4115 14.9915 42.3343 13.4611 40.1797 13.4611C39.0622 13.4611 38.1762 13.8739 37.5217 14.7096C36.8673 15.5452 36.5351 16.8239 36.5351 18.5455V29.0364H30.2828V7.87338H36.233V9.90712C36.9479 9.12181 37.8037 8.5278 38.7803 8.12508C39.7569 7.72236 40.8341 7.521 42.002 7.521C43.2706 7.521 44.4284 7.78277 45.4956 8.3063C46.5628 8.82984 47.4388 9.61515 48.1334 10.6522C48.949 9.66549 49.9457 8.89025 51.1136 8.34657C52.2815 7.8029 53.5299 7.521 54.869 7.521C57.2752 7.521 59.1881 8.3063 60.6178 9.88698H60.6279Z" fill="#333D4B"/>
<path d="M80.613 9.92707C82.2641 11.5279 83.0897 13.9643 83.0897 17.2264V29.0463H77.2502V26.6601C76.2334 28.4824 74.3506 29.3986 71.592 29.3986C70.1321 29.3986 68.8535 29.1167 67.7762 28.5529C66.699 27.9891 65.8633 27.2139 65.2794 26.2272C64.6954 25.2305 64.4034 24.123 64.4034 22.8947C64.4034 20.8811 65.0881 19.3105 66.4674 18.1728C67.8467 17.0351 69.9711 16.4713 72.8505 16.4713H76.8274C76.8274 15.535 76.6562 14.7899 76.3038 14.2362C75.4883 13.3703 74.2701 12.9475 72.6592 12.9475C71.6927 12.9475 70.7262 13.1086 69.7798 13.4408C68.8233 13.763 68.0179 14.216 67.3433 14.7899L65.1485 9.97741C66.1855 9.1921 67.4541 8.58802 68.9441 8.1551C70.4342 7.72217 71.9545 7.51074 73.515 7.51074C76.5858 7.51074 78.9517 8.31618 80.6029 9.917L80.613 9.92707ZM75.438 24.1834C76.0924 23.7505 76.5556 23.1162 76.8375 22.2805V20.4381H73.5654C71.5316 20.4381 70.5147 21.1529 70.5147 22.5926C70.5147 23.2672 70.7564 23.8109 71.2396 24.2136C71.7229 24.6163 72.3773 24.8177 73.1928 24.8177C74.0083 24.8177 74.7836 24.6063 75.4481 24.1733L75.438 24.1834Z" fill="#333D4B"/>
<path d="M97.4769 29.0764C96.6714 29.2979 95.8056 29.4087 94.8894 29.4087C92.5133 29.4087 90.6709 28.7341 89.362 27.3951C88.0632 26.056 87.4088 24.0726 87.4088 21.465V13.7126H84.5797V8.4269H87.4088V3.17139H93.6611V8.41683H98.1615V13.7025H93.6611V21.3744C93.6611 22.21 93.8423 22.8443 94.2148 23.2974C94.5873 23.7404 95.1109 23.9619 95.7754 23.9619C96.5909 23.9619 97.2956 23.7102 97.8997 23.2168L99.5408 28.0696C98.9669 28.5126 98.2823 28.8449 97.4769 29.0664V29.0764Z" fill="#333D4B"/>
<path d="M120.573 29.0563H114.623V27.1333C113.284 28.6435 111.421 29.4087 109.045 29.4087C107.233 29.4087 105.602 28.9556 104.132 28.0596C102.672 27.1635 101.514 25.8849 100.668 24.2438C99.8228 22.6027 99.3999 20.6797 99.3999 18.4849C99.3999 16.2901 99.8228 14.3671 100.668 12.7058C101.514 11.0446 102.662 9.76599 104.112 8.86993C105.562 7.97388 107.203 7.52082 109.035 7.52082C111.27 7.52082 113.042 8.21551 114.351 9.59483V0H120.563V29.0563H120.573ZM113.243 22.341C114.059 21.3845 114.472 20.1059 114.472 18.4849C114.472 16.8639 114.059 15.545 113.243 14.5886C112.428 13.6321 111.401 13.1589 110.153 13.1589C108.904 13.1589 107.807 13.6321 106.971 14.5886C106.135 15.545 105.723 16.8438 105.723 18.4849C105.723 20.126 106.135 21.3845 106.971 22.341C107.797 23.2974 108.864 23.7706 110.153 23.7706C111.441 23.7706 112.418 23.2974 113.243 22.341Z" fill="#333D4B"/>
<path d="M138.655 9.92707C140.306 11.5279 141.132 13.9643 141.132 17.2264V29.0463H135.292V26.6601C134.275 28.4824 132.393 29.3986 129.634 29.3986C128.174 29.3986 126.896 29.1167 125.818 28.5529C124.741 27.9891 123.905 27.2139 123.321 26.2272C122.738 25.2305 122.446 24.123 122.446 22.8947C122.446 20.8811 123.13 19.3105 124.51 18.1728C125.889 17.0351 128.013 16.4713 130.893 16.4713H134.87C134.87 15.535 134.698 14.7899 134.346 14.2362C133.53 13.3703 132.312 12.9475 130.701 12.9475C129.735 12.9475 128.768 13.1086 127.822 13.4408C126.875 13.7731 126.06 14.216 125.385 14.7899L123.191 9.97741C124.228 9.1921 125.496 8.58802 126.986 8.1551C128.476 7.72217 129.997 7.51074 131.557 7.51074C134.628 7.51074 136.994 8.31618 138.645 9.917L138.655 9.92707ZM133.48 24.1834C134.135 23.7505 134.598 23.1162 134.88 22.2805V20.4381H131.607C129.574 20.4381 128.557 21.1529 128.557 22.5926C128.557 23.2672 128.798 23.8109 129.282 24.2136C129.765 24.6163 130.419 24.8177 131.235 24.8177C132.05 24.8177 132.826 24.6063 133.48 24.1733V24.1834Z" fill="#333D4B"/>
<path d="M161.197 9.88698C162.657 11.4677 163.392 13.8236 163.392 16.9547V29.0565H157.18V18.0522C157.18 15.0015 156.022 13.4712 153.717 13.4712C152.499 13.4712 151.522 13.9041 150.777 14.78C150.032 15.656 149.659 16.9648 149.659 18.7166V29.0565H143.407V7.87338H149.357V9.94739C150.102 9.16208 150.988 8.56807 152.036 8.14521C153.073 7.73243 154.2 7.521 155.418 7.521C157.794 7.521 159.717 8.3063 161.187 9.88698H161.197Z" fill="#333D4B"/>
<path d="M183.76 34.1004C181.877 36.0335 179.149 37 175.575 37C173.712 37 171.95 36.7584 170.279 36.2751C168.607 35.7918 167.208 35.0971 166.09 34.1809L168.507 29.2476C169.322 29.9222 170.339 30.4759 171.537 30.8887C172.735 31.3015 173.923 31.5129 175.091 31.5129C176.903 31.5129 178.232 31.0599 179.068 30.1638C179.914 29.2677 180.337 27.9287 180.337 26.1467V25.7943C178.947 27.2541 177.065 27.9891 174.678 27.9891C172.896 27.9891 171.275 27.5663 169.826 26.7205C168.376 25.8748 167.218 24.6767 166.362 23.1162C165.506 21.5657 165.084 19.7837 165.084 17.7701C165.084 15.7565 165.506 13.9442 166.362 12.3837C167.218 10.8332 168.376 9.6351 169.826 8.77931C171.275 7.9336 172.896 7.51074 174.678 7.51074C177.286 7.51074 179.28 8.39673 180.669 10.1687V7.86312H186.589V25.2909C186.589 29.2275 185.643 32.1673 183.76 34.1004ZM179.149 21.0824C179.994 20.2367 180.417 19.1292 180.417 17.7701C180.417 16.4109 180.004 15.2732 179.169 14.4275C178.333 13.5818 177.256 13.1589 175.917 13.1589C174.578 13.1589 173.561 13.5818 172.715 14.4275C171.869 15.2732 171.447 16.3907 171.447 17.7701C171.447 19.1494 171.869 20.2267 172.715 21.0824C173.561 21.9282 174.628 22.351 175.917 22.351C177.206 22.351 178.313 21.9282 179.149 21.0824Z" fill="#333D4B"/>
</g>
<defs>
<clipPath id="clip0_3269_18612">
<rect width="186.178" height="37" fill="white" transform="translate(0.411011)"/>
</clipPath>
</defs>
</svg>
