<svg width="157" height="60" viewBox="0 0 157 60" fill="none" xmlns="http://www.w3.org/2000/svg">
<rect x="1.5" y="1" width="154" height="58" rx="13" stroke="#76EAE1" stroke-width="2" stroke-linecap="square" stroke-dasharray="2 10"/>
<path d="M20.4171 27.8822C23.5436 27.8822 26.0781 25.3477 26.0781 22.2211C26.0781 19.0946 23.5436 16.5601 20.4171 16.5601C17.2905 16.5601 14.756 19.0946 14.756 22.2211C14.756 25.3477 17.2905 27.8822 20.4171 27.8822Z" fill="#CDEEFF"/>
<path d="M20.4171 27.8822C23.5436 27.8822 26.0781 25.3477 26.0781 22.2211C26.0781 19.0946 23.5436 16.5601 20.4171 16.5601C17.2905 16.5601 14.756 19.0946 14.756 22.2211C14.756 25.3477 17.2905 27.8822 20.4171 27.8822Z" fill="url(#paint0_linear_4095_32532)" fill-opacity="0.5" style="mix-blend-mode:plus-darker"/>
<path d="M40.6802 27.8822C43.8068 27.8822 46.3413 25.3477 46.3413 22.2211C46.3413 19.0946 43.8068 16.5601 40.6802 16.5601C37.5537 16.5601 35.0192 19.0946 35.0192 22.2211C35.0192 25.3477 37.5537 27.8822 40.6802 27.8822Z" fill="#CDEEFF"/>
<path d="M40.6802 27.8822C43.8068 27.8822 46.3413 25.3477 46.3413 22.2211C46.3413 19.0946 43.8068 16.5601 40.6802 16.5601C37.5537 16.5601 35.0192 19.0946 35.0192 22.2211C35.0192 25.3477 37.5537 27.8822 40.6802 27.8822Z" fill="url(#paint1_linear_4095_32532)" fill-opacity="0.5" style="mix-blend-mode:plus-darker"/>
<path d="M43.135 29.1382C41.888 23.9777 36.7275 20.1091 30.5496 20.1091C24.3718 20.1091 19.2113 23.9795 17.9643 29.1382C15.9636 30.8876 14.7758 33.0659 14.7758 35.4273C14.7758 41.187 21.8382 43.412 30.5496 43.412C39.2611 43.412 46.3235 41.187 46.3235 35.4273C46.3235 33.0659 45.1357 30.8876 43.135 29.14V29.1382Z" fill="#CDEEFF"/>
<path d="M43.135 29.1382C41.888 23.9777 36.7275 20.1091 30.5496 20.1091C24.3718 20.1091 19.2113 23.9795 17.9643 29.1382C15.9636 30.8876 14.7758 33.0659 14.7758 35.4273C14.7758 41.187 21.8382 43.412 30.5496 43.412C39.2611 43.412 46.3235 41.187 46.3235 35.4273C46.3235 33.0659 45.1357 30.8876 43.135 29.14V29.1382Z" fill="url(#paint2_linear_4095_32532)" fill-opacity="0.5" style="mix-blend-mode:plus-darker"/>
<path d="M68.4006 27.8492C71.518 27.8492 74.0451 25.3221 74.0451 22.2046C74.0451 19.0872 71.518 16.5601 68.4006 16.5601C65.2831 16.5601 62.756 19.0872 62.756 22.2046C62.756 25.3221 65.2831 27.8492 68.4006 27.8492Z" fill="#CDEEFF"/>
<path d="M68.4006 27.8492C71.518 27.8492 74.0451 25.3221 74.0451 22.2046C74.0451 19.0872 71.518 16.5601 68.4006 16.5601C65.2831 16.5601 62.756 19.0872 62.756 22.2046C62.756 25.3221 65.2831 27.8492 68.4006 27.8492Z" fill="url(#paint3_linear_4095_32532)" style="mix-blend-mode:hard-light"/>
<path d="M88.6048 27.8492C91.7222 27.8492 94.2494 25.3221 94.2494 22.2046C94.2494 19.0872 91.7222 16.5601 88.6048 16.5601C85.4874 16.5601 82.9602 19.0872 82.9602 22.2046C82.9602 25.3221 85.4874 27.8492 88.6048 27.8492Z" fill="#CDEEFF"/>
<path d="M88.6048 27.8492C91.7222 27.8492 94.2494 25.3221 94.2494 22.2046C94.2494 19.0872 91.7222 16.5601 88.6048 16.5601C85.4874 16.5601 82.9602 19.0872 82.9602 22.2046C82.9602 25.3221 85.4874 27.8492 88.6048 27.8492Z" fill="url(#paint4_linear_4095_32532)" style="mix-blend-mode:hard-light"/>
<path d="M78.5037 20.0986C84.6635 20.0986 89.8091 23.9561 91.0525 29.1016V29.1035C93.0472 30.846 94.2311 33.0178 94.2312 35.3721C94.2312 41.115 87.1897 43.334 78.5037 43.334C69.8176 43.334 62.7761 41.1151 62.7761 35.3721C62.7762 33.0178 63.9601 30.8459 65.9548 29.1016C67.1983 23.9579 72.3438 20.0986 78.5037 20.0986Z" fill="#CDEEFF"/>
<path d="M78.5037 20.0986C84.6635 20.0986 89.8091 23.9561 91.0525 29.1016V29.1035C93.0472 30.846 94.2311 33.0178 94.2312 35.3721C94.2312 41.115 87.1897 43.334 78.5037 43.334C69.8176 43.334 62.7761 41.1151 62.7761 35.3721C62.7762 33.0178 63.9601 30.8459 65.9548 29.1016C67.1983 23.9579 72.3438 20.0986 78.5037 20.0986Z" fill="url(#paint5_linear_4095_32532)" style="mix-blend-mode:hard-light"/>
<path d="M116.401 27.8492C119.518 27.8492 122.045 25.3221 122.045 22.2046C122.045 19.0872 119.518 16.5601 116.401 16.5601C113.283 16.5601 110.756 19.0872 110.756 22.2046C110.756 25.3221 113.283 27.8492 116.401 27.8492Z" fill="#CDEEFF"/>
<path d="M116.401 27.8492C119.518 27.8492 122.045 25.3221 122.045 22.2046C122.045 19.0872 119.518 16.5601 116.401 16.5601C113.283 16.5601 110.756 19.0872 110.756 22.2046C110.756 25.3221 113.283 27.8492 116.401 27.8492Z" fill="url(#paint6_linear_4095_32532)" style="mix-blend-mode:hard-light"/>
<path d="M136.605 27.8492C139.722 27.8492 142.249 25.3221 142.249 22.2046C142.249 19.0872 139.722 16.5601 136.605 16.5601C133.487 16.5601 130.96 19.0872 130.96 22.2046C130.96 25.3221 133.487 27.8492 136.605 27.8492Z" fill="#CDEEFF"/>
<path d="M136.605 27.8492C139.722 27.8492 142.249 25.3221 142.249 22.2046C142.249 19.0872 139.722 16.5601 136.605 16.5601C133.487 16.5601 130.96 19.0872 130.96 22.2046C130.96 25.3221 133.487 27.8492 136.605 27.8492Z" fill="url(#paint7_linear_4095_32532)" style="mix-blend-mode:hard-light"/>
<path d="M126.504 20.0986C132.663 20.0987 137.809 23.9562 139.052 29.1016V29.1035C141.047 30.846 142.231 33.0178 142.231 35.3721C142.231 41.115 135.19 43.334 126.504 43.334C117.818 43.334 110.776 41.1151 110.776 35.3721C110.776 33.0178 111.96 30.8458 113.955 29.1016C115.198 23.958 120.344 20.0986 126.504 20.0986Z" fill="#CDEEFF"/>
<path d="M126.504 20.0986C132.663 20.0987 137.809 23.9562 139.052 29.1016V29.1035C141.047 30.846 142.231 33.0178 142.231 35.3721C142.231 41.115 135.19 43.334 126.504 43.334C117.818 43.334 110.776 41.1151 110.776 35.3721C110.776 33.0178 111.96 30.8458 113.955 29.1016C115.198 23.958 120.344 20.0986 126.504 20.0986Z" fill="url(#paint8_linear_4095_32532)" style="mix-blend-mode:hard-light"/>
<defs>
<linearGradient id="paint0_linear_4095_32532" x1="20.4171" y1="16.5601" x2="20.4171" y2="27.8822" gradientUnits="userSpaceOnUse">
<stop stop-color="#97DCFF"/>
<stop offset="1" stop-color="#93FC3E" stop-opacity="0"/>
</linearGradient>
<linearGradient id="paint1_linear_4095_32532" x1="40.6802" y1="16.5601" x2="40.6802" y2="27.8822" gradientUnits="userSpaceOnUse">
<stop stop-color="#97DCFF"/>
<stop offset="1" stop-color="#93FC3E" stop-opacity="0"/>
</linearGradient>
<linearGradient id="paint2_linear_4095_32532" x1="30.5496" y1="20.1091" x2="30.5496" y2="43.412" gradientUnits="userSpaceOnUse">
<stop stop-color="#97DCFF"/>
<stop offset="1" stop-color="#93FC3E" stop-opacity="0"/>
</linearGradient>
<linearGradient id="paint3_linear_4095_32532" x1="68.4006" y1="16.5601" x2="68.4006" y2="27.8492" gradientUnits="userSpaceOnUse">
<stop stop-color="#FFCC41"/>
<stop offset="1" stop-color="#FFD257" stop-opacity="0"/>
</linearGradient>
<linearGradient id="paint4_linear_4095_32532" x1="88.6048" y1="16.5601" x2="88.6048" y2="27.8492" gradientUnits="userSpaceOnUse">
<stop stop-color="#FFCC41"/>
<stop offset="1" stop-color="#FFD257" stop-opacity="0"/>
</linearGradient>
<linearGradient id="paint5_linear_4095_32532" x1="78.5037" y1="20.0986" x2="78.5037" y2="43.334" gradientUnits="userSpaceOnUse">
<stop stop-color="#FFCC41"/>
<stop offset="1" stop-color="#FFD257" stop-opacity="0"/>
</linearGradient>
<linearGradient id="paint6_linear_4095_32532" x1="116.401" y1="16.5601" x2="116.401" y2="27.8492" gradientUnits="userSpaceOnUse">
<stop stop-color="#FF6567"/>
<stop offset="1" stop-color="#F77BAC" stop-opacity="0"/>
</linearGradient>
<linearGradient id="paint7_linear_4095_32532" x1="136.605" y1="16.5601" x2="136.605" y2="27.8492" gradientUnits="userSpaceOnUse">
<stop stop-color="#FF6567"/>
<stop offset="1" stop-color="#F77BAC" stop-opacity="0"/>
</linearGradient>
<linearGradient id="paint8_linear_4095_32532" x1="126.504" y1="20.0986" x2="126.504" y2="43.334" gradientUnits="userSpaceOnUse">
<stop stop-color="#FF6567"/>
<stop offset="1" stop-color="#F77BAC" stop-opacity="0"/>
</linearGradient>
</defs>
</svg>
