<svg width="25" height="24" viewBox="0 0 25 24" fill="none" xmlns="http://www.w3.org/2000/svg">
<g clip-path="url(#clip0_3269_18609)">
<path d="M21.6263 7.8407C21.4929 7.9442 19.1377 9.2713 19.1377 12.2222C19.1377 15.6354 22.1346 16.8429 22.2243 16.8728C22.2105 16.9464 21.7482 18.5265 20.6442 20.1365C19.6598 21.5533 18.6317 22.9678 17.0677 22.9678C15.5037 22.9678 15.1012 22.0593 13.2957 22.0593C11.5362 22.0593 10.9106 22.9977 9.48 22.9977C8.0494 22.9977 7.0512 21.6867 5.9035 20.0767C4.5741 18.1861 3.5 15.249 3.5 12.4614C3.5 7.9902 6.4072 5.6189 9.2684 5.6189C10.7887 5.6189 12.056 6.6171 13.0105 6.6171C13.919 6.6171 15.3358 5.5591 17.0654 5.5591C17.7209 5.5591 20.0761 5.6189 21.6263 7.8407ZM16.2443 3.6662C16.9596 2.8175 17.4656 1.6399 17.4656 0.4623C17.4656 0.299 17.4518 0.1334 17.4219 0C16.2581 0.0437 14.8735 0.7751 14.0386 1.7434C13.3831 2.4886 12.7713 3.6662 12.7713 4.8599C12.7713 5.0393 12.8012 5.2187 12.815 5.2762C12.8886 5.29 13.0082 5.3061 13.1278 5.3061C14.172 5.3061 15.4853 4.6069 16.2443 3.6662Z" fill="white"/>
</g>
<defs>
<clipPath id="clip0_3269_18609">
<rect width="18.722" height="23" fill="white" transform="translate(3.5)"/>
</clipPath>
</defs>
</svg>
