<svg width="24" height="24" viewBox="0 0 24 24" fill="none" xmlns="http://www.w3.org/2000/svg">
<path d="M19.7577 5.41452C19.3094 4.96607 18.7772 4.61034 18.1915 4.36763C17.6057 4.12492 16.9779 4 16.3438 4C15.7098 4 15.082 4.12492 14.4962 4.36763C13.9105 4.61034 13.3783 4.96607 12.93 5.41452L11.9998 6.34476L11.0695 5.41452C10.1641 4.50912 8.93617 4.00047 7.65574 4.00047C6.37531 4.00047 5.14733 4.50912 4.24193 5.41452C3.33653 6.31992 2.82788 7.5479 2.82788 8.82833C2.82788 10.1088 3.33653 11.3367 4.24193 12.2421L5.17217 13.1724L11.9998 20L18.8274 13.1724L19.7577 12.2421C20.2061 11.7939 20.5618 11.2617 20.8045 10.676C21.0472 10.0902 21.1722 9.46237 21.1722 8.82833C21.1722 8.19428 21.0472 7.56645 20.8045 6.9807C20.5618 6.39494 20.2061 5.86275 19.7577 5.41452Z" fill="black" fill-opacity="0.5" style="mix-blend-mode:multiply"/>
<path d="M16.3435 4.5C16.9117 4.5 17.4748 4.61165 17.9998 4.8291C18.5247 5.04663 19.0023 5.36568 19.4041 5.76758V5.76855C19.8059 6.17027 20.125 6.64695 20.3425 7.17188C20.5601 7.69689 20.6726 8.25983 20.6726 8.82812C20.6726 9.39644 20.5601 9.95934 20.3425 10.4844C20.125 11.0094 19.806 11.4869 19.4041 11.8887L18.4734 12.8184L11.9998 19.292L5.52612 12.8184L4.59546 11.8887C3.78383 11.077 3.32788 9.97594 3.32788 8.82812C3.32793 7.6805 3.78403 6.58011 4.59546 5.76855C5.40709 4.95692 6.50819 4.5 7.65601 4.5C8.80373 4.50007 9.90401 4.95699 10.7156 5.76855L11.6462 6.69824C11.8415 6.8935 12.158 6.8935 12.3533 6.69824L13.2839 5.76855V5.76758C13.6856 5.36578 14.1624 5.0466 14.6873 4.8291C15.2122 4.61158 15.7753 4.50004 16.3435 4.5Z" stroke="white" stroke-opacity="0.5" stroke-linecap="round" stroke-linejoin="round"/>
</svg>
