<svg width="235" height="174" viewBox="0 0 235 174" fill="none" xmlns="http://www.w3.org/2000/svg">
<ellipse cx="117.683" cy="158.662" rx="58.5" ry="14" fill="url(#paint0_radial_124_6286)"/>
<ellipse cx="117.683" cy="158.662" rx="26.5" ry="6" fill="url(#paint1_radial_124_6286)"/>
<path d="M115.837 92.7936C111.737 92.8584 107.632 93.0955 103.532 93.5006C102.619 94.9484 101.814 96.3806 101.042 97.8014C99.1421 101.116 97.4899 104.565 96.1041 108.099C92.991 110.07 89.5622 112.516 86.7711 115.026C81.215 119.713 77.9724 124.626 78.0064 124.556C72.5059 132.247 75.5699 138.014 78.0797 141.241L78.0826 141.237C79.9452 143.379 81.7338 144.233 84.1802 142.104C83.3319 143.757 82.8551 145.616 82.855 147.582C82.855 154.095 88.0849 159.437 94.7398 159.963V160.007L94.8941 159.975C95.1999 159.996 95.5086 160.007 95.8199 160.007C98.0638 160.007 100.174 159.46 102.015 158.499L107.178 157.429C107.833 157.622 108.5 157.788 109.177 157.922C115.191 159.114 120.648 159.079 126.597 157.88C127.266 157.746 127.924 157.581 128.571 157.39L133.924 158.5C135.765 159.46 137.875 160.007 140.118 160.007C140.43 160.007 140.739 159.996 141.045 159.975L141.199 160.007V159.963C147.854 159.437 153.084 154.095 153.084 147.582C153.083 145.227 152.4 143.025 151.212 141.148C154.17 144.432 156.178 143.651 158.277 141.237L158.272 141.239C160.786 138.009 163.846 132.245 158.345 124.554C158.387 124.627 155.139 119.716 149.587 115.026C146.601 112.341 142.887 109.724 139.608 107.689C137.685 102.672 135.256 97.8693 132.406 93.4576C128.306 93.0633 124.2 92.8417 120.1 92.7877C118.679 92.7661 117.258 92.772 115.837 92.7936ZM144.552 131.409C146.267 133.803 147.292 135.416 147.303 135.389C148.151 136.885 148.934 138.138 149.662 139.173C148.268 137.722 146.519 136.587 144.546 135.9C144.602 134.41 144.604 132.912 144.552 131.409ZM91.1392 132.354C91.1171 133.565 91.1296 134.774 91.1783 135.98C89.7822 136.493 88.5037 137.232 87.3883 138.148C87.9147 137.339 88.4708 136.422 89.0562 135.389C89.067 135.411 89.8311 134.217 91.1392 132.354Z" fill="#BEEDE8"/>
<path d="M115.837 92.7936C111.737 92.8584 107.632 93.0955 103.532 93.5006C102.619 94.9484 101.814 96.3806 101.042 97.8014C99.1421 101.116 97.4899 104.565 96.1041 108.099C92.991 110.07 89.5622 112.516 86.7711 115.026C81.215 119.713 77.9724 124.626 78.0064 124.556C72.5059 132.247 75.5699 138.014 78.0797 141.241L78.0826 141.237C79.9452 143.379 81.7338 144.233 84.1802 142.104C83.3319 143.757 82.8551 145.616 82.855 147.582C82.855 154.095 88.0849 159.437 94.7398 159.963V160.007L94.8941 159.975C95.1999 159.996 95.5086 160.007 95.8199 160.007C98.0638 160.007 100.174 159.46 102.015 158.499L107.178 157.429C107.833 157.622 108.5 157.788 109.177 157.922C115.191 159.114 120.648 159.079 126.597 157.88C127.266 157.746 127.924 157.581 128.571 157.39L133.924 158.5C135.765 159.46 137.875 160.007 140.118 160.007C140.43 160.007 140.739 159.996 141.045 159.975L141.199 160.007V159.963C147.854 159.437 153.084 154.095 153.084 147.582C153.083 145.227 152.4 143.025 151.212 141.148C154.17 144.432 156.178 143.651 158.277 141.237L158.272 141.239C160.786 138.009 163.846 132.245 158.345 124.554C158.387 124.627 155.139 119.716 149.587 115.026C146.601 112.341 142.887 109.724 139.608 107.689C137.685 102.672 135.256 97.8693 132.406 93.4576C128.306 93.0633 124.2 92.8417 120.1 92.7877C118.679 92.7661 117.258 92.772 115.837 92.7936ZM144.552 131.409C146.267 133.803 147.292 135.416 147.303 135.389C148.151 136.885 148.934 138.138 149.662 139.173C148.268 137.722 146.519 136.587 144.546 135.9C144.602 134.41 144.604 132.912 144.552 131.409ZM91.1392 132.354C91.1171 133.565 91.1296 134.774 91.1783 135.98C89.7822 136.493 88.5037 137.232 87.3883 138.148C87.9147 137.339 88.4708 136.422 89.0562 135.389C89.067 135.411 89.8311 134.217 91.1392 132.354Z" fill="url(#paint2_linear_124_6286)" style="mix-blend-mode:hard-light"/>
<path d="M87.242 138.316C83.122 144.739 80.6085 144.155 78.078 141.234C75.7749 138.395 73.3486 133.576 76.3427 127.201C80.0892 130.911 83.7325 134.649 87.2373 138.313L87.242 138.316Z" fill="#FFF0F2"/>
<path d="M149.118 138.316C153.238 144.739 155.751 144.155 158.282 141.234C160.585 138.395 163.011 133.576 160.017 127.201C156.275 130.909 152.627 134.649 149.122 138.313L149.118 138.316Z" fill="#FFF0F2"/>
<path d="M117.858 141.959C111.495 141.921 103.456 137.259 102.419 125.979C101.279 126.109 101.252 97.3203 107.702 90.5892C112.316 84.7333 124.12 84.2147 128.333 90.5838C134.287 97.8984 134.4 126.119 133.336 125.984C132.244 137.291 124.222 141.942 117.853 141.959H117.858Z" fill="white"/>
<path d="M134.025 143.366C131.39 151.136 135.333 156.074 141.549 158.182C147.765 160.291 153.9 158.771 156.535 151.001C159.171 143.231 156.789 133.688 150.573 131.58C144.357 129.471 136.661 135.596 134.025 143.366Z" fill="white"/>
<path d="M101.914 143.366C104.55 151.136 100.606 156.074 94.3899 158.182C88.174 160.291 82.0396 158.771 79.4041 151.001C76.7687 143.231 79.1506 133.688 85.3666 131.58C91.5825 129.471 99.2786 135.596 101.914 143.366Z" fill="white"/>
<path d="M84.4222 54.7024C94.6884 54.7024 103.011 46.38 103.011 36.1137C103.011 25.8475 94.6884 17.5251 84.4222 17.5251C74.156 17.5251 65.8336 25.8475 65.8336 36.1137C65.8336 46.38 74.156 54.7024 84.4222 54.7024Z" fill="#CDEEFF"/>
<path d="M84.4222 54.7024C94.6884 54.7024 103.011 46.38 103.011 36.1137C103.011 25.8475 94.6884 17.5251 84.4222 17.5251C74.156 17.5251 65.8336 25.8475 65.8336 36.1137C65.8336 46.38 74.156 54.7024 84.4222 54.7024Z" fill="url(#paint3_linear_124_6286)" style="mix-blend-mode:hard-light"/>
<path d="M150.959 54.7024C161.225 54.7024 169.547 46.38 169.547 36.1137C169.547 25.8475 161.225 17.5251 150.959 17.5251C140.692 17.5251 132.37 25.8475 132.37 36.1137C132.37 46.38 140.692 54.7024 150.959 54.7024Z" fill="#CDEEFF"/>
<path d="M150.959 54.7024C161.225 54.7024 169.547 46.38 169.547 36.1137C169.547 25.8475 161.225 17.5251 150.959 17.5251C140.692 17.5251 132.37 25.8475 132.37 36.1137C132.37 46.38 140.692 54.7024 150.959 54.7024Z" fill="url(#paint4_linear_124_6286)" style="mix-blend-mode:hard-light"/>
<path d="M84.4223 48.3393C91.1743 48.3393 96.6478 42.8657 96.6478 36.1137C96.6478 29.3618 91.1743 23.8882 84.4223 23.8882C77.6704 23.8882 72.1968 29.3618 72.1968 36.1137C72.1968 42.8657 77.6704 48.3393 84.4223 48.3393Z" fill="#FFF0F2"/>
<path d="M150.958 48.3393C157.71 48.3393 163.184 42.8657 163.184 36.1137C163.184 29.3618 157.71 23.8882 150.958 23.8882C144.206 23.8882 138.733 29.3618 138.733 36.1137C138.733 42.8657 144.206 48.3393 150.958 48.3393Z" fill="#FFF0F2"/>
<path d="M166.856 63.1338C161.985 42.9756 141.826 27.864 117.694 27.864C93.5618 27.864 73.4037 42.9826 68.5323 63.1338C60.7172 69.9676 56.0772 78.4767 56.0772 87.7006C56.0772 110.2 83.665 118.891 117.694 118.891C151.723 118.891 179.311 110.2 179.311 87.7006C179.311 78.4767 174.671 69.9676 166.856 63.1408V63.1338Z" fill="#CDEEFF"/>
<path d="M166.856 63.1338C161.985 42.9756 141.826 27.864 117.694 27.864C93.5618 27.864 73.4037 42.9826 68.5323 63.1338C60.7172 69.9676 56.0772 78.4767 56.0772 87.7006C56.0772 110.2 83.665 118.891 117.694 118.891C151.723 118.891 179.311 110.2 179.311 87.7006C179.311 78.4767 174.671 69.9676 166.856 63.1408V63.1338Z" fill="url(#paint5_linear_124_6286)" style="mix-blend-mode:hard-light"/>
<path d="M125.096 63C127.628 66.7202 131.896 69.1639 136.735 69.1641C136.968 69.1641 137.2 69.1577 137.431 69.1465C139.272 74.7731 144.565 78.8379 150.807 78.8379C151.577 78.8379 152.332 78.7743 153.068 78.6553C157.67 81.5207 160.676 86.246 160.676 91.5908C160.676 98.4964 155.658 104.367 148.663 106.528C141.294 110.75 130.432 112.583 118.193 112.583C105.955 112.583 95.094 110.75 87.7246 106.528C80.7292 104.367 75.7121 98.4966 75.7119 91.5908C75.7119 86.2688 78.6914 81.5605 83.2598 78.6914C83.9227 78.7872 84.6005 78.8379 85.29 78.8379C91.542 78.8377 96.84 74.7591 98.6729 69.1182C99.0447 69.1476 99.4204 69.1641 99.7998 69.1641C104.639 69.1641 108.907 66.7202 111.439 63C113.462 64.1247 115.789 64.7666 118.268 64.7666C120.746 64.7666 123.073 64.1246 125.096 63Z" fill="white"/>
<g filter="url(#filter0_f_124_6286)">
<path d="M92.4581 101.677C99.8131 101.677 105.775 98.6955 105.775 95.0181C105.775 91.3406 99.8131 88.3594 92.4581 88.3594C85.1032 88.3594 79.1409 91.3406 79.1409 95.0181C79.1409 98.6955 85.1032 101.677 92.4581 101.677Z" fill="#FC5E78"/>
</g>
<g filter="url(#filter1_f_124_6286)">
<path d="M142.923 101.677C150.278 101.677 156.241 98.6955 156.241 95.0181C156.241 91.3406 150.278 88.3594 142.923 88.3594C135.569 88.3594 129.606 91.3406 129.606 95.0181C129.606 98.6955 135.569 101.677 142.923 101.677Z" fill="#FC5E78"/>
</g>
<path d="M117.712 90.3991V96.0064V96.0064C114.76 100.598 108.047 100.598 105.095 96.0064V96.0064" stroke="#816363" stroke-width="1.12145" stroke-linecap="round" stroke-linejoin="bevel"/>
<path d="M117.712 96.0064V96.0064C120.664 100.598 127.376 100.598 130.328 96.0064V96.0064" stroke="#816363" stroke-width="1.12145" stroke-linecap="round" stroke-linejoin="bevel"/>
<g clip-path="url(#clip0_124_6286)">
<path d="M115.652 85.728C118.559 85.36 124.198 85.4661 124.317 89.4009C124.028 90.296 121.532 89.7026 120.382 90.4584C119.344 91.1446 119.099 93.707 117.289 93.2098C116.212 92.9148 115.923 91.0385 115.045 90.4584C113.898 89.7026 111.399 90.296 111.11 89.4009C110.994 86.9048 113.56 85.9898 115.652 85.728Z" fill="#816363"/>
<path d="M104.392 83.7754C107.339 83.6262 107.339 90.9522 104.392 90.8031C101.551 90.6572 101.551 83.9212 104.392 83.7754Z" fill="#3A3A3A"/>
<path d="M131.032 83.7755C133.873 83.9213 133.873 90.6573 131.032 90.8031C128.085 90.9523 128.085 83.6263 131.032 83.7755Z" fill="#3A3A3A"/>
</g>
<path d="M123.68 74.2742C124.513 75.4409 127.08 77.4742 130.68 76.2742" stroke="#3A3A3A" stroke-linecap="round"/>
<path d="M111.68 74.2742C110.847 75.4409 108.28 77.4742 104.68 76.2742" stroke="#3A3A3A" stroke-linecap="round"/>
<path d="M153.648 52H118.414V66.1714L153.648 83.0857V52Z" fill="url(#paint6_linear_124_6286)" fill-opacity="0.3"/>
<line x1="118.914" y1="52" x2="118.914" y2="67.5429" stroke="#4E5968"/>
<line x1="130.659" y1="52" x2="130.659" y2="73.0286" stroke="#4E5968"/>
<line x1="142.403" y1="52" x2="142.403" y2="78.5143" stroke="#4E5968"/>
<line x1="154.148" y1="52" x2="154.148" y2="84" stroke="#4E5968"/>
<defs>
<filter id="filter0_f_124_6286" x="65.8236" y="75.0422" width="53.2691" height="39.9518" filterUnits="userSpaceOnUse" color-interpolation-filters="sRGB">
<feFlood flood-opacity="0" result="BackgroundImageFix"/>
<feBlend mode="normal" in="SourceGraphic" in2="BackgroundImageFix" result="shape"/>
<feGaussianBlur stdDeviation="6.65864" result="effect1_foregroundBlur_124_6286"/>
</filter>
<filter id="filter1_f_124_6286" x="116.289" y="75.0422" width="53.2691" height="39.9518" filterUnits="userSpaceOnUse" color-interpolation-filters="sRGB">
<feFlood flood-opacity="0" result="BackgroundImageFix"/>
<feBlend mode="normal" in="SourceGraphic" in2="BackgroundImageFix" result="shape"/>
<feGaussianBlur stdDeviation="6.65864" result="effect1_foregroundBlur_124_6286"/>
</filter>
<radialGradient id="paint0_radial_124_6286" cx="0" cy="0" r="1" gradientUnits="userSpaceOnUse" gradientTransform="translate(117.683 158.662) scale(58.5 14)">
<stop stop-color="#E6DF0A" stop-opacity="0.6"/>
<stop offset="1" stop-color="white" stop-opacity="0"/>
</radialGradient>
<radialGradient id="paint1_radial_124_6286" cx="0" cy="0" r="1" gradientUnits="userSpaceOnUse" gradientTransform="translate(117.683 158.662) scale(26.5 6)">
<stop stop-color="#E6DF0A" stop-opacity="0.7"/>
<stop offset="1" stop-color="white" stop-opacity="0"/>
</radialGradient>
<linearGradient id="paint2_linear_124_6286" x1="118.177" y1="92.7741" x2="118.177" y2="160.007" gradientUnits="userSpaceOnUse">
<stop stop-color="#FFCC41"/>
<stop offset="1" stop-color="#FFD257" stop-opacity="0"/>
</linearGradient>
<linearGradient id="paint3_linear_124_6286" x1="84.4222" y1="17.5251" x2="84.4222" y2="54.7024" gradientUnits="userSpaceOnUse">
<stop stop-color="#FFCC41"/>
<stop offset="1" stop-color="#FFD257" stop-opacity="0"/>
</linearGradient>
<linearGradient id="paint4_linear_124_6286" x1="150.959" y1="17.5251" x2="150.959" y2="54.7024" gradientUnits="userSpaceOnUse">
<stop stop-color="#FFCC41"/>
<stop offset="1" stop-color="#FFD257" stop-opacity="0"/>
</linearGradient>
<linearGradient id="paint5_linear_124_6286" x1="117.694" y1="27.864" x2="117.694" y2="118.891" gradientUnits="userSpaceOnUse">
<stop stop-color="#FFCC41"/>
<stop offset="1" stop-color="#FFD257" stop-opacity="0"/>
</linearGradient>
<linearGradient id="paint6_linear_124_6286" x1="136.031" y1="52" x2="135.746" y2="74.4057" gradientUnits="userSpaceOnUse">
<stop stop-color="#4E5968"/>
<stop offset="1" stop-color="#9BB0CE" stop-opacity="0"/>
</linearGradient>
<clipPath id="clip0_124_6286">
<rect width="35.1085" height="9.4973" fill="white" transform="translate(100.157 83.7755)"/>
</clipPath>
</defs>
</svg>
