<svg width="203" height="173" viewBox="0 0 203 173" fill="none" xmlns="http://www.w3.org/2000/svg">
<ellipse cx="101.683" cy="158.662" rx="58.5" ry="14" fill="url(#paint0_radial_4476_37913)"/>
<ellipse cx="101.683" cy="158.662" rx="26.5" ry="6" fill="url(#paint1_radial_4476_37913)"/>
<path d="M99.8376 92.7937C95.7376 92.8585 91.6321 93.0956 87.532 93.5007C86.619 94.9485 85.8143 96.3807 85.0417 97.8015C83.1423 101.116 81.49 104.565 80.1042 108.099C76.9912 110.07 73.5624 112.516 70.7712 115.026C65.2152 119.713 61.9726 124.626 62.0066 124.556C56.5061 132.247 59.5701 138.014 62.0798 141.241L62.0828 141.237C63.9454 143.379 65.7339 144.233 68.1804 142.104C67.3321 143.757 66.8553 145.616 66.8552 147.582C66.8552 154.095 72.085 159.437 78.74 159.964V160.008L78.8943 159.975C79.2001 159.996 79.5088 160.008 79.8201 160.008C82.064 160.008 84.1747 159.46 86.0154 158.499L91.1785 157.429C91.8334 157.622 92.5 157.788 93.1775 157.923C99.1913 159.114 104.648 159.079 110.597 157.881C111.266 157.746 111.924 157.582 112.571 157.39L117.925 158.5C119.765 159.461 121.875 160.008 124.118 160.008C124.43 160.008 124.739 159.996 125.046 159.975L125.199 160.008V159.964C131.854 159.437 137.084 154.095 137.084 147.582C137.084 145.227 136.4 143.025 135.213 141.148C138.17 144.432 140.178 143.651 142.277 141.237L142.272 141.239C144.787 138.009 147.846 132.245 142.345 124.554C142.387 124.627 139.139 119.716 133.588 115.026C130.601 112.341 126.887 109.724 123.608 107.689C121.685 102.672 119.256 97.8694 116.406 93.4578C112.306 93.0634 108.2 92.8419 104.1 92.7878C102.68 92.7662 101.258 92.7721 99.8376 92.7937ZM128.552 131.409C130.268 133.803 131.292 135.416 131.303 135.389C132.151 136.886 132.934 138.138 133.662 139.174C132.268 137.722 130.52 136.587 128.547 135.9C128.602 134.41 128.604 132.912 128.552 131.409ZM75.1394 132.354C75.1173 133.565 75.1297 134.774 75.1785 135.98C73.7824 136.494 72.5039 137.232 71.3884 138.148C71.9149 137.339 72.4709 136.422 73.0564 135.389C73.0672 135.411 73.8313 134.217 75.1394 132.354Z" fill="url(#paint2_linear_4476_37913)"/>
<path d="M71.242 138.316C67.122 144.739 64.6085 144.155 62.078 141.234C59.7749 138.395 57.3486 133.576 60.3427 127.201C64.0892 130.911 67.7325 134.649 71.2373 138.313L71.242 138.316Z" fill="#FFF0F2"/>
<path d="M133.118 138.316C137.238 144.739 139.751 144.155 142.282 141.234C144.585 138.395 147.011 133.576 144.017 127.201C140.275 130.908 136.627 134.649 133.122 138.313L133.118 138.316Z" fill="#FFF0F2"/>
<path d="M101.859 141.959C95.4948 141.921 87.4563 137.259 86.4191 125.979C85.2792 126.109 85.2522 97.3203 91.7024 90.5892C96.3159 84.7333 108.12 84.2147 112.333 90.5838C118.287 97.8984 118.4 126.119 117.336 125.984C116.245 137.291 108.222 141.942 101.853 141.959H101.859Z" fill="white"/>
<path d="M118.025 143.366C115.39 151.136 119.333 156.074 125.549 158.182C131.765 160.291 137.9 158.771 140.535 151.001C143.171 143.231 140.789 133.688 134.573 131.58C128.357 129.471 120.661 135.596 118.025 143.366Z" fill="white"/>
<path d="M85.9142 143.366C88.5497 151.136 84.606 156.074 78.39 158.182C72.1741 160.291 66.0397 158.771 63.4042 151.001C60.7688 143.231 63.1507 133.688 69.3667 131.58C75.5826 129.471 83.2787 135.596 85.9142 143.366Z" fill="white"/>
<path d="M68.4222 54.7025C78.6884 54.7025 87.0108 46.38 87.0108 36.1138C87.0108 25.8476 78.6884 17.5251 68.4222 17.5251C58.1559 17.5251 49.8335 25.8476 49.8335 36.1138C49.8335 46.38 58.1559 54.7025 68.4222 54.7025Z" fill="url(#paint3_linear_4476_37913)"/>
<path d="M134.959 54.7025C145.225 54.7025 153.547 46.38 153.547 36.1138C153.547 25.8476 145.225 17.5251 134.959 17.5251C124.692 17.5251 116.37 25.8476 116.37 36.1138C116.37 46.38 124.692 54.7025 134.959 54.7025Z" fill="url(#paint4_linear_4476_37913)"/>
<path d="M68.4223 48.3392C75.1742 48.3392 80.6478 42.8656 80.6478 36.1137C80.6478 29.3617 75.1742 23.8882 68.4223 23.8882C61.6703 23.8882 56.1968 29.3617 56.1968 36.1137C56.1968 42.8656 61.6703 48.3392 68.4223 48.3392Z" fill="#FFF0F2"/>
<path d="M134.958 48.3392C141.71 48.3392 147.184 42.8656 147.184 36.1137C147.184 29.3617 141.71 23.8882 134.958 23.8882C128.206 23.8882 122.733 29.3617 122.733 36.1137C122.733 42.8656 128.206 48.3392 134.958 48.3392Z" fill="#FFF0F2"/>
<path d="M150.856 63.1338C145.985 42.9756 125.826 27.864 101.694 27.864C77.5618 27.864 57.4036 42.9826 52.5323 63.1338C44.7172 69.9676 40.0771 78.4767 40.0771 87.7006C40.0771 110.2 67.6649 118.891 101.694 118.891C135.723 118.891 163.311 110.2 163.311 87.7006C163.311 78.4767 158.671 69.9676 150.856 63.1408V63.1338Z" fill="url(#paint5_linear_4476_37913)"/>
<path d="M109.096 63C111.628 66.7202 115.896 69.1639 120.735 69.1641C120.968 69.1641 121.2 69.1577 121.431 69.1465C123.272 74.7731 128.565 78.8379 134.807 78.8379C135.577 78.8379 136.332 78.7743 137.068 78.6553C141.67 81.5207 144.676 86.246 144.676 91.5908C144.676 98.4964 139.658 104.367 132.663 106.528C125.294 110.75 114.432 112.583 102.193 112.583C89.9549 112.583 79.094 110.75 71.7246 106.528C64.7292 104.367 59.7121 98.4966 59.7119 91.5908C59.7119 86.2688 62.6914 81.5605 67.2598 78.6914C67.9227 78.7872 68.6005 78.8379 69.29 78.8379C75.542 78.8377 80.84 74.7591 82.6729 69.1182C83.0447 69.1476 83.4204 69.1641 83.7998 69.1641C88.6392 69.1641 92.9074 66.7202 95.4395 63C97.4617 64.1247 99.7894 64.7666 102.268 64.7666C104.746 64.7666 107.073 64.1246 109.096 63Z" fill="white"/>
<path d="M76.1908 106.018C85.0274 106.018 92.1908 101.093 92.1908 95.0178C92.1908 88.9427 85.0274 84.0178 76.1908 84.0178C67.3542 84.0178 60.1908 88.9427 60.1908 95.0178C60.1908 101.093 67.3542 106.018 76.1908 106.018Z" fill="url(#paint6_radial_4476_37913)"/>
<path d="M128.191 106.018C137.027 106.018 144.191 101.093 144.191 95.0178C144.191 88.9427 137.027 84.0178 128.191 84.0178C119.354 84.0178 112.191 88.9427 112.191 95.0178C112.191 101.093 119.354 106.018 128.191 106.018Z" fill="url(#paint7_radial_4476_37913)"/>
<path d="M101.712 90.3992V96.0064V96.0064C98.7599 100.598 92.0474 100.598 89.0955 96.0064V96.0064" stroke="#816363" stroke-width="1.12145" stroke-linecap="round" stroke-linejoin="bevel"/>
<path d="M101.712 96.0065V96.0065C104.664 100.598 111.376 100.598 114.328 96.0065V96.0065" stroke="#816363" stroke-width="1.12145" stroke-linecap="round" stroke-linejoin="bevel"/>
<g clip-path="url(#clip0_4476_37913)">
<path d="M99.6516 85.728C102.559 85.3601 108.198 85.4661 108.317 89.401C108.028 90.296 105.532 89.7026 104.382 90.4584C103.344 91.1446 103.099 93.7071 101.289 93.2098C100.212 92.9148 99.9234 91.0386 99.045 90.4584C97.898 89.7026 95.3985 90.296 95.1101 89.401C94.9941 86.9048 97.5599 85.9899 99.6516 85.728Z" fill="#816363"/>
<path d="M88.3918 83.7754C91.3388 83.6263 91.3388 90.9523 88.3918 90.8031C85.5509 90.6573 85.5509 83.9213 88.3918 83.7754Z" fill="#3A3A3A"/>
<path d="M115.032 83.7754C117.873 83.9213 117.873 90.6573 115.032 90.8031C112.085 90.9523 112.085 83.6263 115.032 83.7754Z" fill="#3A3A3A"/>
</g>
<path d="M107.68 74.2741C108.513 75.4408 111.08 77.4741 114.68 76.2741" stroke="#3A3A3A" stroke-linecap="round"/>
<path d="M95.6801 74.2741C94.8467 75.4408 92.2801 77.4741 88.6801 76.2741" stroke="#3A3A3A" stroke-linecap="round"/>
<path d="M137.648 52H102.414V66.1714L137.648 83.0857V52Z" fill="url(#paint8_linear_4476_37913)" fill-opacity="0.3"/>
<line x1="102.914" y1="52" x2="102.914" y2="67.5429" stroke="#4E5968"/>
<line x1="114.659" y1="52" x2="114.659" y2="73.0286" stroke="#4E5968"/>
<line x1="126.403" y1="52" x2="126.403" y2="78.5143" stroke="#4E5968"/>
<line x1="138.148" y1="52" x2="138.148" y2="84" stroke="#4E5968"/>
<defs>
<radialGradient id="paint0_radial_4476_37913" cx="0" cy="0" r="1" gradientUnits="userSpaceOnUse" gradientTransform="translate(101.683 158.662) scale(58.5 14)">
<stop stop-color="#E6DF0A" stop-opacity="0.6"/>
<stop offset="1" stop-color="white" stop-opacity="0"/>
</radialGradient>
<radialGradient id="paint1_radial_4476_37913" cx="0" cy="0" r="1" gradientUnits="userSpaceOnUse" gradientTransform="translate(101.683 158.662) scale(26.5 6)">
<stop stop-color="#E6DF0A" stop-opacity="0.7"/>
<stop offset="1" stop-color="white" stop-opacity="0"/>
</radialGradient>
<linearGradient id="paint2_linear_4476_37913" x1="102.176" y1="92.7742" x2="102.176" y2="160.007" gradientUnits="userSpaceOnUse">
<stop stop-color="#FEF883"/>
<stop offset="1" stop-color="#CFEEFD"/>
</linearGradient>
<linearGradient id="paint3_linear_4476_37913" x1="68.4222" y1="17.5251" x2="68.4222" y2="54.7025" gradientUnits="userSpaceOnUse">
<stop stop-color="#FEF883"/>
<stop offset="1" stop-color="#CFEEFD"/>
</linearGradient>
<linearGradient id="paint4_linear_4476_37913" x1="134.959" y1="17.5251" x2="134.959" y2="54.7025" gradientUnits="userSpaceOnUse">
<stop stop-color="#FEF883"/>
<stop offset="1" stop-color="#CFEEFD"/>
</linearGradient>
<linearGradient id="paint5_linear_4476_37913" x1="101.694" y1="27.864" x2="101.694" y2="118.891" gradientUnits="userSpaceOnUse">
<stop stop-color="#FEF883"/>
<stop offset="1" stop-color="#CFEEFD"/>
</linearGradient>
<radialGradient id="paint6_radial_4476_37913" cx="0" cy="0" r="1" gradientUnits="userSpaceOnUse" gradientTransform="translate(76.1908 95.0178) rotate(90) scale(11 16)">
<stop stop-color="#FC5E78" stop-opacity="0.9"/>
<stop offset="1" stop-color="white"/>
</radialGradient>
<radialGradient id="paint7_radial_4476_37913" cx="0" cy="0" r="1" gradientUnits="userSpaceOnUse" gradientTransform="translate(128.191 95.0178) rotate(90) scale(11 16)">
<stop stop-color="#FC5E78" stop-opacity="0.9"/>
<stop offset="1" stop-color="white"/>
</radialGradient>
<linearGradient id="paint8_linear_4476_37913" x1="120.031" y1="52" x2="119.746" y2="74.4057" gradientUnits="userSpaceOnUse">
<stop stop-color="#4E5968"/>
<stop offset="1" stop-color="#9BB0CE" stop-opacity="0"/>
</linearGradient>
<clipPath id="clip0_4476_37913">
<rect width="35.1085" height="9.4973" fill="white" transform="translate(84.1575 83.7755)"/>
</clipPath>
</defs>
</svg>
