<svg width="18" height="18" viewBox="0 0 18 18" fill="none" xmlns="http://www.w3.org/2000/svg">
<path d="M15.7879 3.2377C15.3957 2.84531 14.93 2.53404 14.4175 2.32168C13.905 2.10931 13.3556 2 12.8008 2C12.246 2 11.6967 2.10931 11.1842 2.32168C10.6716 2.53404 10.206 2.84531 9.81375 3.2377L8.99979 4.05166L8.18583 3.2377C7.3936 2.44548 6.31912 2.00041 5.19874 2.00041C4.07837 2.00041 3.00388 2.44548 2.21166 3.2377C1.41943 4.02993 0.974365 5.10441 0.974365 6.22479C0.974365 7.34516 1.41943 8.41965 2.21166 9.21187L3.02562 10.0258L8.99979 16L14.974 10.0258L15.7879 9.21187C16.1803 8.81967 16.4916 8.354 16.7039 7.84146C16.9163 7.32893 17.0256 6.77958 17.0256 6.22479C17.0256 5.67 16.9163 5.12064 16.7039 4.60811C16.4916 4.09558 16.1803 3.6299 15.7879 3.2377Z" fill="#FF8AC1"/>
</svg>
