<svg width="235" height="172" viewBox="0 0 235 172" fill="none" xmlns="http://www.w3.org/2000/svg">
<ellipse cx="117.183" cy="158" rx="58.5" ry="14" fill="url(#paint0_radial_124_6283)"/>
<ellipse cx="117.183" cy="158" rx="26.5" ry="6" fill="url(#paint1_radial_124_6283)"/>
<path d="M89.1065 135.505C93.259 136.944 95.7098 135.763 95.6242 124.982C95.667 125.014 95.9024 118.472 97.2777 111.069C98.4656 103.687 100.793 95.4429 100.676 92.5279C100.574 87.506 96.0148 86.1589 92.2208 91.0676C90.059 94.0042 85.7727 101.747 83.5788 108.531C81.1333 115.353 80.7855 121.215 80.7801 121.134C79.8704 130.521 85.3553 133.975 89.1065 135.51V135.505Z" fill="#CDEEFF"/>
<path d="M89.1065 135.505C93.259 136.944 95.7098 135.763 95.6242 124.982C95.667 125.014 95.9024 118.472 97.2777 111.069C98.4656 103.687 100.793 95.4429 100.676 92.5279C100.574 87.506 96.0148 86.1589 92.2208 91.0676C90.059 94.0042 85.7727 101.747 83.5788 108.531C81.1333 115.353 80.7855 121.215 80.7801 121.134C79.8704 130.521 85.3553 133.975 89.1065 135.51V135.505Z" fill="url(#paint2_linear_124_6283)" style="mix-blend-mode:plus-darker"/>
<mask id="mask0_124_6283" style="mask-type:alpha" maskUnits="userSpaceOnUse" x="80" y="88" width="21" height="49">
<path d="M89.1065 135.505C93.259 136.944 95.7098 135.763 95.6242 124.982C95.667 125.014 95.9024 118.472 97.2777 111.069C98.4656 103.687 100.793 95.4429 100.676 92.5279C100.574 87.506 96.0148 86.1589 92.2208 91.0676C90.059 94.0042 85.7727 101.747 83.5788 108.531C81.1333 115.353 80.7855 121.215 80.7801 121.134C79.8704 130.521 85.3553 133.975 89.1065 135.51V135.505Z" fill="#3A3A3A"/>
</mask>
<g mask="url(#mask0_124_6283)">
<path d="M99.1875 129L78.0625 123.188V138.869H96.5432L99.1875 129Z" fill="#FFF0F2"/>
</g>
<path d="M146.253 135.505C142.101 136.944 139.65 135.763 139.736 124.982C139.693 125.014 139.457 118.472 138.082 111.069C136.894 103.687 134.567 95.4429 134.684 92.5279C134.786 87.506 139.345 86.1589 143.139 91.0676C145.301 94.0042 149.587 101.747 151.781 108.531C154.227 115.353 154.574 121.215 154.58 121.134C155.489 130.521 150.005 133.975 146.253 135.51V135.505Z" fill="#CDEEFF"/>
<path d="M146.253 135.505C142.101 136.944 139.65 135.763 139.736 124.982C139.693 125.014 139.457 118.472 138.082 111.069C136.894 103.687 134.567 95.4429 134.684 92.5279C134.786 87.506 139.345 86.1589 143.139 91.0676C145.301 94.0042 149.587 101.747 151.781 108.531C154.227 115.353 154.574 121.215 154.58 121.134C155.489 130.521 150.005 133.975 146.253 135.51V135.505Z" fill="url(#paint3_linear_124_6283)" style="mix-blend-mode:plus-darker"/>
<mask id="mask1_124_6283" style="mask-type:alpha" maskUnits="userSpaceOnUse" x="134" y="88" width="21" height="49">
<path d="M146.253 135.505C142.101 136.944 139.65 135.763 139.736 124.982C139.693 125.014 139.457 118.472 138.082 111.069C136.894 103.687 134.567 95.4429 134.684 92.5278C134.786 87.506 139.345 86.1589 143.139 91.0676C145.301 94.0042 149.587 101.747 151.781 108.531C154.227 115.353 154.574 121.215 154.58 121.134C155.489 130.521 150.005 133.975 146.253 135.51V135.505Z" fill="#3A3A3A"/>
</mask>
<g mask="url(#mask1_124_6283)">
<path d="M136.172 129L157.297 123.188V138.869H138.817L136.172 129Z" fill="#FFF0F2"/>
</g>
<path d="M117.638 153.416C117.691 161.434 98.4923 160.439 98.8779 152.645C96.9607 149.564 95.6808 146.553 94.599 143.584C88.0388 126.001 91.3216 105.747 101.009 88.9507C101.775 87.5515 102.573 86.1416 103.478 84.7158C107.543 84.3168 111.613 84.0827 115.677 84.0189C117.086 83.9976 118.494 83.9923 119.903 84.0135C123.967 84.0667 128.038 84.2849 132.102 84.6733C143.289 101.879 147.959 125.118 140.687 143.632C139.6 146.601 138.314 149.612 136.392 152.692C136.761 160.502 117.563 161.423 117.632 153.405" fill="#CDEEFF"/>
<path d="M117.638 153.416C117.691 161.434 98.4923 160.439 98.8779 152.645C96.9607 149.564 95.6808 146.553 94.599 143.584C88.0388 126.001 91.3216 105.747 101.009 88.9507C101.775 87.5515 102.573 86.1416 103.478 84.7158C107.543 84.3168 111.613 84.0827 115.677 84.0189C117.086 83.9976 118.494 83.9923 119.903 84.0135C123.967 84.0667 128.038 84.2849 132.102 84.6733C143.289 101.879 147.959 125.118 140.687 143.632C139.6 146.601 138.314 149.612 136.392 152.692C136.761 160.502 117.563 161.423 117.632 153.405" fill="url(#paint4_linear_124_6283)" style="mix-blend-mode:plus-darker"/>
<mask id="mask2_124_6283" style="mask-type:alpha" maskUnits="userSpaceOnUse" x="91" y="84" width="54" height="75">
<path d="M117.638 153.416C117.691 161.434 98.4923 160.439 98.8779 152.645C96.9607 149.564 95.6808 146.553 94.599 143.584C88.0388 126.001 91.3216 105.747 101.009 88.9507C101.775 87.5515 102.573 86.1416 103.478 84.7158C107.543 84.3168 111.613 84.0827 115.677 84.0189C117.086 83.9976 118.494 83.9923 119.903 84.0135C123.967 84.0667 128.038 84.2849 132.102 84.6733C143.289 101.879 147.959 125.118 140.687 143.632C139.6 146.601 138.314 149.612 136.392 152.692C136.761 160.502 117.563 161.423 117.632 153.405" fill="#3A3A3A"/>
</mask>
<g mask="url(#mask2_124_6283)">
<path d="M98.2268 152.609L117.641 153.633V160.25H98.2268V152.609Z" fill="white"/>
<path d="M137.055 152.609L117.641 153.633V160.25H137.055V152.609Z" fill="white"/>
</g>
<path d="M117.68 142.75C117.68 146.234 117.68 149.732 117.68 153.25" stroke="#81DBD8" stroke-width="0.700907" stroke-miterlimit="10" stroke-linecap="round"/>
<path d="M108.18 141.25C113.938 143.221 120.355 143.28 127.18 141.25" stroke="#81DBD8" stroke-width="0.700907" stroke-miterlimit="10" stroke-linecap="round"/>
<path d="M117.735 132C111.572 131.962 103.788 127.297 102.784 116.009C102.505 112.878 101.654 87.3287 107.9 80.5926C112.367 74.7323 123.798 74.2133 127.878 80.5872C133.643 87.9072 132.723 114.125 132.722 116.014C131.666 127.329 123.897 131.984 117.729 132H117.735Z" fill="white"/>
<path d="M99.2544 153.02C98.89 160.379 117.29 161.318 117.234 153.748C117.234 153.779 117.239 153.809 117.239 153.839C117.239 153.804 117.239 153.764 117.239 153.728C111.239 153.718 105.239 153.477 99.239 153C99.239 153.01 99.2493 153.015 99.2544 153.02Z" fill="white"/>
<path d="M117.121 153.676C117.121 153.712 117.121 153.752 117.121 153.787C117.213 161.296 136.479 160.388 136.105 153.02C136.105 153.015 136.115 153.005 136.121 153C129.789 153.464 123.458 153.686 117.121 153.681V153.676Z" fill="white"/>
<path d="M84.4222 40.7024C94.6884 40.7024 103.011 32.38 103.011 22.1137C103.011 11.8475 94.6884 3.52509 84.4222 3.52509C74.156 3.52509 65.8336 11.8475 65.8336 22.1137C65.8336 32.38 74.156 40.7024 84.4222 40.7024Z" fill="#CDEEFF"/>
<path d="M84.4222 40.7024C94.6884 40.7024 103.011 32.38 103.011 22.1137C103.011 11.8475 94.6884 3.52509 84.4222 3.52509C74.156 3.52509 65.8336 11.8475 65.8336 22.1137C65.8336 32.38 74.156 40.7024 84.4222 40.7024Z" fill="url(#paint5_linear_124_6283)" style="mix-blend-mode:plus-darker"/>
<path d="M150.959 40.7024C161.225 40.7024 169.547 32.38 169.547 22.1137C169.547 11.8475 161.225 3.52509 150.959 3.52509C140.692 3.52509 132.37 11.8475 132.37 22.1137C132.37 32.38 140.692 40.7024 150.959 40.7024Z" fill="#CDEEFF"/>
<path d="M150.959 40.7024C161.225 40.7024 169.547 32.38 169.547 22.1137C169.547 11.8475 161.225 3.52509 150.959 3.52509C140.692 3.52509 132.37 11.8475 132.37 22.1137C132.37 32.38 140.692 40.7024 150.959 40.7024Z" fill="url(#paint6_linear_124_6283)" style="mix-blend-mode:plus-darker"/>
<path d="M84.4223 34.3393C91.1743 34.3393 96.6478 28.8657 96.6478 22.1137C96.6478 15.3618 91.1743 9.88824 84.4223 9.88824C77.6704 9.88824 72.1968 15.3618 72.1968 22.1137C72.1968 28.8657 77.6704 34.3393 84.4223 34.3393Z" fill="#FFF0F2"/>
<path d="M150.958 34.3393C157.71 34.3393 163.184 28.8657 163.184 22.1137C163.184 15.3618 157.71 9.88824 150.958 9.88824C144.206 9.88824 138.733 15.3618 138.733 22.1137C138.733 28.8657 144.206 34.3393 150.958 34.3393Z" fill="#FFF0F2"/>
<path d="M166.856 49.1338C161.985 28.9756 141.826 13.864 117.694 13.864C93.5618 13.864 73.4037 28.9826 68.5323 49.1338C60.7172 55.9676 56.0772 64.4767 56.0772 73.7006C56.0772 96.1998 83.665 104.891 117.694 104.891C151.723 104.891 179.311 96.1998 179.311 73.7006C179.311 64.4767 174.671 55.9676 166.856 49.1408V49.1338Z" fill="#CDEEFF"/>
<path d="M166.856 49.1338C161.985 28.9756 141.826 13.864 117.694 13.864C93.5618 13.864 73.4037 28.9826 68.5323 49.1338C60.7172 55.9676 56.0772 64.4767 56.0772 73.7006C56.0772 96.1998 83.665 104.891 117.694 104.891C151.723 104.891 179.311 96.1998 179.311 73.7006C179.311 64.4767 174.671 55.9676 166.856 49.1408V49.1338Z" fill="url(#paint7_linear_124_6283)" style="mix-blend-mode:plus-darker"/>
<path d="M125.096 49C127.628 52.7202 131.896 55.1639 136.735 55.1641C136.968 55.1641 137.2 55.1577 137.431 55.1465C139.272 60.7731 144.565 64.8379 150.807 64.8379C151.577 64.8379 152.332 64.7743 153.068 64.6553C157.67 67.5207 160.676 72.246 160.676 77.5908C160.676 84.4964 155.658 90.367 148.663 92.5283C141.294 96.7499 130.432 98.583 118.193 98.583C105.955 98.583 95.094 96.7498 87.7246 92.5283C80.7292 90.3671 75.7121 84.4966 75.7119 77.5908C75.7119 72.2688 78.6914 67.5605 83.2598 64.6914C83.9227 64.7872 84.6005 64.8379 85.29 64.8379C91.542 64.8377 96.84 60.7591 98.6729 55.1182C99.0447 55.1476 99.4204 55.1641 99.7998 55.1641C104.639 55.1641 108.907 52.7202 111.439 49C113.462 50.1247 115.789 50.7666 118.268 50.7666C120.746 50.7666 123.073 50.1246 125.096 49Z" fill="white"/>
<g filter="url(#filter0_f_124_6283)">
<path d="M92.4581 87.6767C99.8131 87.6767 105.775 84.6955 105.775 81.0181C105.775 77.3406 99.8131 74.3594 92.4581 74.3594C85.1032 74.3594 79.1409 77.3406 79.1409 81.0181C79.1409 84.6955 85.1032 87.6767 92.4581 87.6767Z" fill="#FC5E78"/>
</g>
<g filter="url(#filter1_f_124_6283)">
<path d="M142.923 87.6767C150.278 87.6767 156.241 84.6955 156.241 81.0181C156.241 77.3406 150.278 74.3594 142.923 74.3594C135.569 74.3594 129.606 77.3406 129.606 81.0181C129.606 84.6955 135.569 87.6767 142.923 87.6767Z" fill="#FC5E78"/>
</g>
<path d="M117.712 76.3991V82.0064V82.0064C114.76 86.5983 108.047 86.5983 105.095 82.0064V82.0064" stroke="#816363" stroke-width="1.12145" stroke-linecap="round" stroke-linejoin="bevel"/>
<path d="M117.712 82.0063V82.0063C120.664 86.5983 127.376 86.5983 130.328 82.0063V82.0063" stroke="#816363" stroke-width="1.12145" stroke-linecap="round" stroke-linejoin="bevel"/>
<g clip-path="url(#clip0_124_6283)">
<path d="M115.652 71.728C118.559 71.36 124.198 71.4661 124.317 75.4009C124.028 76.296 121.532 75.7026 120.382 76.4584C119.344 77.1446 119.099 79.707 117.289 79.2098C116.212 78.9148 115.923 77.0385 115.045 76.4584C113.898 75.7026 111.399 76.296 111.11 75.4009C110.994 72.9048 113.56 71.9898 115.652 71.728Z" fill="#816363"/>
<path d="M104.392 69.7754C107.339 69.6262 107.339 76.9522 104.392 76.8031C101.551 76.6572 101.551 69.9212 104.392 69.7754Z" fill="#3A3A3A"/>
<path d="M131.032 69.7755C133.873 69.9214 133.873 76.6573 131.032 76.8032C128.085 76.9523 128.085 69.6263 131.032 69.7755Z" fill="#3A3A3A"/>
</g>
<path d="M155.5 43L158.02 49.3888C158.487 50.5743 159.426 51.5127 160.611 51.9803L167 54.5L160.611 57.0197C159.426 57.4873 158.487 58.4257 158.02 59.6112L155.5 66L152.98 59.6112C152.513 58.4257 151.574 57.4873 150.389 57.0197L144 54.5L150.389 51.9803C151.574 51.5127 152.513 50.5743 152.98 49.3888L155.5 43Z" fill="#FFD257"/>
<path d="M155.5 43L158.02 49.3888C158.487 50.5743 159.426 51.5127 160.611 51.9803L167 54.5L160.611 57.0197C159.426 57.4873 158.487 58.4257 158.02 59.6112L155.5 66L152.98 59.6112C152.513 58.4257 151.574 57.4873 150.389 57.0197L144 54.5L150.389 51.9803C151.574 51.5127 152.513 50.5743 152.98 49.3888L155.5 43Z" fill="#FAF791"/>
<path d="M172 59L173.972 63.9999C174.338 64.9277 175.072 65.6621 176 66.0281L181 68L176 69.9719C175.072 70.3379 174.338 71.0723 173.972 72.0001L172 77L170.028 72.0001C169.662 71.0723 168.928 70.3379 168 69.9719L163 68L168 66.0281C168.928 65.6621 169.662 64.9277 170.028 63.9999L172 59Z" fill="#FFD257"/>
<path d="M172 59L173.972 63.9999C174.338 64.9277 175.072 65.6621 176 66.0281L181 68L176 69.9719C175.072 70.3379 174.338 71.0723 173.972 72.0001L172 77L170.028 72.0001C169.662 71.0723 168.928 70.3379 168 69.9719L163 68L168 66.0281C168.928 65.6621 169.662 64.9277 170.028 63.9999L172 59Z" fill="#FAF791"/>
<defs>
<filter id="filter0_f_124_6283" x="65.8236" y="61.0422" width="53.2691" height="39.9518" filterUnits="userSpaceOnUse" color-interpolation-filters="sRGB">
<feFlood flood-opacity="0" result="BackgroundImageFix"/>
<feBlend mode="normal" in="SourceGraphic" in2="BackgroundImageFix" result="shape"/>
<feGaussianBlur stdDeviation="6.65864" result="effect1_foregroundBlur_124_6283"/>
</filter>
<filter id="filter1_f_124_6283" x="116.289" y="61.0422" width="53.2691" height="39.9518" filterUnits="userSpaceOnUse" color-interpolation-filters="sRGB">
<feFlood flood-opacity="0" result="BackgroundImageFix"/>
<feBlend mode="normal" in="SourceGraphic" in2="BackgroundImageFix" result="shape"/>
<feGaussianBlur stdDeviation="6.65864" result="effect1_foregroundBlur_124_6283"/>
</filter>
<radialGradient id="paint0_radial_124_6283" cx="0" cy="0" r="1" gradientUnits="userSpaceOnUse" gradientTransform="translate(117.183 158) scale(58.5 14)">
<stop stop-color="#76EAE1" stop-opacity="0.6"/>
<stop offset="1" stop-color="white" stop-opacity="0"/>
</radialGradient>
<radialGradient id="paint1_radial_124_6283" cx="0" cy="0" r="1" gradientUnits="userSpaceOnUse" gradientTransform="translate(117.183 158) scale(26.5 6)">
<stop stop-color="#76EAE1" stop-opacity="0.7"/>
<stop offset="1" stop-color="white" stop-opacity="0"/>
</radialGradient>
<linearGradient id="paint2_linear_124_6283" x1="92.5" y1="93" x2="90.6799" y2="136" gradientUnits="userSpaceOnUse">
<stop stop-color="#97DCFF"/>
<stop offset="1" stop-color="#93FC3E" stop-opacity="0"/>
</linearGradient>
<linearGradient id="paint3_linear_124_6283" x1="140.5" y1="96.25" x2="144.68" y2="136" gradientUnits="userSpaceOnUse">
<stop stop-color="#97DCFF"/>
<stop offset="1" stop-color="#93FC3E" stop-opacity="0"/>
</linearGradient>
<linearGradient id="paint4_linear_124_6283" x1="117.68" y1="84" x2="117.68" y2="159" gradientUnits="userSpaceOnUse">
<stop stop-color="#97DCFF"/>
<stop offset="1" stop-color="#93FC3E" stop-opacity="0"/>
</linearGradient>
<linearGradient id="paint5_linear_124_6283" x1="84.4222" y1="3.52509" x2="84.4222" y2="40.7024" gradientUnits="userSpaceOnUse">
<stop stop-color="#97DCFF"/>
<stop offset="1" stop-color="#93FC3E" stop-opacity="0"/>
</linearGradient>
<linearGradient id="paint6_linear_124_6283" x1="150.959" y1="3.52509" x2="150.959" y2="40.7024" gradientUnits="userSpaceOnUse">
<stop stop-color="#97DCFF"/>
<stop offset="1" stop-color="#93FC3E" stop-opacity="0"/>
</linearGradient>
<linearGradient id="paint7_linear_124_6283" x1="117.694" y1="13.864" x2="117.694" y2="104.891" gradientUnits="userSpaceOnUse">
<stop stop-color="#97DCFF"/>
<stop offset="1" stop-color="#93FC3E" stop-opacity="0"/>
</linearGradient>
<clipPath id="clip0_124_6283">
<rect width="35.1085" height="9.4973" fill="white" transform="translate(100.157 69.7755)"/>
</clipPath>
</defs>
</svg>
