<svg width="203" height="172" viewBox="0 0 203 172" fill="none" xmlns="http://www.w3.org/2000/svg">
<ellipse cx="101.183" cy="158" rx="58.5" ry="14" fill="url(#paint0_radial_4476_37848)"/>
<ellipse cx="101.183" cy="158" rx="26.5" ry="6" fill="url(#paint1_radial_4476_37848)"/>
<path d="M73.1065 135.505C77.259 136.944 79.7098 135.763 79.6242 124.982C79.667 125.014 79.9024 118.472 81.2777 111.069C82.4656 103.687 84.7934 95.4429 84.6756 92.5279C84.574 87.506 80.0148 86.1589 76.2208 91.0676C74.059 94.0042 69.7727 101.747 67.5788 108.531C65.1333 115.353 64.7855 121.215 64.7801 121.134C63.8704 130.521 69.3553 133.975 73.1065 135.51V135.505Z" fill="url(#paint2_linear_4476_37848)"/>
<mask id="mask0_4476_37848" style="mask-type:alpha" maskUnits="userSpaceOnUse" x="64" y="88" width="21" height="49">
<path d="M73.1065 135.505C77.259 136.944 79.7098 135.763 79.6242 124.982C79.667 125.014 79.9024 118.472 81.2777 111.069C82.4656 103.687 84.7934 95.4429 84.6756 92.5279C84.574 87.506 80.0148 86.1589 76.2208 91.0676C74.059 94.0042 69.7727 101.747 67.5788 108.531C65.1333 115.353 64.7855 121.215 64.7801 121.134C63.8704 130.521 69.3553 133.975 73.1065 135.51V135.505Z" fill="#3A3A3A"/>
</mask>
<g mask="url(#mask0_4476_37848)">
<path d="M83.1875 129L62.0625 123.188V138.869H80.5432L83.1875 129Z" fill="#FFF0F2"/>
</g>
<path d="M130.253 135.505C126.101 136.944 123.65 135.763 123.736 124.982C123.693 125.014 123.457 118.472 122.082 111.069C120.894 103.687 118.567 95.4429 118.684 92.5279C118.786 87.506 123.345 86.1589 127.139 91.0676C129.301 94.0042 133.587 101.747 135.781 108.531C138.227 115.353 138.574 121.215 138.58 121.134C139.489 130.521 134.005 133.975 130.253 135.51V135.505Z" fill="url(#paint3_linear_4476_37848)"/>
<mask id="mask1_4476_37848" style="mask-type:alpha" maskUnits="userSpaceOnUse" x="118" y="88" width="21" height="49">
<path d="M130.253 135.505C126.101 136.944 123.65 135.763 123.736 124.982C123.693 125.014 123.457 118.472 122.082 111.069C120.894 103.687 118.567 95.4429 118.684 92.5278C118.786 87.506 123.345 86.1589 127.139 91.0676C129.301 94.0042 133.587 101.747 135.781 108.531C138.227 115.353 138.574 121.215 138.58 121.134C139.489 130.521 134.005 133.975 130.253 135.51V135.505Z" fill="#3A3A3A"/>
</mask>
<g mask="url(#mask1_4476_37848)">
<path d="M120.172 129L141.297 123.188V138.869H122.817L120.172 129Z" fill="#FFF0F2"/>
</g>
<path d="M101.638 153.416C101.691 161.434 82.4923 160.439 82.8779 152.645C80.9607 149.564 79.6808 146.553 78.599 143.584C72.0388 126.001 75.3216 105.747 85.0093 88.9507C85.7751 87.5515 86.573 86.1416 87.4781 84.7158C91.5428 84.3168 95.6128 84.0827 99.6775 84.0189C101.086 83.9976 102.494 83.9923 103.903 84.0135C107.967 84.0667 112.038 84.2849 116.102 84.6733C127.289 101.879 131.959 125.118 124.687 143.632C123.6 146.601 122.314 149.612 120.392 152.692C120.761 160.502 101.563 161.423 101.632 153.405" fill="url(#paint4_linear_4476_37848)"/>
<mask id="mask2_4476_37848" style="mask-type:alpha" maskUnits="userSpaceOnUse" x="75" y="84" width="54" height="75">
<path d="M101.638 153.416C101.691 161.434 82.4923 160.439 82.8779 152.645C80.9607 149.564 79.6808 146.553 78.599 143.584C72.0388 126.001 75.3216 105.747 85.0093 88.9507C85.7751 87.5515 86.573 86.1416 87.4781 84.7158C91.5428 84.3168 95.6128 84.0827 99.6775 84.0189C101.086 83.9976 102.494 83.9923 103.903 84.0135C107.967 84.0667 112.038 84.2849 116.102 84.6733C127.289 101.879 131.959 125.118 124.687 143.632C123.6 146.601 122.314 149.612 120.392 152.692C120.761 160.502 101.563 161.423 101.632 153.405" fill="#3A3A3A"/>
</mask>
<g mask="url(#mask2_4476_37848)">
<path d="M82.2268 152.609L101.641 153.633V160.25H82.2268V152.609Z" fill="white"/>
<path d="M121.055 152.609L101.641 153.633V160.25H121.055V152.609Z" fill="white"/>
</g>
<path d="M101.68 142.75C101.68 146.234 101.68 149.732 101.68 153.25" stroke="#81DBD8" stroke-width="0.700907" stroke-miterlimit="10" stroke-linecap="round"/>
<path d="M92.1799 141.25C97.9381 143.221 104.355 143.28 111.18 141.25" stroke="#81DBD8" stroke-width="0.700907" stroke-miterlimit="10" stroke-linecap="round"/>
<path d="M101.735 132C95.5722 131.962 87.788 127.297 86.7835 116.009C86.5051 112.878 85.6536 87.3287 91.8998 80.5926C96.3674 74.7323 107.798 74.2133 111.878 80.5872C117.643 87.9072 116.723 114.125 116.722 116.014C115.666 127.329 107.897 131.984 101.729 132H101.735Z" fill="white"/>
<path d="M83.2544 153.02C82.89 160.379 101.29 161.318 101.234 153.748C101.234 153.779 101.239 153.809 101.239 153.839C101.239 153.804 101.239 153.764 101.239 153.728C95.239 153.718 89.239 153.477 83.239 153C83.239 153.01 83.2493 153.015 83.2544 153.02Z" fill="white"/>
<path d="M101.121 153.676C101.121 153.712 101.121 153.752 101.121 153.787C101.213 161.296 120.479 160.388 120.105 153.02C120.105 153.015 120.115 153.005 120.121 153C113.789 153.464 107.458 153.686 101.121 153.681V153.676Z" fill="white"/>
<path d="M68.4222 40.7025C78.6884 40.7025 87.0108 32.38 87.0108 22.1138C87.0108 11.8476 78.6884 3.52515 68.4222 3.52515C58.1559 3.52515 49.8335 11.8476 49.8335 22.1138C49.8335 32.38 58.1559 40.7025 68.4222 40.7025Z" fill="url(#paint5_linear_4476_37848)"/>
<path d="M134.959 40.7025C145.225 40.7025 153.547 32.38 153.547 22.1138C153.547 11.8476 145.225 3.52515 134.959 3.52515C124.692 3.52515 116.37 11.8476 116.37 22.1138C116.37 32.38 124.692 40.7025 134.959 40.7025Z" fill="url(#paint6_linear_4476_37848)"/>
<path d="M68.4223 34.3392C75.1742 34.3392 80.6478 28.8656 80.6478 22.1137C80.6478 15.3617 75.1742 9.88818 68.4223 9.88818C61.6703 9.88818 56.1968 15.3617 56.1968 22.1137C56.1968 28.8656 61.6703 34.3392 68.4223 34.3392Z" fill="#FFF0F2"/>
<path d="M134.958 34.3392C141.71 34.3392 147.184 28.8656 147.184 22.1137C147.184 15.3617 141.71 9.88818 134.958 9.88818C128.206 9.88818 122.733 15.3617 122.733 22.1137C122.733 28.8656 128.206 34.3392 134.958 34.3392Z" fill="#FFF0F2"/>
<path d="M150.856 49.1338C145.985 28.9756 125.826 13.864 101.694 13.864C77.5618 13.864 57.4036 28.9826 52.5323 49.1338C44.7172 55.9676 40.0771 64.4767 40.0771 73.7006C40.0771 96.1998 67.6649 104.891 101.694 104.891C135.723 104.891 163.311 96.1998 163.311 73.7006C163.311 64.4767 158.671 55.9676 150.856 49.1408V49.1338Z" fill="url(#paint7_linear_4476_37848)"/>
<path d="M109.096 49C111.628 52.7202 115.896 55.1639 120.735 55.1641C120.968 55.1641 121.2 55.1577 121.431 55.1465C123.272 60.7731 128.565 64.8379 134.807 64.8379C135.577 64.8379 136.332 64.7743 137.068 64.6553C141.67 67.5207 144.676 72.246 144.676 77.5908C144.676 84.4964 139.658 90.367 132.663 92.5283C125.294 96.7499 114.432 98.583 102.193 98.583C89.9549 98.583 79.094 96.7498 71.7246 92.5283C64.7292 90.3671 59.7121 84.4966 59.7119 77.5908C59.7119 72.2688 62.6914 67.5605 67.2598 64.6914C67.9227 64.7872 68.6005 64.8379 69.29 64.8379C75.542 64.8377 80.84 60.7591 82.6729 55.1182C83.0447 55.1476 83.4204 55.1641 83.7998 55.1641C88.6392 55.1641 92.9074 52.7202 95.4395 49C97.4617 50.1247 99.7894 50.7666 102.268 50.7666C104.746 50.7666 107.073 50.1246 109.096 49Z" fill="white"/>
<path d="M75.5 91C83.5081 91 90 86.5228 90 81C90 75.4772 83.5081 71 75.5 71C67.4919 71 61 75.4772 61 81C61 86.5228 67.4919 91 75.5 91Z" fill="url(#paint8_radial_4476_37848)"/>
<path d="M128.5 91C136.508 91 143 86.5228 143 81C143 75.4772 136.508 71 128.5 71C120.492 71 114 75.4772 114 81C114 86.5228 120.492 91 128.5 91Z" fill="url(#paint9_radial_4476_37848)"/>
<path d="M101.712 76.3992V82.0064V82.0064C98.7599 86.5984 92.0474 86.5984 89.0955 82.0064V82.0064" stroke="#816363" stroke-width="1.12145" stroke-linecap="round" stroke-linejoin="bevel"/>
<path d="M101.712 82.0065V82.0065C104.664 86.5984 111.376 86.5984 114.328 82.0065V82.0065" stroke="#816363" stroke-width="1.12145" stroke-linecap="round" stroke-linejoin="bevel"/>
<g clip-path="url(#clip0_4476_37848)">
<path d="M99.6516 71.728C102.559 71.3601 108.198 71.4661 108.317 75.401C108.028 76.296 105.532 75.7026 104.382 76.4584C103.344 77.1446 103.099 79.7071 101.289 79.2098C100.212 78.9148 99.9234 77.0386 99.045 76.4584C97.898 75.7026 95.3985 76.296 95.1101 75.401C94.9941 72.9048 97.5599 71.9899 99.6516 71.728Z" fill="#816363"/>
<path d="M88.3918 69.7754C91.3388 69.6263 91.3388 76.9523 88.3918 76.8031C85.5509 76.6573 85.5509 69.9213 88.3918 69.7754Z" fill="#3A3A3A"/>
<path d="M115.032 69.7754C117.873 69.9213 117.873 76.6573 115.032 76.8031C112.085 76.9523 112.085 69.6263 115.032 69.7754Z" fill="#3A3A3A"/>
</g>
<path d="M139.5 43L142.02 49.3888C142.487 50.5743 143.426 51.5127 144.611 51.9803L151 54.5L144.611 57.0197C143.426 57.4873 142.487 58.4257 142.02 59.6112L139.5 66L136.98 59.6112C136.513 58.4257 135.574 57.4873 134.389 57.0197L128 54.5L134.389 51.9803C135.574 51.5127 136.513 50.5743 136.98 49.3888L139.5 43Z" fill="#FAF791"/>
<path d="M156 59L157.972 63.9999C158.338 64.9277 159.072 65.6621 160 66.0281L165 68L160 69.9719C159.072 70.3379 158.338 71.0723 157.972 72.0001L156 77L154.028 72.0001C153.662 71.0723 152.928 70.3379 152 69.9719L147 68L152 66.0281C152.928 65.6621 153.662 64.9277 154.028 63.9999L156 59Z" fill="#FAF791"/>
<defs>
<radialGradient id="paint0_radial_4476_37848" cx="0" cy="0" r="1" gradientUnits="userSpaceOnUse" gradientTransform="translate(101.183 158) scale(58.5 14)">
<stop stop-color="#76EAE1" stop-opacity="0.6"/>
<stop offset="1" stop-color="white" stop-opacity="0"/>
</radialGradient>
<radialGradient id="paint1_radial_4476_37848" cx="0" cy="0" r="1" gradientUnits="userSpaceOnUse" gradientTransform="translate(101.183 158) scale(26.5 6)">
<stop stop-color="#76EAE1" stop-opacity="0.7"/>
<stop offset="1" stop-color="white" stop-opacity="0"/>
</radialGradient>
<linearGradient id="paint2_linear_4476_37848" x1="74.7296" y1="88.072" x2="74.7296" y2="136.058" gradientUnits="userSpaceOnUse">
<stop stop-color="#66CBFE"/>
<stop offset="0.4" stop-color="#A1E7D0"/>
<stop offset="0.6" stop-color="#A1E7D0"/>
<stop offset="1" stop-color="#CCEEFD"/>
</linearGradient>
<linearGradient id="paint3_linear_4476_37848" x1="128.63" y1="88.072" x2="128.63" y2="136.058" gradientUnits="userSpaceOnUse">
<stop stop-color="#66CBFE"/>
<stop offset="0.4" stop-color="#A1E7D0"/>
<stop offset="0.6" stop-color="#A1E7D0"/>
<stop offset="1" stop-color="#CCEEFD"/>
</linearGradient>
<linearGradient id="paint4_linear_4476_37848" x1="101.812" y1="84.112" x2="101.812" y2="159.09" gradientUnits="userSpaceOnUse">
<stop stop-color="#66CBFE"/>
<stop offset="0.4" stop-color="#A1E7D0"/>
<stop offset="0.6" stop-color="#A1E7D0"/>
<stop offset="1" stop-color="#CCEEFD"/>
</linearGradient>
<linearGradient id="paint5_linear_4476_37848" x1="68.5144" y1="3.58069" x2="68.5144" y2="40.7469" gradientUnits="userSpaceOnUse">
<stop stop-color="#66CBFE"/>
<stop offset="0.4" stop-color="#A1E7D0"/>
<stop offset="0.6" stop-color="#A1E7D0"/>
<stop offset="1" stop-color="#CCEEFD"/>
</linearGradient>
<linearGradient id="paint6_linear_4476_37848" x1="135.051" y1="3.58069" x2="135.051" y2="40.7469" gradientUnits="userSpaceOnUse">
<stop stop-color="#66CBFE"/>
<stop offset="0.4" stop-color="#A1E7D0"/>
<stop offset="0.6" stop-color="#A1E7D0"/>
<stop offset="1" stop-color="#CCEEFD"/>
</linearGradient>
<linearGradient id="paint7_linear_4476_37848" x1="102" y1="14" x2="102" y2="105" gradientUnits="userSpaceOnUse">
<stop stop-color="#66CBFE"/>
<stop offset="0.4" stop-color="#A1E7D0"/>
<stop offset="0.6" stop-color="#A1E7D0"/>
<stop offset="1" stop-color="#CCEEFD"/>
</linearGradient>
<radialGradient id="paint8_radial_4476_37848" cx="0" cy="0" r="1" gradientUnits="userSpaceOnUse" gradientTransform="translate(75.5 81) rotate(90) scale(10 14.5)">
<stop stop-color="#FC5E78" stop-opacity="0.9"/>
<stop offset="1" stop-color="white"/>
</radialGradient>
<radialGradient id="paint9_radial_4476_37848" cx="0" cy="0" r="1" gradientUnits="userSpaceOnUse" gradientTransform="translate(128.5 81) rotate(90) scale(10 14.5)">
<stop stop-color="#FC5E78" stop-opacity="0.9"/>
<stop offset="1" stop-color="white"/>
</radialGradient>
<clipPath id="clip0_4476_37848">
<rect width="35.1085" height="9.4973" fill="white" transform="translate(84.1575 69.7755)"/>
</clipPath>
</defs>
</svg>
