<svg width="286" height="450" viewBox="0 0 286 450" fill="none" xmlns="http://www.w3.org/2000/svg">
<path d="M57.9169 61.8822C61.0435 61.8822 63.578 59.3477 63.578 56.2211C63.578 53.0946 61.0435 50.5601 57.9169 50.5601C54.7904 50.5601 52.2559 53.0946 52.2559 56.2211C52.2559 59.3477 54.7904 61.8822 57.9169 61.8822Z" fill="#CDEEFF"/>
<path d="M57.9169 61.8822C61.0435 61.8822 63.578 59.3477 63.578 56.2211C63.578 53.0946 61.0435 50.5601 57.9169 50.5601C54.7904 50.5601 52.2559 53.0946 52.2559 56.2211C52.2559 59.3477 54.7904 61.8822 57.9169 61.8822Z" fill="url(#paint0_linear_4431_46805)" fill-opacity="0.5" style="mix-blend-mode:plus-darker"/>
<path d="M78.1801 61.8822C81.3067 61.8822 83.8412 59.3477 83.8412 56.2211C83.8412 53.0946 81.3067 50.5601 78.1801 50.5601C75.0536 50.5601 72.519 53.0946 72.519 56.2211C72.519 59.3477 75.0536 61.8822 78.1801 61.8822Z" fill="#CDEEFF"/>
<path d="M78.1801 61.8822C81.3067 61.8822 83.8412 59.3477 83.8412 56.2211C83.8412 53.0946 81.3067 50.5601 78.1801 50.5601C75.0536 50.5601 72.519 53.0946 72.519 56.2211C72.519 59.3477 75.0536 61.8822 78.1801 61.8822Z" fill="url(#paint1_linear_4431_46805)" fill-opacity="0.5" style="mix-blend-mode:plus-darker"/>
<path d="M80.6349 63.1382C79.3878 57.9777 74.2274 54.1091 68.0495 54.1091C61.8717 54.1091 56.7112 57.9795 55.4641 63.1382C53.4635 64.8876 52.2756 67.0659 52.2756 69.4273C52.2756 75.187 59.3381 77.412 68.0495 77.412C76.7609 77.412 83.8234 75.187 83.8234 69.4273C83.8234 67.0659 82.6356 64.8876 80.6349 63.14V63.1382Z" fill="#CDEEFF"/>
<path d="M80.6349 63.1382C79.3878 57.9777 74.2274 54.1091 68.0495 54.1091C61.8717 54.1091 56.7112 57.9795 55.4641 63.1382C53.4635 64.8876 52.2756 67.0659 52.2756 69.4273C52.2756 75.187 59.3381 77.412 68.0495 77.412C76.7609 77.412 83.8234 75.187 83.8234 69.4273C83.8234 67.0659 82.6356 64.8876 80.6349 63.14V63.1382Z" fill="url(#paint2_linear_4431_46805)" fill-opacity="0.5" style="mix-blend-mode:plus-darker"/>
<path d="M56.2028 91.6875V103H54.4684V93.4062H54.4059L51.7028 95.1719V93.5312L54.5153 91.6875H56.2028ZM69.2734 90.3125V94.375H71.3203V95.6094H69.2734V100.453H67.7891V90.3125H69.2734ZM58.8984 98.0312V91.5156H65.1484V92.7188H60.3672V96.7969C63.0937 96.8047 64.625 96.7188 66.3828 96.3594L66.5547 97.5625C64.6641 97.9375 63.0078 98.0312 60.0078 98.0312H58.8984ZM60.3984 104.031V99.4062H61.8828V102.828H69.8672V104.031H60.3984ZM83.8128 90.3281V104.328H82.4066V90.3281H83.8128ZM71.7034 100.281C74.68 98.5156 76.1019 96.1641 76.3597 93.2812H72.3909V92.0625H77.8284C77.8284 92.7812 77.7738 93.4766 77.6644 94.1562H79.5472V90.6875H80.9534V103.641H79.5472V98.875H77.1566V97.6562H79.5472V95.375H77.3909C76.7113 97.7266 75.2191 99.7734 72.5784 101.344L71.7034 100.281Z" fill="#F2F4F6"/>
<path d="M44.4062 116.234V126.625H42.4219V121.984H39.875V120.344H42.4219V116.234H44.4062ZM32.6094 123.625C35.5547 122.703 37.4609 121 37.8281 118.906H33.3438V117.281H40C40 121.094 37.5781 123.914 33.4219 125.203L32.6094 123.625ZM35.0312 130.188V125.578H37.0625V128.594H44.7656V130.188H35.0312ZM57.2113 116.219V119.562H59.1331V121.188H57.2113V124.469H55.2113V116.219H57.2113ZM45.8363 123.172C48.9691 122.344 50.7581 120.719 51.0706 118.75H46.5081V117.156H53.2425C53.2503 120.945 50.8675 123.602 46.6331 124.781L45.8363 123.172ZM47.7581 127.547C47.7425 125.766 49.68 124.641 52.5706 124.641C55.4691 124.641 57.3597 125.766 57.3675 127.547C57.3597 129.344 55.4691 130.453 52.5706 130.453C49.68 130.453 47.7425 129.344 47.7581 127.547ZM49.7269 127.547C49.7191 128.406 50.7816 128.898 52.5706 128.891C54.3363 128.898 55.3988 128.406 55.3988 127.547C55.3988 126.672 54.3363 126.188 52.5706 126.188C50.7816 126.188 49.7191 126.672 49.7269 127.547ZM74.5244 117.453V118.797C74.5166 120.578 74.5166 122.578 73.9463 125.594L71.9463 125.391C72.4931 122.703 72.5166 120.703 72.5244 119.031H64.1494V117.453H74.5244ZM62.8056 128.703V127.078H67.4463V122.188H69.4306V127.078H75.7744V128.703H62.8056ZM83.8919 117.5V127.047H77.0169V117.5H83.8919ZM79.0169 125.469H81.9544V119.062H79.0169V125.469ZM86.2044 130.469V116.219H88.22V130.469H86.2044ZM101.134 116.219V119.594H103.025V121.219H101.134V124.453H99.1031V116.219H101.134ZM90.3219 123.688V117.172H96.7125V118.766H92.3063V122.078C94.9469 122.062 96.3922 121.977 97.9781 121.641L98.15 123.234C96.3922 123.617 94.7203 123.68 91.5094 123.688H90.3219ZM91.5719 127.547C91.5641 125.758 93.4703 124.703 96.4469 124.703C99.3688 124.703 101.236 125.758 101.244 127.547C101.236 129.375 99.3688 130.445 96.4469 130.438C93.4703 130.445 91.5641 129.375 91.5719 127.547ZM93.5406 127.547C93.5328 128.406 94.5797 128.859 96.4469 128.859C98.2516 128.859 99.2984 128.406 99.3063 127.547C99.2984 126.711 98.2516 126.273 96.4469 126.281C94.5797 126.273 93.5328 126.711 93.5406 127.547Z" fill="white"/>
<ellipse cx="193.756" cy="140.233" rx="40.814" ry="9.76744" fill="url(#paint3_radial_4431_46805)"/>
<ellipse cx="193.755" cy="140.233" rx="18.4884" ry="4.18605" fill="url(#paint4_radial_4431_46805)"/>
<path d="M174.167 124.538C177.064 125.542 178.774 124.719 178.715 117.196C178.744 117.219 178.909 112.655 179.868 107.49C180.697 102.34 182.321 96.5881 182.239 94.5543C182.168 91.0507 178.987 90.1108 176.34 93.5355C174.832 95.5843 171.841 100.986 170.311 105.719C168.605 110.479 168.362 114.569 168.358 114.512C167.724 121.061 171.55 123.471 174.167 124.542V124.538Z" fill="url(#paint5_linear_4431_46805)"/>
<mask id="mask0_4431_46805" style="mask-type:alpha" maskUnits="userSpaceOnUse" x="168" y="91" width="15" height="34">
<path d="M174.167 124.538C177.064 125.542 178.774 124.719 178.715 117.196C178.744 117.219 178.909 112.655 179.868 107.49C180.697 102.34 182.321 96.5881 182.239 94.5543C182.168 91.0507 178.987 90.1108 176.34 93.5355C174.832 95.5843 171.841 100.986 170.311 105.719C168.605 110.479 168.362 114.569 168.358 114.512C167.724 121.061 171.55 123.471 174.167 124.542V124.538Z" fill="#3A3A3A"/>
</mask>
<g mask="url(#mask0_4431_46805)">
<path d="M181.201 120L166.462 115.945V126.885H179.356L181.201 120Z" fill="#FFF0F2"/>
</g>
<path d="M214.037 124.538C211.14 125.542 209.43 124.719 209.49 117.196C209.46 117.219 209.296 112.655 208.336 107.49C207.508 102.34 205.884 96.5881 205.966 94.5543C206.037 91.0507 209.218 90.1108 211.864 93.5355C213.373 95.5843 216.363 100.986 217.894 105.719C219.6 110.479 219.843 114.569 219.846 114.512C220.481 121.061 216.654 123.471 214.037 124.542V124.538Z" fill="url(#paint6_linear_4431_46805)"/>
<mask id="mask1_4431_46805" style="mask-type:alpha" maskUnits="userSpaceOnUse" x="205" y="91" width="15" height="34">
<path d="M214.037 124.538C211.14 125.542 209.43 124.719 209.49 117.196C209.46 117.219 209.296 112.655 208.336 107.49C207.508 102.34 205.884 96.5881 205.966 94.5543C206.037 91.0507 209.218 90.1108 211.864 93.5355C213.373 95.5843 216.363 100.986 217.894 105.719C219.6 110.479 219.843 114.569 219.846 114.512C220.481 121.061 216.654 123.471 214.037 124.542V124.538Z" fill="#3A3A3A"/>
</mask>
<g mask="url(#mask1_4431_46805)">
<path d="M207.004 120L221.742 115.945V126.885H208.849L207.004 120Z" fill="#FFF0F2"/>
</g>
<path d="M194.073 137.034C194.11 142.628 180.716 141.934 180.985 136.496C179.647 134.347 178.754 132.246 177.999 130.175C173.422 117.908 175.713 103.777 182.472 92.0587C183.006 91.0825 183.563 90.0989 184.194 89.1041C187.03 88.8258 189.87 88.6624 192.705 88.6179C193.688 88.6031 194.671 88.5993 195.653 88.6142C198.489 88.6513 201.329 88.8035 204.164 89.0745C211.969 101.078 215.227 117.291 210.154 130.208C209.395 132.28 208.498 134.381 207.157 136.53C207.415 141.979 194.02 142.621 194.069 137.027" fill="url(#paint7_linear_4431_46805)"/>
<mask id="mask2_4431_46805" style="mask-type:alpha" maskUnits="userSpaceOnUse" x="175" y="88" width="38" height="53">
<path d="M194.073 137.034C194.11 142.628 180.716 141.934 180.985 136.496C179.647 134.347 178.754 132.246 177.999 130.175C173.422 117.908 175.713 103.777 182.472 92.0587C183.006 91.0825 183.563 90.0989 184.194 89.1041C187.03 88.8258 189.87 88.6624 192.705 88.6179C193.688 88.6031 194.671 88.5993 195.653 88.6142C198.489 88.6513 201.329 88.8035 204.164 89.0745C211.969 101.078 215.227 117.291 210.154 130.208C209.395 132.28 208.498 134.381 207.157 136.53C207.415 141.979 194.02 142.621 194.069 137.027" fill="#3A3A3A"/>
</mask>
<g mask="url(#mask2_4431_46805)">
<path d="M180.531 136.472L194.075 137.186V141.802H180.531V136.472Z" fill="white"/>
<path d="M207.62 136.472L194.075 137.186V141.802H207.62V136.472Z" fill="white"/>
</g>
<path d="M194.102 129.594C194.102 132.024 194.102 134.464 194.102 136.919" stroke="#81DBD8" stroke-width="0.489005" stroke-miterlimit="10" stroke-linecap="round"/>
<path d="M187.474 128.547C191.492 129.922 195.969 129.963 200.73 128.547" stroke="#81DBD8" stroke-width="0.489005" stroke-miterlimit="10" stroke-linecap="round"/>
<path d="M194.141 122.093C189.841 122.067 184.41 118.812 183.71 110.936C183.515 108.752 182.921 90.927 187.279 86.2274C190.396 82.1388 198.371 81.7767 201.218 86.2236C205.24 91.3305 204.597 109.622 204.597 110.94C203.86 118.834 198.44 122.082 194.137 122.093H194.141Z" fill="white"/>
<path d="M181.247 136.758C180.993 141.892 193.831 142.548 193.791 137.266C193.791 137.287 193.795 137.308 193.795 137.329C193.795 137.305 193.795 137.277 193.795 137.252C189.609 137.245 185.423 137.077 181.237 136.744C181.237 136.751 181.244 136.755 181.247 136.758Z" fill="white"/>
<path d="M193.712 137.216C193.712 137.241 193.712 137.269 193.712 137.293C193.777 142.532 207.218 141.898 206.957 136.758C206.957 136.755 206.964 136.748 206.968 136.744C202.551 137.068 198.134 137.223 193.712 137.219V137.216Z" fill="white"/>
<path d="M170.899 58.3971C178.062 58.3971 183.868 52.5908 183.868 45.4283C183.868 38.2658 178.062 32.4595 170.899 32.4595C163.737 32.4595 157.93 38.2658 157.93 45.4283C157.93 52.5908 163.737 58.3971 170.899 58.3971Z" fill="url(#paint8_linear_4431_46805)"/>
<path d="M217.32 58.3971C224.482 58.3971 230.289 52.5908 230.289 45.4283C230.289 38.2658 224.482 32.4595 217.32 32.4595C210.157 32.4595 204.351 38.2658 204.351 45.4283C204.351 52.5908 210.157 58.3971 217.32 58.3971Z" fill="url(#paint9_linear_4431_46805)"/>
<path d="M170.899 53.9575C175.61 53.9575 179.429 50.1388 179.429 45.4281C179.429 40.7174 175.61 36.8987 170.899 36.8987C166.189 36.8987 162.37 40.7174 162.37 45.4281C162.37 50.1388 166.189 53.9575 170.899 53.9575Z" fill="#FFF0F2"/>
<path d="M217.32 53.9575C222.031 53.9575 225.849 50.1388 225.849 45.4281C225.849 40.7174 222.031 36.8987 217.32 36.8987C212.609 36.8987 208.791 40.7174 208.791 45.4281C208.791 50.1388 212.609 53.9575 217.32 53.9575Z" fill="#FFF0F2"/>
<path d="M228.411 64.2794C225.013 50.2156 210.949 39.6726 194.112 39.6726C177.276 39.6726 163.212 50.2205 159.813 64.2794C154.361 69.0472 151.124 74.9838 151.124 81.4191C151.124 97.1162 170.371 103.18 194.112 103.18C217.854 103.18 237.101 97.1162 237.101 81.4191C237.101 74.9838 233.864 69.0472 228.411 64.2843V64.2794Z" fill="url(#paint10_linear_4431_46805)"/>
<path d="M199.275 64.1851C201.042 66.7812 204.021 68.4858 207.397 68.4858C207.561 68.4858 207.723 68.481 207.885 68.4731C209.169 72.3987 212.859 75.2348 217.214 75.2349C217.749 75.2349 218.274 75.1894 218.786 75.1069C222 77.1053 224.099 80.4016 224.1 84.1323C224.1 88.9482 220.602 93.0417 215.725 94.5513C210.583 97.499 203.003 98.7788 194.461 98.7788C185.919 98.7788 178.339 97.4989 173.197 94.5513C168.32 93.0418 164.822 88.9483 164.822 84.1323C164.822 80.418 166.903 77.1333 170.093 75.1323C170.554 75.1987 171.025 75.2348 171.504 75.2349C175.867 75.2349 179.563 72.3879 180.841 68.4507C181.101 68.4713 181.363 68.4858 181.628 68.4858C185.004 68.4858 187.982 66.7806 189.748 64.1851C191.159 64.97 192.783 65.4184 194.513 65.4185C196.241 65.4184 197.865 64.9696 199.275 64.1851Z" fill="white"/>
<path d="M175.837 93.4884C181.424 93.4884 185.954 90.3648 185.954 86.5117C185.954 82.6585 181.424 79.5349 175.837 79.5349C170.25 79.5349 165.721 82.6585 165.721 86.5117C165.721 90.3648 170.25 93.4884 175.837 93.4884Z" fill="url(#paint11_radial_4431_46805)"/>
<path d="M212.814 93.4884C218.401 93.4884 222.93 90.3648 222.93 86.5117C222.93 82.6585 218.401 79.5349 212.814 79.5349C207.227 79.5349 202.698 82.6585 202.698 86.5117C202.698 90.3648 207.227 93.4884 212.814 93.4884Z" fill="url(#paint12_radial_4431_46805)"/>
<path d="M194.125 83.3015V87.2136V87.2136C192.065 90.4172 187.382 90.4172 185.323 87.2136V87.2136" stroke="#816363" stroke-width="0.78241" stroke-linecap="round" stroke-linejoin="bevel"/>
<path d="M194.125 87.2136V87.2136C196.184 90.4173 200.867 90.4173 202.927 87.2136V87.2136" stroke="#816363" stroke-width="0.78241" stroke-linecap="round" stroke-linejoin="bevel"/>
<g clip-path="url(#clip0_4431_46805)">
<path d="M192.687 80.0425C194.716 79.7858 198.649 79.8598 198.733 82.6051C198.532 83.2295 196.79 82.8155 195.988 83.3428C195.264 83.8216 195.092 85.6093 193.83 85.2624C193.078 85.0566 192.877 83.7476 192.264 83.3428C191.464 82.8155 189.72 83.2295 189.519 82.6051C189.438 80.8636 191.228 80.2252 192.687 80.0425Z" fill="#816363"/>
<path d="M184.831 78.6803C186.888 78.5762 186.888 83.6874 184.831 83.5833C182.849 83.4815 182.849 78.782 184.831 78.6803Z" fill="#3A3A3A"/>
<path d="M203.418 78.6805C205.4 78.7823 205.4 83.4818 203.418 83.5836C201.362 83.6876 201.362 78.5764 203.418 78.6805Z" fill="#3A3A3A"/>
</g>
<path d="M220.488 60L222.246 64.4573C222.572 65.2844 223.227 65.9391 224.054 66.2653L228.512 68.0233L224.054 69.7812C223.227 70.1074 222.572 70.7621 222.246 71.5892L220.488 76.0465L218.73 71.5892C218.404 70.7621 217.749 70.1074 216.922 69.7812L212.465 68.0233L216.922 66.2653C217.749 65.9391 218.404 65.2844 218.73 64.4573L220.488 60Z" fill="#FAF791"/>
<path d="M232 71.1628L233.376 74.6512C233.631 75.2985 234.143 75.8108 234.791 76.0661L238.279 77.4419L234.791 78.8177C234.143 79.073 233.631 79.5854 233.376 80.2327L232 83.721L230.624 80.2327C230.369 79.5854 229.857 79.073 229.209 78.8177L225.721 77.4419L229.209 76.0661C229.857 75.8108 230.369 75.2985 230.624 74.6512L232 71.1628Z" fill="#FAF791"/>
<path d="M57.9004 201.849C61.0179 201.849 63.545 199.322 63.545 196.205C63.545 193.087 61.0179 190.56 57.9004 190.56C54.783 190.56 52.2559 193.087 52.2559 196.205C52.2559 199.322 54.783 201.849 57.9004 201.849Z" fill="#CDEEFF"/>
<path d="M57.9004 201.849C61.0179 201.849 63.545 199.322 63.545 196.205C63.545 193.087 61.0179 190.56 57.9004 190.56C54.783 190.56 52.2559 193.087 52.2559 196.205C52.2559 199.322 54.783 201.849 57.9004 201.849Z" fill="url(#paint13_linear_4431_46805)" style="mix-blend-mode:hard-light"/>
<path d="M78.1045 201.849C81.222 201.849 83.7491 199.322 83.7491 196.205C83.7491 193.087 81.222 190.56 78.1045 190.56C74.9871 190.56 72.46 193.087 72.46 196.205C72.46 199.322 74.9871 201.849 78.1045 201.849Z" fill="#CDEEFF"/>
<path d="M78.1045 201.849C81.222 201.849 83.7491 199.322 83.7491 196.205C83.7491 193.087 81.222 190.56 78.1045 190.56C74.9871 190.56 72.46 193.087 72.46 196.205C72.46 199.322 74.9871 201.849 78.1045 201.849Z" fill="url(#paint14_linear_4431_46805)" style="mix-blend-mode:hard-light"/>
<path d="M68.0037 194.099C74.1635 194.099 79.3091 197.956 80.5525 203.102V203.104C82.5472 204.846 83.7311 207.018 83.7312 209.372C83.7312 215.115 76.6897 217.334 68.0037 217.334C59.3176 217.334 52.2761 215.115 52.2761 209.372C52.2762 207.018 53.4601 204.846 55.4548 203.102C56.6983 197.958 61.8438 194.099 68.0037 194.099Z" fill="#CDEEFF"/>
<path d="M68.0037 194.099C74.1635 194.099 79.3091 197.956 80.5525 203.102V203.104C82.5472 204.846 83.7311 207.018 83.7312 209.372C83.7312 215.115 76.6897 217.334 68.0037 217.334C59.3176 217.334 52.2761 215.115 52.2761 209.372C52.2762 207.018 53.4601 204.846 55.4548 203.102C56.6983 197.958 61.8438 194.099 68.0037 194.099Z" fill="url(#paint15_linear_4431_46805)" style="mix-blend-mode:hard-light"/>
<path d="M50.7341 243V241.75L54.6559 237.797C55.8981 236.508 56.5153 235.789 56.5153 234.797C56.5153 233.68 55.6091 232.969 54.4216 232.969C53.1637 232.969 52.3669 233.766 52.3591 234.969H50.7341C50.7184 232.898 52.2966 231.531 54.4528 231.531C56.6325 231.531 58.1403 232.914 58.1559 234.75C58.1403 236.016 57.5466 237.023 55.4216 239.109L53.1247 241.438V241.531H58.3434V243H50.7341ZM70.4453 230.312V234.375H72.4922V235.609H70.4453V240.453H68.9609V230.312H70.4453ZM60.0703 238.031V231.516H66.3203V232.719H61.5391V236.797C64.2656 236.805 65.7969 236.719 67.5547 236.359L67.7266 237.562C65.8359 237.938 64.1797 238.031 61.1797 238.031H60.0703ZM61.5703 244.031V239.406H63.0547V242.828H71.0391V244.031H61.5703ZM84.9847 230.328V244.328H83.5784V230.328H84.9847ZM72.8753 240.281C75.8519 238.516 77.2738 236.164 77.5316 233.281H73.5628V232.062H79.0003C79.0003 232.781 78.9456 233.477 78.8363 234.156H80.7191V230.688H82.1253V243.641H80.7191V238.875H78.3284V237.656H80.7191V235.375H78.5628C77.8831 237.727 76.3909 239.773 73.7503 241.344L72.8753 240.281Z" fill="#F2F4F6"/>
<path d="M39.8281 257.047C39.8281 260.766 37.4766 263.344 33.3125 264.5L32.5312 262.953C35.6328 262.117 37.3672 260.555 37.6953 258.641H33.2969V257.047H39.8281ZM34.6406 266.641V265.047H44.4062V270.406H42.4219V266.641H34.6406ZM39.9688 261.312V259.672H42.4219V256.234H44.4062V264.484H42.4219V261.312H39.9688ZM57.9144 256.219V264.656H55.93V261.297H53.7113V259.688H55.93V256.219H57.9144ZM45.8363 263.094C48.1644 262.312 49.2269 260.453 49.2738 258.672H46.4144V257.078H54.1331V258.672H51.305C51.3441 260.328 52.3597 262 54.5706 262.734L53.5863 264.297C52.0238 263.789 50.9378 262.758 50.3206 261.484C49.6956 262.93 48.555 264.094 46.8675 264.672L45.8363 263.094ZM48.1644 267.719C48.1644 265.992 50.0238 264.977 53.055 264.969C56.0941 264.977 57.9534 265.992 57.9613 267.719C57.9534 269.445 56.0941 270.453 53.055 270.453C50.0238 270.453 48.1644 269.445 48.1644 267.719ZM50.1488 267.719C50.1488 268.531 51.1722 268.938 53.055 268.938C54.9456 268.938 55.9691 268.531 55.9769 267.719C55.9691 266.898 54.9456 266.492 53.055 266.5C51.1722 266.492 50.1488 266.898 50.1488 267.719ZM74.5244 257.453V258.797C74.5166 260.578 74.5166 262.578 73.9463 265.594L71.9463 265.391C72.4931 262.703 72.5166 260.703 72.5244 259.031H64.1494V257.453H74.5244ZM62.8056 268.703V267.078H67.4463V262.188H69.4306V267.078H75.7744V268.703H62.8056ZM83.8919 257.5V267.047H77.0169V257.5H83.8919ZM79.0169 265.469H81.9544V259.062H79.0169V265.469ZM86.2044 270.469V256.219H88.22V270.469H86.2044ZM101.134 256.219V259.594H103.025V261.219H101.134V264.453H99.1031V256.219H101.134ZM90.3219 263.688V257.172H96.7125V258.766H92.3063V262.078C94.9469 262.062 96.3922 261.977 97.9781 261.641L98.15 263.234C96.3922 263.617 94.7203 263.68 91.5094 263.688H90.3219ZM91.5719 267.547C91.5641 265.758 93.4703 264.703 96.4469 264.703C99.3688 264.703 101.236 265.758 101.244 267.547C101.236 269.375 99.3688 270.445 96.4469 270.438C93.4703 270.445 91.5641 269.375 91.5719 267.547ZM93.5406 267.547C93.5328 268.406 94.5797 268.859 96.4469 268.859C98.2516 268.859 99.2984 268.406 99.3063 267.547C99.2984 266.711 98.2516 266.273 96.4469 266.281C94.5797 266.273 93.5328 266.711 93.5406 267.547Z" fill="white"/>
<ellipse cx="194.104" cy="279.299" rx="40.814" ry="9.76744" fill="url(#paint16_radial_4431_46805)"/>
<ellipse cx="194.104" cy="279.299" rx="18.4884" ry="4.18605" fill="url(#paint17_radial_4431_46805)"/>
<path d="M192.817 233.345C189.957 233.39 187.092 233.555 184.231 233.838C183.594 234.848 183.033 235.847 182.494 236.838C181.169 239.151 180.016 241.557 179.05 244.023C176.878 245.399 174.485 247.104 172.538 248.855C168.712 252.083 166.458 255.465 166.424 255.505C162.586 260.87 164.723 264.894 166.474 267.146L166.476 267.142C167.776 268.636 169.025 269.234 170.732 267.747C170.14 268.9 169.806 270.197 169.806 271.569C169.806 276.113 173.455 279.838 178.097 280.205V280.237L178.211 280.213C178.422 280.227 178.636 280.237 178.851 280.237C180.417 280.237 181.889 279.856 183.174 279.186L186.779 278.438C187.235 278.573 187.699 278.69 188.171 278.783C192.366 279.614 196.173 279.59 200.324 278.754C200.789 278.66 201.247 278.544 201.697 278.411L205.435 279.185C206.719 279.855 208.191 280.237 209.757 280.237C209.972 280.237 210.186 280.228 210.398 280.214L210.51 280.237V280.205C215.153 279.838 218.802 276.114 218.802 271.569C218.802 269.926 218.326 268.389 217.497 267.079C219.561 269.371 220.961 268.826 222.426 267.142L222.423 267.144C224.177 264.89 226.311 260.868 222.473 255.503C222.429 255.442 220.174 252.074 216.364 248.855C214.281 246.982 211.689 245.158 209.402 243.738C208.06 240.237 206.365 236.886 204.377 233.808C201.516 233.532 198.651 233.379 195.791 233.341C194.8 233.326 193.808 233.33 192.817 233.345ZM212.85 260.288C214.046 261.958 214.762 263.081 214.77 263.062C215.361 264.106 215.907 264.979 216.415 265.701C215.443 264.689 214.223 263.898 212.846 263.419C212.885 262.38 212.886 261.336 212.85 260.288ZM175.587 260.945C175.571 261.79 175.579 262.633 175.613 263.475C174.64 263.832 173.748 264.347 172.97 264.985C173.337 264.421 173.725 263.782 174.133 263.062C174.152 263.058 174.684 262.231 175.587 260.945Z" fill="url(#paint18_linear_4431_46805)"/>
<path d="M172.866 265.104C169.992 269.585 168.238 269.178 166.473 267.14C164.866 265.159 163.173 261.797 165.262 257.35C167.876 259.938 170.418 262.546 172.863 265.102L172.866 265.104Z" fill="#FFF0F2"/>
<path d="M216.036 265.104C218.91 269.585 220.664 269.178 222.429 267.14C224.036 265.159 225.729 261.797 223.64 257.35C221.029 259.936 218.484 262.546 216.039 265.102L216.036 265.104Z" fill="#FFF0F2"/>
<path d="M194.227 267.646C189.787 267.619 184.179 264.367 183.455 256.497C182.66 256.587 182.641 236.503 187.141 231.807C190.36 227.721 198.595 227.359 201.535 231.803C205.688 236.906 205.767 256.595 205.025 256.501C204.264 264.389 198.667 267.634 194.223 267.646H194.227Z" fill="white"/>
<path d="M205.506 268.627C203.667 274.048 206.419 277.494 210.755 278.965C215.092 280.436 219.372 279.375 221.211 273.954C223.049 268.533 221.387 261.876 217.051 260.405C212.714 258.934 207.345 263.207 205.506 268.627Z" fill="white"/>
<path d="M183.103 268.627C184.942 274.048 182.19 277.494 177.853 278.965C173.517 280.436 169.237 279.375 167.398 273.954C165.56 268.533 167.221 261.876 171.558 260.405C175.895 258.934 181.264 263.207 183.103 268.627Z" fill="white"/>
<path d="M170.899 206.769C178.062 206.769 183.868 200.963 183.868 193.8C183.868 186.638 178.062 180.832 170.899 180.832C163.737 180.832 157.93 186.638 157.93 193.8C157.93 200.963 163.737 206.769 170.899 206.769Z" fill="url(#paint19_linear_4431_46805)"/>
<path d="M217.32 206.769C224.482 206.769 230.289 200.963 230.289 193.8C230.289 186.638 224.482 180.832 217.32 180.832C210.157 180.832 204.351 186.638 204.351 193.8C204.351 200.963 210.157 206.769 217.32 206.769Z" fill="url(#paint20_linear_4431_46805)"/>
<path d="M170.899 202.33C175.61 202.33 179.429 198.511 179.429 193.8C179.429 189.09 175.61 185.271 170.899 185.271C166.189 185.271 162.37 189.09 162.37 193.8C162.37 198.511 166.189 202.33 170.899 202.33Z" fill="#FFF0F2"/>
<path d="M217.32 202.33C222.031 202.33 225.849 198.511 225.849 193.8C225.849 189.09 222.031 185.271 217.32 185.271C212.609 185.271 208.791 189.09 208.791 193.8C208.791 198.511 212.609 202.33 217.32 202.33Z" fill="#FFF0F2"/>
<path d="M228.411 212.651C225.012 198.588 210.949 188.045 194.112 188.045C177.276 188.045 163.212 198.593 159.813 212.651C154.361 217.419 151.124 223.356 151.124 229.791C151.124 245.488 170.371 251.552 194.112 251.552C217.853 251.552 237.101 245.488 237.101 229.791C237.101 223.356 233.863 217.419 228.411 212.656V212.651Z" fill="url(#paint21_linear_4431_46805)"/>
<path d="M199.275 212.557C201.042 215.153 204.021 216.859 207.397 216.859C207.561 216.859 207.723 216.853 207.884 216.845C209.168 220.771 212.859 223.608 217.214 223.608C217.75 223.608 218.275 223.563 218.788 223.48C222 225.479 224.099 228.774 224.1 232.504C224.1 237.32 220.602 241.414 215.725 242.923C210.583 245.871 203.003 247.151 194.461 247.151C185.919 247.151 178.339 245.871 173.197 242.923C168.32 241.414 164.822 237.32 164.822 232.504C164.822 228.79 166.903 225.505 170.093 223.504C170.554 223.571 171.025 223.607 171.504 223.607C175.867 223.607 179.563 220.76 180.841 216.824C181.101 216.844 181.363 216.858 181.628 216.858C185.004 216.858 187.982 215.153 189.748 212.557C191.159 213.342 192.783 213.791 194.513 213.791C196.241 213.79 197.865 213.342 199.275 212.557Z" fill="white"/>
<path d="M176.319 242.571C182.484 242.571 187.482 239.135 187.482 234.896C187.482 230.658 182.484 227.222 176.319 227.222C170.154 227.222 165.156 230.658 165.156 234.896C165.156 239.135 170.154 242.571 176.319 242.571Z" fill="url(#paint22_radial_4431_46805)"/>
<path d="M212.598 242.571C218.763 242.571 223.761 239.135 223.761 234.896C223.761 230.658 218.763 227.222 212.598 227.222C206.433 227.222 201.436 230.658 201.436 234.896C201.436 239.135 206.433 242.571 212.598 242.571Z" fill="url(#paint23_radial_4431_46805)"/>
<path d="M194.125 231.674V235.586V235.586C192.065 238.79 187.382 238.79 185.323 235.586V235.586" stroke="#816363" stroke-width="0.78241" stroke-linecap="round" stroke-linejoin="bevel"/>
<path d="M194.125 235.586V235.586C196.184 238.79 200.867 238.79 202.927 235.586V235.586" stroke="#816363" stroke-width="0.78241" stroke-linecap="round" stroke-linejoin="bevel"/>
<g clip-path="url(#clip1_4431_46805)">
<path d="M192.687 228.415C194.716 228.158 198.649 228.232 198.733 230.977C198.532 231.602 196.79 231.188 195.988 231.715C195.264 232.194 195.092 233.982 193.83 233.635C193.078 233.429 192.877 232.12 192.264 231.715C191.464 231.188 189.72 231.602 189.519 230.977C189.438 229.236 191.228 228.598 192.687 228.415Z" fill="#816363"/>
<path d="M184.831 227.053C186.888 226.949 186.888 232.06 184.831 231.956C182.849 231.854 182.849 227.154 184.831 227.053Z" fill="#3A3A3A"/>
<path d="M203.418 227.053C205.4 227.154 205.4 231.854 203.418 231.956C201.362 232.06 201.362 226.949 203.418 227.053Z" fill="#3A3A3A"/>
</g>
<path d="M198.288 220.424C198.87 221.238 200.66 222.656 203.172 221.819" stroke="#3A3A3A" stroke-width="0.697674" stroke-linecap="round"/>
<path d="M189.916 220.424C189.335 221.238 187.544 222.656 185.033 221.819" stroke="#3A3A3A" stroke-width="0.697674" stroke-linecap="round"/>
<path d="M219.196 204.884H194.615V214.771L219.196 226.571V204.884Z" fill="url(#paint24_linear_4431_46805)" fill-opacity="0.3"/>
<line x1="194.963" y1="204.884" x2="194.963" y2="215.728" stroke="#4E5968" stroke-width="0.697674"/>
<line x1="203.157" y1="204.884" x2="203.157" y2="219.555" stroke="#4E5968" stroke-width="0.697674"/>
<line x1="211.351" y1="204.884" x2="211.351" y2="223.382" stroke="#4E5968" stroke-width="0.697674"/>
<line x1="219.545" y1="204.884" x2="219.545" y2="227.209" stroke="#4E5968" stroke-width="0.697674"/>
<path d="M57.9004 336.849C61.0179 336.849 63.545 334.322 63.545 331.205C63.545 328.087 61.0179 325.56 57.9004 325.56C54.783 325.56 52.2559 328.087 52.2559 331.205C52.2559 334.322 54.783 336.849 57.9004 336.849Z" fill="#CDEEFF"/>
<path d="M57.9004 336.849C61.0179 336.849 63.545 334.322 63.545 331.205C63.545 328.087 61.0179 325.56 57.9004 325.56C54.783 325.56 52.2559 328.087 52.2559 331.205C52.2559 334.322 54.783 336.849 57.9004 336.849Z" fill="url(#paint25_linear_4431_46805)" style="mix-blend-mode:hard-light"/>
<path d="M78.1045 336.849C81.222 336.849 83.7491 334.322 83.7491 331.205C83.7491 328.087 81.222 325.56 78.1045 325.56C74.9871 325.56 72.46 328.087 72.46 331.205C72.46 334.322 74.9871 336.849 78.1045 336.849Z" fill="#CDEEFF"/>
<path d="M78.1045 336.849C81.222 336.849 83.7491 334.322 83.7491 331.205C83.7491 328.087 81.222 325.56 78.1045 325.56C74.9871 325.56 72.46 328.087 72.46 331.205C72.46 334.322 74.9871 336.849 78.1045 336.849Z" fill="url(#paint26_linear_4431_46805)" style="mix-blend-mode:hard-light"/>
<path d="M68.0037 329.099C74.1634 329.099 79.309 332.956 80.5525 338.102V338.104C82.5471 339.846 83.7311 342.018 83.7312 344.372C83.7312 350.115 76.6897 352.334 68.0037 352.334C59.3176 352.334 52.2761 350.115 52.2761 344.372C52.2763 342.018 53.4601 339.846 55.4548 338.102C56.6983 332.958 61.8439 329.099 68.0037 329.099Z" fill="#CDEEFF"/>
<path d="M68.0037 329.099C74.1634 329.099 79.309 332.956 80.5525 338.102V338.104C82.5471 339.846 83.7311 342.018 83.7312 344.372C83.7312 350.115 76.6897 352.334 68.0037 352.334C59.3176 352.334 52.2761 350.115 52.2761 344.372C52.2763 342.018 53.4601 339.846 55.4548 338.102C56.6983 332.958 61.8439 329.099 68.0037 329.099Z" fill="url(#paint27_linear_4431_46805)" style="mix-blend-mode:hard-light"/>
<path d="M54.5153 378.156C52.1716 378.156 50.5075 376.898 50.4372 375.047H52.1872C52.2497 376.039 53.2341 376.672 54.4997 376.672C55.8669 376.672 56.8591 375.93 56.8591 374.828C56.8591 373.711 55.9294 372.914 54.3122 372.906H53.3434V371.5H54.3122C55.6012 371.508 56.4997 370.789 56.4997 369.703C56.4997 368.672 55.7262 367.969 54.5309 367.969C53.3981 367.969 52.3825 368.602 52.3434 369.625H50.6872C50.7341 367.781 52.4372 366.531 54.5466 366.531C56.7731 366.531 58.1716 367.938 58.1559 369.609C58.1716 370.898 57.3747 371.82 56.1559 372.125V372.203C57.7028 372.422 58.6012 373.461 58.5934 374.891C58.6012 376.773 56.8591 378.156 54.5153 378.156ZM70.6797 365.312V369.375H72.7266V370.609H70.6797V375.453H69.1953V365.312H70.6797ZM60.3047 373.031V366.516H66.5547V367.719H61.7734V371.797C64.5 371.805 66.0312 371.719 67.7891 371.359L67.9609 372.562C66.0703 372.938 64.4141 373.031 61.4141 373.031H60.3047ZM61.8047 379.031V374.406H63.2891V377.828H71.2734V379.031H61.8047ZM85.2191 365.328V379.328H83.8128V365.328H85.2191ZM73.1097 375.281C76.0863 373.516 77.5081 371.164 77.7659 368.281H73.7972V367.062H79.2347C79.2347 367.781 79.18 368.477 79.0706 369.156H80.9534V365.688H82.3597V378.641H80.9534V373.875H78.5628V372.656H80.9534V370.375H78.7972C78.1175 372.727 76.6253 374.773 73.9847 376.344L73.1097 375.281Z" fill="#F2F4F6"/>
<path d="M37.0625 391.812C39.2344 391.797 40.8125 393.039 40.8125 394.828C40.8125 396.602 39.2344 397.859 37.0625 397.844C34.8984 397.859 33.3203 396.602 33.3281 394.828C33.3203 393.039 34.8984 391.797 37.0625 391.812ZM32.4531 398.719C34.9766 398.711 38.5469 398.664 41.5781 398.203L41.7031 399.672C40.5312 399.906 39.3281 400.055 38.1406 400.148V405.016H36.1562V400.266C34.9062 400.32 33.7266 400.328 32.7031 400.344L32.4531 398.719ZM35.25 394.828C35.2422 395.719 36 396.234 37.0625 396.219C38.1562 396.234 38.9219 395.719 38.9219 394.828C38.9219 393.922 38.1562 393.398 37.0625 393.406C36 393.398 35.2422 393.922 35.25 394.828ZM42.4375 405.438V391.234H44.4062V405.438H42.4375ZM57.9144 391.219V399.812H55.93V397.016H54.0863V395.391H55.93V391.219H57.9144ZM45.9613 394.047V392.453H49.18V391.094H51.1488V392.453H54.3363V394.047H45.9613ZM46.7425 397.062C46.7425 395.578 48.1722 394.516 50.1644 394.516C52.1644 394.516 53.5706 395.578 53.5706 397.062C53.5706 398.617 52.1566 399.633 50.1644 399.641C48.1722 399.633 46.7425 398.617 46.7425 397.062ZM48.3519 405.281V400.422H57.9144V405.281H48.3519ZM48.6644 397.062C48.6488 397.781 49.2347 398.164 50.1644 398.172C51.0706 398.164 51.6644 397.781 51.6644 397.062C51.6644 396.391 51.0706 396.008 50.1644 396.016C49.2347 396.008 48.6488 396.391 48.6644 397.062ZM50.3519 403.688H55.9613V401.984H50.3519V403.688ZM74.5244 392.453V393.797C74.5166 395.578 74.5166 397.578 73.9463 400.594L71.9463 400.391C72.4931 397.703 72.5166 395.703 72.5244 394.031H64.1494V392.453H74.5244ZM62.8056 403.703V402.078H67.4463V397.188H69.4306V402.078H75.7744V403.703H62.8056ZM83.8919 392.5V402.047H77.0169V392.5H83.8919ZM79.0169 400.469H81.9544V394.062H79.0169V400.469ZM86.2044 405.469V391.219H88.22V405.469H86.2044ZM101.134 391.219V394.594H103.025V396.219H101.134V399.453H99.1031V391.219H101.134ZM90.3219 398.688V392.172H96.7125V393.766H92.3063V397.078C94.9469 397.062 96.3922 396.977 97.9781 396.641L98.15 398.234C96.3922 398.617 94.7203 398.68 91.5094 398.688H90.3219ZM91.5719 402.547C91.5641 400.758 93.4703 399.703 96.4469 399.703C99.3688 399.703 101.236 400.758 101.244 402.547C101.236 404.375 99.3688 405.445 96.4469 405.438C93.4703 405.445 91.5641 404.375 91.5719 402.547ZM93.5406 402.547C93.5328 403.406 94.5797 403.859 96.4469 403.859C98.2516 403.859 99.2984 403.406 99.3063 402.547C99.2984 401.711 98.2516 401.273 96.4469 401.281C94.5797 401.273 93.5328 401.711 93.5406 402.547Z" fill="white"/>
<ellipse cx="200.808" cy="403.052" rx="75.1453" ry="9.91279" fill="url(#paint28_radial_4431_46805)"/>
<ellipse cx="200.806" cy="403.052" rx="40.7568" ry="4.15698" fill="url(#paint29_radial_4431_46805)" fill-opacity="0.7"/>
<path d="M143.298 393.888C142.372 389.621 143.815 387.338 154.378 388.673C154.352 388.627 160.794 389.153 168.214 388.654C175.592 388.338 183.948 386.996 186.793 387.45C191.706 388.133 192.494 392.791 187.237 395.968C184.105 397.762 176.011 401.096 169.103 402.475C162.128 404.099 156.338 403.762 156.422 403.777C147.111 403.587 144.36 397.769 143.298 393.888Z" fill="url(#paint30_linear_4431_46805)"/>
<path d="M151 388.381C143.503 387.847 142.483 390.175 143.297 393.888C144.181 397.379 146.554 402.139 153.35 403.527C152.629 398.384 151.826 393.306 151 388.381Z" fill="white"/>
<path d="M179.221 367.954C196.617 365.715 207.042 370.097 215.542 375.315C222.226 377.794 228.456 380 235.758 378.903C241.514 378.038 249.736 375.963 254.88 379.68C256.368 380.751 257.354 382.622 256.776 384.295C256.141 386.136 253.688 387.568 251.005 388.678C254.682 389.302 258.152 390.502 260.347 393.103C261.563 394.539 262.058 396.664 261.022 398.219C258.797 401.567 249.952 401.687 246.344 402.044C240.011 402.678 233.637 402.715 227.284 403.003C212.895 403.655 198.473 403.974 184.071 404.037C183.961 403.951 176.401 397.998 170.755 390.916C163.692 387.706 158.255 383.256 164.69 378.272C164.549 373.396 168.232 369.37 179.221 367.954Z" fill="url(#paint31_linear_4431_46805)"/>
<g clip-path="url(#clip2_4431_46805)">
<path d="M159.965 360.292C166.424 359.113 170.705 352.922 169.526 346.463C168.348 340.004 162.156 335.723 155.697 336.902C149.238 338.08 144.958 344.271 146.136 350.73C147.315 357.189 153.506 361.47 159.965 360.292Z" fill="url(#paint32_linear_4431_46805)"/>
<path d="M201.826 352.654C208.285 351.475 212.566 345.284 211.388 338.825C210.209 332.366 204.018 328.085 197.559 329.264C191.1 330.442 186.819 336.634 187.998 343.092C189.176 349.551 195.367 353.832 201.826 352.654Z" fill="url(#paint33_linear_4431_46805)"/>
<path d="M159.235 356.288C163.483 355.513 166.298 351.441 165.523 347.193C164.748 342.945 160.676 340.13 156.428 340.905C152.18 341.68 149.365 345.752 150.14 350C150.915 354.248 154.987 357.063 159.235 356.288Z" fill="#FFF0F2"/>
<path d="M201.096 348.651C205.344 347.876 208.159 343.804 207.384 339.556C206.609 335.308 202.537 332.492 198.289 333.267C194.041 334.042 191.226 338.114 192.001 342.362C192.776 346.61 196.848 349.426 201.096 348.651Z" fill="#FFF0F2"/>
<path d="M208.989 351.723C203.507 338.296 188.792 330.617 173.603 333.857C158.246 337.325 149.599 350.883 149.555 363.017C146.076 367.971 144.429 373.013 144.889 378.221C145.34 390.382 162.543 398.532 184.582 395.206C206.175 391.643 222.623 383.468 219.865 367.619C218.734 361.076 214.752 355.524 208.989 351.723Z" fill="url(#paint34_linear_4431_46805)"/>
<path d="M171.492 357.666C172.478 357.999 173.561 358.094 174.657 357.893C175.753 357.691 176.731 357.217 177.534 356.555C178.957 357.995 181.045 358.728 183.186 358.334C183.289 358.315 183.392 358.293 183.494 358.27C184.766 360.609 187.438 361.977 190.199 361.469C191.454 361.238 192.552 360.65 193.412 359.832C193.911 360.705 194.375 361.613 194.797 362.555C195.213 362.871 195.607 363.147 195.979 363.396C199.879 364.59 202.974 367.804 203.711 372.015C204.549 376.784 202.089 381.297 197.943 383.483C193.792 387.146 187.138 389.501 179.414 390.678C171.598 391.816 164.703 391.127 159.864 388.67C155.425 387.565 152.066 383.901 151.589 379.663C151.158 375.923 152.856 372.359 155.89 370.192C156.141 369.863 156.404 369.503 156.674 369.098C156.751 368.1 156.874 367.111 157.041 366.136C158.271 366.807 159.729 367.077 161.214 366.804C163.98 366.295 165.991 364.058 166.342 361.412C166.509 361.395 166.677 361.373 166.845 361.343C168.986 360.948 170.674 359.518 171.492 357.666Z" fill="white"/>
<path d="M173.448 374.689L174.084 378.147V378.147C172.785 381.313 168.646 382.075 166.304 379.579V379.579" stroke="#816363" stroke-width="0.70316" stroke-linecap="round" stroke-linejoin="bevel"/>
<path d="M174.084 378.147V378.147C176.425 380.643 180.565 379.881 181.864 376.715V376.715" stroke="#816363" stroke-width="0.70316" stroke-linecap="round" stroke-linejoin="bevel"/>
<g clip-path="url(#clip3_4431_46805)">
<path d="M171.666 372.039C173.417 371.482 176.906 370.907 177.426 373.32C177.35 373.905 175.744 373.822 175.12 374.419C174.558 374.96 174.698 376.568 173.525 376.467C172.827 376.407 172.437 375.283 171.829 375.025C171.036 374.689 169.562 375.338 169.283 374.819C168.928 373.293 170.406 372.438 171.666 372.039Z" fill="#816363"/>
<path d="M164.016 374.071C163.59 372.271 168.107 371.439 168.35 373.274C168.582 375.042 164.429 375.807 164.016 374.071Z" fill="#3A3A3A"/>
<path d="M180.386 371.008C180.154 369.239 184.307 368.475 184.72 370.21C185.146 372.01 180.629 372.842 180.386 371.008Z" fill="#3A3A3A"/>
</g>
<path d="M176.928 365.927C177.574 366.551 179.388 367.514 181.471 366.365" stroke="#3A3A3A" stroke-width="0.627007" stroke-linecap="round"/>
<path d="M169.528 367.289C169.147 368.103 167.795 369.648 165.439 369.317" stroke="#3A3A3A" stroke-width="0.627007" stroke-linecap="round"/>
<path d="M158.622 385.469C162.05 385.044 164.488 381.946 164.068 378.549C163.647 375.152 160.526 372.743 157.098 373.168C153.669 373.593 151.231 376.691 151.652 380.088C152.073 383.484 155.193 385.894 158.622 385.469Z" fill="url(#paint35_radial_4431_46805)"/>
<path d="M193.82 381.399C199.756 380.663 204.214 377.21 203.778 373.685C203.341 370.161 198.175 367.9 192.238 368.635C186.302 369.371 181.844 372.824 182.281 376.349C182.717 379.873 187.884 382.134 193.82 381.399Z" fill="url(#paint36_radial_4431_46805)"/>
</g>
<path d="M168.242 392.277C167.715 387.553 169.527 385.243 180.816 387.86C180.793 387.802 187.706 389.093 195.794 389.377C203.818 389.857 213.012 389.33 216.034 390.135C221.279 391.42 221.615 396.544 215.571 399.404C211.981 401.002 202.851 403.711 195.215 404.435C187.486 405.413 181.256 404.412 181.343 404.435C171.287 403.196 168.954 396.596 168.236 392.277H168.242Z" fill="url(#paint37_linear_4431_46805)"/>
<path d="M177.193 387.165C169.139 385.758 167.773 388.161 168.242 392.277C168.815 396.156 170.853 401.563 178.049 403.821C177.835 398.177 177.534 392.59 177.187 387.165H177.193Z" fill="white"/>
<path d="M207.221 333.139C207.742 332.685 209.351 332.52 211.615 335.497C214.444 339.217 214.388 343.823 210.425 342.393C206.461 340.962 204.318 335.407 207.17 337.285C210.022 339.163 211.088 342.401 207.55 342.358C204.012 342.314 204.06 338.399 205.588 340.03C207.116 341.661 205.991 343.26 204.888 343.016C203.785 342.772 203.8 341.621 204.236 342.087C204.673 342.553 204.659 343.704 202.892 343.452" stroke="#4E5968" stroke-width="0.639535" stroke-linecap="round"/>
<path d="M168.014 318.429C168.154 317.486 169.693 315.871 174.733 316.962C181.034 318.326 185.103 323.205 179.667 325.257C174.23 327.31 167.004 323.409 171.677 322.821C176.349 322.233 180.369 324.671 176.622 327.797C172.874 330.923 169.415 326.775 172.479 327.116C175.543 327.456 175.796 330.14 174.422 330.873C173.047 331.606 172.03 330.386 172.905 330.484C173.78 330.581 174.798 331.801 172.721 333.119" stroke="#4E5968" stroke-width="0.639535" stroke-linecap="round"/>
<path d="M139.642 350.506C138.893 349.9 138.234 347.705 141.59 343.772C145.785 338.856 151.952 337.721 151.123 343.611C150.295 349.502 143.463 353.947 145.192 349.485C146.92 345.022 150.953 342.686 151.861 347.619C152.769 352.553 147.528 353.517 149.289 350.962C151.05 348.406 153.492 349.551 153.467 351.149C153.443 352.747 151.901 353.031 152.404 352.301C152.907 351.571 154.449 351.287 154.595 353.81" stroke="#4E5968" stroke-width="0.639535" stroke-linecap="round"/>
<path d="M237.451 384.325C236.645 386.427 234.325 383.557 231.577 382.503C228.828 381.449 226.692 382.612 227.498 380.51C228.304 378.408 231.279 376.938 234.027 377.992C236.775 379.046 238.257 382.224 237.451 384.325Z" fill="white"/>
<mask id="mask3_4431_46805" style="mask-type:alpha" maskUnits="userSpaceOnUse" x="246" y="374" width="14" height="15">
<path d="M255.174 388.631L246.934 376.137L257.799 374.645L259.704 381.583L255.174 388.631Z" fill="white"/>
</mask>
<g mask="url(#mask3_4431_46805)">
<path d="M186.585 396.11C199.978 392.909 213.319 399.856 226.554 396.11C232.397 394.455 238.321 393.03 244.059 391.058C247.329 389.939 255.534 387.898 256.776 384.296C257.354 382.622 256.368 380.752 254.88 379.68C249.735 375.963 241.514 378.038 235.758 378.904C216.655 381.774 204.893 362.029 173.132 373.967C141.373 385.912 186.585 396.11 186.585 396.11Z" fill="white"/>
</g>
<mask id="mask4_4431_46805" style="mask-type:luminance" maskUnits="userSpaceOnUse" x="164" y="367" width="98" height="38">
<path d="M184.065 404.038C198.469 403.975 212.893 403.656 227.284 403.003C233.637 402.715 240.011 402.677 246.344 402.044C249.952 401.687 258.798 401.568 261.022 398.219C262.058 396.664 261.564 394.539 260.348 393.103C256.145 388.125 247.273 388.275 241.22 387.786C221.131 386.162 214.55 363.408 179.222 367.954C143.893 372.506 184.072 404.038 184.072 404.038H184.065Z" fill="white"/>
</mask>
<g mask="url(#mask4_4431_46805)">
<path d="M257.898 403.063L253.261 388.833L264.133 390.272V397.467L257.898 403.063Z" fill="white"/>
</g>
<defs>
<linearGradient id="paint0_linear_4431_46805" x1="57.9169" y1="50.5601" x2="57.9169" y2="61.8822" gradientUnits="userSpaceOnUse">
<stop stop-color="#97DCFF"/>
<stop offset="1" stop-color="#93FC3E" stop-opacity="0"/>
</linearGradient>
<linearGradient id="paint1_linear_4431_46805" x1="78.1801" y1="50.5601" x2="78.1801" y2="61.8822" gradientUnits="userSpaceOnUse">
<stop stop-color="#97DCFF"/>
<stop offset="1" stop-color="#93FC3E" stop-opacity="0"/>
</linearGradient>
<linearGradient id="paint2_linear_4431_46805" x1="68.0495" y1="54.1091" x2="68.0495" y2="77.412" gradientUnits="userSpaceOnUse">
<stop stop-color="#97DCFF"/>
<stop offset="1" stop-color="#93FC3E" stop-opacity="0"/>
</linearGradient>
<radialGradient id="paint3_radial_4431_46805" cx="0" cy="0" r="1" gradientUnits="userSpaceOnUse" gradientTransform="translate(193.756 140.233) scale(40.814 9.76744)">
<stop stop-color="#76EAE1" stop-opacity="0.6"/>
<stop offset="1" stop-color="white" stop-opacity="0"/>
</radialGradient>
<radialGradient id="paint4_radial_4431_46805" cx="0" cy="0" r="1" gradientUnits="userSpaceOnUse" gradientTransform="translate(193.755 140.233) scale(18.4884 4.18605)">
<stop stop-color="#76EAE1" stop-opacity="0.7"/>
<stop offset="1" stop-color="white" stop-opacity="0"/>
</radialGradient>
<linearGradient id="paint5_linear_4431_46805" x1="175.3" y1="91.4455" x2="175.3" y2="124.924" gradientUnits="userSpaceOnUse">
<stop stop-color="#66CBFE"/>
<stop offset="0.4" stop-color="#A1E7D0"/>
<stop offset="0.6" stop-color="#A1E7D0"/>
<stop offset="1" stop-color="#CCEEFD"/>
</linearGradient>
<linearGradient id="paint6_linear_4431_46805" x1="212.905" y1="91.4455" x2="212.905" y2="124.924" gradientUnits="userSpaceOnUse">
<stop stop-color="#66CBFE"/>
<stop offset="0.4" stop-color="#A1E7D0"/>
<stop offset="0.6" stop-color="#A1E7D0"/>
<stop offset="1" stop-color="#CCEEFD"/>
</linearGradient>
<linearGradient id="paint7_linear_4431_46805" x1="194.194" y1="88.6829" x2="194.194" y2="140.993" gradientUnits="userSpaceOnUse">
<stop stop-color="#66CBFE"/>
<stop offset="0.4" stop-color="#A1E7D0"/>
<stop offset="0.6" stop-color="#A1E7D0"/>
<stop offset="1" stop-color="#CCEEFD"/>
</linearGradient>
<linearGradient id="paint8_linear_4431_46805" x1="170.964" y1="32.4982" x2="170.964" y2="58.4282" gradientUnits="userSpaceOnUse">
<stop stop-color="#66CBFE"/>
<stop offset="0.4" stop-color="#A1E7D0"/>
<stop offset="0.6" stop-color="#A1E7D0"/>
<stop offset="1" stop-color="#CCEEFD"/>
</linearGradient>
<linearGradient id="paint9_linear_4431_46805" x1="217.384" y1="32.4982" x2="217.384" y2="58.4282" gradientUnits="userSpaceOnUse">
<stop stop-color="#66CBFE"/>
<stop offset="0.4" stop-color="#A1E7D0"/>
<stop offset="0.6" stop-color="#A1E7D0"/>
<stop offset="1" stop-color="#CCEEFD"/>
</linearGradient>
<linearGradient id="paint10_linear_4431_46805" x1="194.326" y1="39.7675" x2="194.326" y2="103.256" gradientUnits="userSpaceOnUse">
<stop stop-color="#66CBFE"/>
<stop offset="0.4" stop-color="#A1E7D0"/>
<stop offset="0.6" stop-color="#A1E7D0"/>
<stop offset="1" stop-color="#CCEEFD"/>
</linearGradient>
<radialGradient id="paint11_radial_4431_46805" cx="0" cy="0" r="1" gradientUnits="userSpaceOnUse" gradientTransform="translate(175.837 86.5117) rotate(90) scale(6.97674 10.1163)">
<stop stop-color="#FC5E78" stop-opacity="0.9"/>
<stop offset="1" stop-color="white"/>
</radialGradient>
<radialGradient id="paint12_radial_4431_46805" cx="0" cy="0" r="1" gradientUnits="userSpaceOnUse" gradientTransform="translate(212.814 86.5117) rotate(90) scale(6.97674 10.1163)">
<stop stop-color="#FC5E78" stop-opacity="0.9"/>
<stop offset="1" stop-color="white"/>
</radialGradient>
<linearGradient id="paint13_linear_4431_46805" x1="57.9004" y1="190.56" x2="57.9004" y2="201.849" gradientUnits="userSpaceOnUse">
<stop stop-color="#FFCC41"/>
<stop offset="1" stop-color="#FFD257" stop-opacity="0"/>
</linearGradient>
<linearGradient id="paint14_linear_4431_46805" x1="78.1045" y1="190.56" x2="78.1045" y2="201.849" gradientUnits="userSpaceOnUse">
<stop stop-color="#FFCC41"/>
<stop offset="1" stop-color="#FFD257" stop-opacity="0"/>
</linearGradient>
<linearGradient id="paint15_linear_4431_46805" x1="68.0037" y1="194.099" x2="68.0037" y2="217.334" gradientUnits="userSpaceOnUse">
<stop stop-color="#FFCC41"/>
<stop offset="1" stop-color="#FFD257" stop-opacity="0"/>
</linearGradient>
<radialGradient id="paint16_radial_4431_46805" cx="0" cy="0" r="1" gradientUnits="userSpaceOnUse" gradientTransform="translate(194.104 279.299) scale(40.814 9.76744)">
<stop stop-color="#E6DF0A" stop-opacity="0.6"/>
<stop offset="1" stop-color="white" stop-opacity="0"/>
</radialGradient>
<radialGradient id="paint17_radial_4431_46805" cx="0" cy="0" r="1" gradientUnits="userSpaceOnUse" gradientTransform="translate(194.104 279.299) scale(18.4884 4.18605)">
<stop stop-color="#E6DF0A" stop-opacity="0.7"/>
<stop offset="1" stop-color="white" stop-opacity="0"/>
</radialGradient>
<linearGradient id="paint18_linear_4431_46805" x1="194.449" y1="233.331" x2="194.449" y2="280.237" gradientUnits="userSpaceOnUse">
<stop stop-color="#FEF883"/>
<stop offset="1" stop-color="#CFEEFD"/>
</linearGradient>
<linearGradient id="paint19_linear_4431_46805" x1="170.899" y1="180.832" x2="170.899" y2="206.769" gradientUnits="userSpaceOnUse">
<stop stop-color="#FEF883"/>
<stop offset="1" stop-color="#CFEEFD"/>
</linearGradient>
<linearGradient id="paint20_linear_4431_46805" x1="217.32" y1="180.832" x2="217.32" y2="206.769" gradientUnits="userSpaceOnUse">
<stop stop-color="#FEF883"/>
<stop offset="1" stop-color="#CFEEFD"/>
</linearGradient>
<linearGradient id="paint21_linear_4431_46805" x1="194.112" y1="188.045" x2="194.112" y2="251.552" gradientUnits="userSpaceOnUse">
<stop stop-color="#FEF883"/>
<stop offset="1" stop-color="#CFEEFD"/>
</linearGradient>
<radialGradient id="paint22_radial_4431_46805" cx="0" cy="0" r="1" gradientUnits="userSpaceOnUse" gradientTransform="translate(176.319 234.896) rotate(90) scale(7.67442 11.1628)">
<stop stop-color="#FC5E78" stop-opacity="0.9"/>
<stop offset="1" stop-color="white"/>
</radialGradient>
<radialGradient id="paint23_radial_4431_46805" cx="0" cy="0" r="1" gradientUnits="userSpaceOnUse" gradientTransform="translate(212.598 234.896) rotate(90) scale(7.67442 11.1628)">
<stop stop-color="#FC5E78" stop-opacity="0.9"/>
<stop offset="1" stop-color="white"/>
</radialGradient>
<linearGradient id="paint24_linear_4431_46805" x1="206.905" y1="204.884" x2="206.707" y2="220.516" gradientUnits="userSpaceOnUse">
<stop stop-color="#4E5968"/>
<stop offset="1" stop-color="#9BB0CE" stop-opacity="0"/>
</linearGradient>
<linearGradient id="paint25_linear_4431_46805" x1="57.9004" y1="325.56" x2="57.9004" y2="336.849" gradientUnits="userSpaceOnUse">
<stop stop-color="#FF6567"/>
<stop offset="1" stop-color="#F77BAC" stop-opacity="0"/>
</linearGradient>
<linearGradient id="paint26_linear_4431_46805" x1="78.1045" y1="325.56" x2="78.1045" y2="336.849" gradientUnits="userSpaceOnUse">
<stop stop-color="#FF6567"/>
<stop offset="1" stop-color="#F77BAC" stop-opacity="0"/>
</linearGradient>
<linearGradient id="paint27_linear_4431_46805" x1="68.0037" y1="329.099" x2="68.0037" y2="352.334" gradientUnits="userSpaceOnUse">
<stop stop-color="#FF6567"/>
<stop offset="1" stop-color="#F77BAC" stop-opacity="0"/>
</linearGradient>
<radialGradient id="paint28_radial_4431_46805" cx="0" cy="0" r="1" gradientUnits="userSpaceOnUse" gradientTransform="translate(200.808 403.052) scale(75.1453 9.91279)">
<stop stop-color="#FF8AC0" stop-opacity="0.9"/>
<stop offset="1" stop-color="white" stop-opacity="0"/>
</radialGradient>
<radialGradient id="paint29_radial_4431_46805" cx="0" cy="0" r="1" gradientUnits="userSpaceOnUse" gradientTransform="translate(200.806 403.052) scale(40.7568 4.15698)">
<stop stop-color="#FF8AC0" stop-opacity="0.8"/>
<stop offset="1" stop-color="white" stop-opacity="0"/>
</radialGradient>
<linearGradient id="paint30_linear_4431_46805" x1="165.362" y1="404.935" x2="167.699" y2="385.187" gradientUnits="userSpaceOnUse">
<stop stop-color="#D0EDFF"/>
<stop offset="0.75" stop-color="#F0D2F3"/>
<stop offset="1" stop-color="#FEBFD3"/>
</linearGradient>
<linearGradient id="paint31_linear_4431_46805" x1="211.703" y1="367.354" x2="211.703" y2="404.037" gradientUnits="userSpaceOnUse">
<stop stop-color="#FEBFD3"/>
<stop offset="0.25" stop-color="#F0D2F3"/>
<stop offset="1" stop-color="#D0EDFF"/>
</linearGradient>
<linearGradient id="paint32_linear_4431_46805" x1="155.697" y1="336.902" x2="159.965" y2="360.292" gradientUnits="userSpaceOnUse">
<stop stop-color="#FEBFD3"/>
<stop offset="0.25" stop-color="#F0D2F3"/>
<stop offset="1" stop-color="#D0EDFF"/>
</linearGradient>
<linearGradient id="paint33_linear_4431_46805" x1="197.559" y1="329.264" x2="201.826" y2="352.654" gradientUnits="userSpaceOnUse">
<stop stop-color="#FEBFD3"/>
<stop offset="0.25" stop-color="#F0D2F3"/>
<stop offset="1" stop-color="#D0EDFF"/>
</linearGradient>
<linearGradient id="paint34_linear_4431_46805" x1="175.065" y1="333.575" x2="186.356" y2="394.902" gradientUnits="userSpaceOnUse">
<stop stop-color="#FEBFD3"/>
<stop offset="0.25" stop-color="#F0D2F3"/>
<stop offset="1" stop-color="#D0EDFF"/>
</linearGradient>
<radialGradient id="paint35_radial_4431_46805" cx="0" cy="0" r="1" gradientUnits="userSpaceOnUse" gradientTransform="translate(157.86 379.318) rotate(82.937) scale(6.19762 6.2553)">
<stop stop-color="#FC5E78" stop-opacity="0.9"/>
<stop offset="1" stop-color="white"/>
</radialGradient>
<radialGradient id="paint36_radial_4431_46805" cx="0" cy="0" r="1" gradientUnits="userSpaceOnUse" gradientTransform="translate(193.029 375.017) rotate(82.937) scale(6.43057 10.8306)">
<stop stop-color="#FC5E78" stop-opacity="0.9"/>
<stop offset="1" stop-color="white"/>
</radialGradient>
<linearGradient id="paint37_linear_4431_46805" x1="188.017" y1="380.988" x2="194.098" y2="404.865" gradientUnits="userSpaceOnUse">
<stop stop-color="#FEBFD3"/>
<stop offset="0.25" stop-color="#F0D2F3"/>
<stop offset="1" stop-color="#D0EDFF"/>
</linearGradient>
<clipPath id="clip0_4431_46805">
<rect width="24.4943" height="6.62603" fill="white" transform="translate(181.877 78.6804)"/>
</clipPath>
<clipPath id="clip1_4431_46805">
<rect width="24.4943" height="6.62603" fill="white" transform="translate(181.877 227.053)"/>
</clipPath>
<clipPath id="clip2_4431_46805">
<rect width="77.3476" height="72.813" fill="white" transform="translate(134.801 330.357) rotate(-10.4316)"/>
</clipPath>
<clipPath id="clip3_4431_46805">
<rect width="22.0133" height="5.95487" fill="white" transform="translate(163.144 371.967) rotate(-10.43)"/>
</clipPath>
</defs>
</svg>
