<svg width="24" height="24" viewBox="0 0 24 24" fill="none" xmlns="http://www.w3.org/2000/svg">
<path d="M19.7577 5.41452C19.3094 4.96607 18.7772 4.61034 18.1915 4.36763C17.6057 4.12492 16.9779 4 16.3438 4C15.7098 4 15.082 4.12492 14.4962 4.36763C13.9105 4.61034 13.3783 4.96607 12.93 5.41452L11.9998 6.34476L11.0695 5.41452C10.1641 4.50912 8.93617 4.00047 7.65574 4.00047C6.37531 4.00047 5.14733 4.50912 4.24193 5.41452C3.33653 6.31992 2.82788 7.5479 2.82788 8.82833C2.82788 10.1088 3.33653 11.3367 4.24193 12.2421L5.17217 13.1724L11.9998 20L18.8274 13.1724L19.7577 12.2421C20.2061 11.7939 20.5618 11.2617 20.8045 10.676C21.0472 10.0902 21.1722 9.46237 21.1722 8.82833C21.1722 8.19428 21.0472 7.56645 20.8045 6.9807C20.5618 6.39494 20.2061 5.86275 19.7577 5.41452Z" fill="#FF8AC1"/>
</svg>
