<svg width="235" height="172" viewBox="0 0 235 172" fill="none" xmlns="http://www.w3.org/2000/svg">
<ellipse cx="117.5" cy="145.5" rx="117.5" ry="15.5" fill="url(#paint0_radial_4476_34807)"/>
<ellipse cx="117.497" cy="145.5" rx="63.7288" ry="6.5" fill="url(#paint1_radial_4476_34807)" fill-opacity="0.7"/>
<path d="M27.5744 131.17C26.1269 124.498 28.384 120.928 44.9006 123.016C44.8589 122.944 54.932 123.767 66.5352 122.987C78.0712 122.492 91.1373 120.393 95.5855 121.104C103.267 122.172 104.5 129.455 96.2802 134.423C91.3825 137.228 78.727 142.441 67.9244 144.598C57.018 147.136 47.9654 146.61 48.0966 146.634C33.538 146.336 29.2356 137.24 27.5744 131.17Z" fill="url(#paint2_linear_4476_34807)"/>
<path d="M39.6182 122.559C27.896 121.725 26.3009 125.365 27.5744 131.171C28.9561 136.629 32.6666 144.071 43.2924 146.242C42.1661 138.2 40.9105 130.26 39.6182 122.559Z" fill="white"/>
<path d="M83.7463 90.6185C110.944 87.1189 127.245 93.9694 140.535 102.127C150.988 106.004 160.729 109.456 172.149 107.74C181.148 106.387 194.004 103.142 202.049 108.954C204.375 110.63 205.918 113.555 205.013 116.171C204.021 119.049 200.186 121.288 195.99 123.025C201.739 124 207.165 125.876 210.598 129.943C212.499 132.188 213.272 135.511 211.653 137.943C208.174 143.178 194.342 143.364 188.701 143.923C178.798 144.913 168.832 144.973 158.898 145.424C136.399 146.444 113.849 146.942 91.3293 147.04C91.1931 146.933 79.3484 137.613 70.508 126.522C59.463 121.504 50.9632 114.547 61.0256 106.753C60.8053 99.1289 66.5629 92.8326 83.7463 90.6185Z" fill="url(#paint3_linear_4476_34807)"/>
<g clip-path="url(#clip0_4476_34807)">
<path d="M53.6366 78.6377C63.7361 76.7951 70.4296 67.114 68.5869 57.0145C66.7442 46.915 57.0632 40.2215 46.9637 42.0642C36.8641 43.9069 30.1707 53.5879 32.0133 63.6874C33.856 73.7869 43.5371 80.4804 53.6366 78.6377Z" fill="url(#paint4_linear_4476_34807)"/>
<path d="M119.092 66.6951C129.192 64.8524 135.885 55.1714 134.043 45.0719C132.2 34.9724 122.519 28.2789 112.419 30.1215C102.32 31.9642 95.6265 41.6453 97.4692 51.7448C99.3118 61.8443 108.993 68.5378 119.092 66.6951Z" fill="url(#paint5_linear_4476_34807)"/>
<path d="M52.4946 72.3779C59.1369 71.166 63.5391 64.7989 62.3272 58.1566C61.1153 51.5143 54.7482 47.1121 48.1059 48.324C41.4636 49.5359 37.0614 55.903 38.2733 62.5453C39.4852 69.1876 45.8523 73.5898 52.4946 72.3779Z" fill="#FFF0F2"/>
<path d="M117.95 60.4355C124.592 59.2236 128.995 52.8565 127.783 46.2142C126.571 39.5719 120.204 35.1697 113.561 36.3816C106.919 37.5935 102.517 43.9606 103.729 50.6029C104.941 57.2452 111.308 61.6474 117.95 60.4355Z" fill="#FFF0F2"/>
<path d="M130.292 65.2395C121.72 44.245 98.711 32.2383 74.9613 37.3045C50.9481 42.7267 37.4281 63.9261 37.3593 82.8994C31.9192 90.6455 29.3439 98.5294 30.0634 106.672C30.768 125.689 57.6676 138.431 92.1283 133.231C125.891 127.659 151.611 114.878 147.298 90.0953C145.529 79.8643 139.303 71.1832 130.292 65.2395Z" fill="url(#paint6_linear_4476_34807)"/>
<path d="M81.1086 72.7945C83.334 75.0462 86.5987 76.1934 89.947 75.5771C90.1088 75.5473 90.2693 75.5129 90.4278 75.4756C92.418 79.1334 96.595 81.272 100.913 80.4772C102.874 80.1161 104.591 79.1975 105.936 77.9181C106.717 79.2836 107.442 80.7043 108.102 82.1763C108.746 82.6665 109.355 83.0958 109.93 83.4821C116.038 85.3456 120.886 90.3773 122.04 96.9694C123.352 104.43 119.501 111.491 113.014 114.908C106.523 120.632 96.1212 124.311 84.0482 126.15C71.8322 127.93 61.0556 126.855 53.4895 123.017C46.5428 121.294 41.284 115.557 40.5378 108.927C39.863 103.072 42.5262 97.4926 47.2811 94.1055C47.6686 93.5951 48.0735 93.0345 48.4907 92.4072C48.6108 90.8467 48.8029 89.3 49.0641 87.7767C50.9868 88.8253 53.2678 89.2478 55.5895 88.8205C59.9152 88.0239 63.06 84.5261 63.6085 80.3893C63.8697 80.3624 64.1331 80.3285 64.3957 80.2802C67.7433 79.6636 70.3852 77.4295 71.6628 74.5334C73.2049 75.0538 74.8973 75.203 76.6115 74.8874C78.3254 74.5718 79.853 73.8298 81.1086 72.7945Z" fill="white"/>
<path d="M74.7183 101.15L75.7135 106.557V106.557C73.6822 111.508 67.21 112.7 63.5487 108.796V108.796" stroke="#816363" stroke-width="1.09949" stroke-linecap="round" stroke-linejoin="bevel"/>
<path d="M75.713 106.557V106.557C79.3744 110.46 85.8466 109.269 87.8779 104.318V104.318" stroke="#816363" stroke-width="1.09949" stroke-linecap="round" stroke-linejoin="bevel"/>
<g clip-path="url(#clip1_4476_34807)">
<path d="M71.9325 97.0063C74.6704 96.1355 80.1261 95.237 80.9396 99.0098C80.8204 99.924 78.3082 99.7949 77.3332 100.728C76.4546 101.574 76.6729 104.088 74.8394 103.93C73.7483 103.836 73.1372 102.079 72.1872 101.675C70.9471 101.15 68.6424 102.166 68.2055 101.354C67.6506 98.9677 69.9621 97.6301 71.9325 97.0063Z" fill="#816363"/>
<path d="M59.9712 100.185C59.3043 97.3696 66.3682 96.0694 66.7474 98.9374C67.111 101.702 60.6161 102.898 59.9712 100.185Z" fill="#3A3A3A"/>
<path d="M85.5676 95.3939C85.204 92.6287 91.6989 91.4332 92.3437 94.1465C93.0106 96.9616 85.9468 98.2618 85.5676 95.3939Z" fill="#3A3A3A"/>
</g>
<path d="M80.16 87.4487C81.1706 88.4257 84.0063 89.9307 87.2645 88.1347" stroke="#3A3A3A" stroke-width="0.980411" stroke-linecap="round"/>
<path d="M68.5895 89.5786C67.9931 90.8514 65.8792 93.2675 62.195 92.7494" stroke="#3A3A3A" stroke-width="0.980411" stroke-linecap="round"/>
<path d="M51.536 118.006C56.8969 117.342 60.7093 112.498 60.0512 107.187C59.3931 101.875 54.5137 98.1077 49.1528 98.7719C43.7919 99.4361 39.9795 104.28 40.6376 109.592C41.2957 114.903 46.1751 118.671 51.536 118.006Z" fill="url(#paint7_radial_4476_34807)"/>
<path d="M106.573 111.642C115.855 110.492 122.826 105.092 122.143 99.5805C121.46 94.0694 113.382 90.5341 104.1 91.6841C94.8181 92.8342 87.847 98.2341 88.5298 103.745C89.2127 109.256 97.2908 112.792 106.573 111.642Z" fill="url(#paint8_radial_4476_34807)"/>
</g>
<path d="M66.5779 128.652C65.7541 121.265 68.5875 117.653 86.2402 121.744C86.204 121.654 97.0128 123.673 109.659 124.116C122.206 124.868 136.582 124.044 141.307 125.302C149.509 127.312 150.034 135.323 140.583 139.795C134.971 142.294 120.695 146.531 108.754 147.662C96.6688 149.192 86.9282 147.626 87.064 147.662C71.3395 145.725 67.6913 135.405 66.5688 128.652H66.5779Z" fill="url(#paint9_linear_4476_34807)"/>
<path d="M80.5737 120.658C67.9815 118.458 65.845 122.215 66.5783 128.652C67.4745 134.717 70.661 143.172 81.9135 146.702C81.5785 137.876 81.1078 129.14 80.5646 120.658H80.5737Z" fill="white"/>
<path d="M127.527 36.1814C128.343 35.471 130.859 35.2137 134.398 39.8674C138.822 45.6847 138.734 52.8874 132.537 50.6504C126.34 48.4134 122.988 39.7277 127.448 42.6639C131.907 45.6 133.574 50.6631 128.042 50.5954C122.51 50.5276 122.585 44.4053 124.974 46.9559C127.364 49.5065 125.604 52.0063 123.88 51.625C122.155 51.2437 122.177 49.443 122.86 50.1717C123.543 50.9005 123.521 52.7012 120.759 52.3071" stroke="#4E5968" stroke-linecap="round"/>
<path d="M66.2216 13.1803C66.4398 11.7047 68.8466 9.17973 76.7281 10.8856C86.5799 13.018 92.9435 20.6474 84.4422 23.857C75.9409 27.0667 64.6424 20.9661 71.9488 20.0468C79.2553 19.1274 85.5409 22.9406 79.6811 27.8281C73.8214 32.7156 68.4124 26.2307 73.2033 26.7627C77.9941 27.2947 78.3902 31.4923 76.2409 32.6382C74.0915 33.784 72.5006 31.8767 73.8695 32.0287C75.2383 32.1807 76.8292 34.088 73.5811 36.1503" stroke="#4E5968" stroke-linecap="round"/>
<path d="M21.8581 63.3371C20.6868 62.3897 19.6562 58.9574 24.9043 52.8076C31.4643 45.1203 41.1064 43.3454 39.8111 52.5558C38.5159 61.7662 27.8328 68.7171 30.536 61.7397C33.2392 54.7624 39.5449 51.1095 40.9648 58.8232C42.3847 66.5369 34.1889 68.0455 36.9425 64.0496C39.696 60.0536 43.5144 61.8429 43.4761 64.3422C43.4377 66.8415 41.0271 67.2852 41.8139 66.1435C42.6006 65.0018 45.0111 64.5581 45.239 68.5037" stroke="#4E5968" stroke-linecap="round"/>
<path d="M174.796 116.218C173.537 119.504 169.908 115.016 165.611 113.369C161.313 111.721 157.974 113.538 159.234 110.252C160.494 106.966 165.145 104.668 169.442 106.315C173.74 107.963 176.056 112.932 174.796 116.218Z" fill="white"/>
<mask id="mask0_4476_34807" style="mask-type:alpha" maskUnits="userSpaceOnUse" x="189" y="101" width="21" height="22">
<path d="M202.508 122.95L189.624 103.415L206.613 101.082L209.592 111.93L202.508 122.95Z" fill="white"/>
</mask>
<g mask="url(#mask0_4476_34807)">
<path d="M95.2601 134.644C116.202 129.639 137.063 140.502 157.757 134.644C166.893 132.057 176.156 129.828 185.13 126.746C190.242 124.995 203.071 121.804 205.013 116.172C205.918 113.555 204.375 110.63 202.049 108.955C194.005 103.142 181.149 106.387 172.149 107.74C142.279 112.229 123.888 81.3537 74.2254 100.022C24.5654 118.699 95.2601 134.644 95.2601 134.644Z" fill="white"/>
</g>
<mask id="mask1_4476_34807" style="mask-type:luminance" maskUnits="userSpaceOnUse" x="61" y="89" width="152" height="59">
<path d="M91.3203 147.041C113.843 146.943 136.397 146.443 158.898 145.424C168.833 144.973 178.799 144.914 188.702 143.924C194.343 143.365 208.174 143.179 211.653 137.943C213.272 135.512 212.499 132.188 210.598 129.943C204.027 122.159 190.154 122.394 180.69 121.629C149.277 119.09 138.987 83.5108 83.7466 90.6187C28.5057 97.7365 91.3307 147.041 91.3307 147.041H91.3203Z" fill="white"/>
</mask>
<g mask="url(#mask1_4476_34807)">
<path d="M206.767 145.516L199.517 123.266L216.517 125.516V136.766L206.767 145.516Z" fill="white"/>
</g>
<defs>
<radialGradient id="paint0_radial_4476_34807" cx="0" cy="0" r="1" gradientUnits="userSpaceOnUse" gradientTransform="translate(117.5 145.5) scale(117.5 15.5)">
<stop stop-color="#FF8AC0" stop-opacity="0.9"/>
<stop offset="1" stop-color="white" stop-opacity="0"/>
</radialGradient>
<radialGradient id="paint1_radial_4476_34807" cx="0" cy="0" r="1" gradientUnits="userSpaceOnUse" gradientTransform="translate(117.497 145.5) scale(63.7288 6.5)">
<stop stop-color="#FF8AC0" stop-opacity="0.8"/>
<stop offset="1" stop-color="white" stop-opacity="0"/>
</radialGradient>
<linearGradient id="paint2_linear_4476_34807" x1="62.0755" y1="148.445" x2="65.7287" y2="117.565" gradientUnits="userSpaceOnUse">
<stop stop-color="#D0EDFF"/>
<stop offset="0.75" stop-color="#F0D2F3"/>
<stop offset="1" stop-color="#FEBFD3"/>
</linearGradient>
<linearGradient id="paint3_linear_4476_34807" x1="134.536" y1="89.682" x2="134.536" y2="147.041" gradientUnits="userSpaceOnUse">
<stop stop-color="#FEBFD3"/>
<stop offset="0.25" stop-color="#F0D2F3"/>
<stop offset="1" stop-color="#D0EDFF"/>
</linearGradient>
<linearGradient id="paint4_linear_4476_34807" x1="46.9637" y1="42.0642" x2="53.6366" y2="78.6377" gradientUnits="userSpaceOnUse">
<stop stop-color="#FEBFD3"/>
<stop offset="0.25" stop-color="#F0D2F3"/>
<stop offset="1" stop-color="#D0EDFF"/>
</linearGradient>
<linearGradient id="paint5_linear_4476_34807" x1="112.419" y1="30.1215" x2="119.092" y2="66.6951" gradientUnits="userSpaceOnUse">
<stop stop-color="#FEBFD3"/>
<stop offset="0.25" stop-color="#F0D2F3"/>
<stop offset="1" stop-color="#D0EDFF"/>
</linearGradient>
<linearGradient id="paint6_linear_4476_34807" x1="77.2472" y1="36.8622" x2="94.9017" y2="132.756" gradientUnits="userSpaceOnUse">
<stop stop-color="#FEBFD3"/>
<stop offset="0.25" stop-color="#F0D2F3"/>
<stop offset="1" stop-color="#D0EDFF"/>
</linearGradient>
<radialGradient id="paint7_radial_4476_34807" cx="0" cy="0" r="1" gradientUnits="userSpaceOnUse" gradientTransform="translate(50.3444 108.389) rotate(82.937) scale(9.69082 9.78101)">
<stop stop-color="#FC5E78" stop-opacity="0.9"/>
<stop offset="1" stop-color="white"/>
</radialGradient>
<radialGradient id="paint8_radial_4476_34807" cx="0" cy="0" r="1" gradientUnits="userSpaceOnUse" gradientTransform="translate(105.336 101.663) rotate(82.937) scale(10.0551 16.9352)">
<stop stop-color="#FC5E78" stop-opacity="0.9"/>
<stop offset="1" stop-color="white"/>
</radialGradient>
<linearGradient id="paint9_linear_4476_34807" x1="97.5" y1="111" x2="107.008" y2="148.334" gradientUnits="userSpaceOnUse">
<stop stop-color="#FEBFD3"/>
<stop offset="0.25" stop-color="#F0D2F3"/>
<stop offset="1" stop-color="#D0EDFF"/>
</linearGradient>
<clipPath id="clip0_4476_34807">
<rect width="120.943" height="113.853" fill="white" transform="translate(14.2891 31.8311) rotate(-10.4316)"/>
</clipPath>
<clipPath id="clip1_4476_34807">
<rect width="34.4208" height="9.31126" fill="white" transform="translate(58.6075 96.8933) rotate(-10.43)"/>
</clipPath>
</defs>
</svg>
