<svg width="235" height="172" viewBox="0 0 235 172" fill="none" xmlns="http://www.w3.org/2000/svg">
<ellipse cx="117.5" cy="145.5" rx="117.5" ry="15.5" fill="url(#paint0_radial_124_6285)"/>
<ellipse cx="117.497" cy="145.5" rx="63.7288" ry="6.5" fill="url(#paint1_radial_124_6285)" fill-opacity="0.7"/>
<path d="M27.5744 131.17C26.127 124.498 28.384 120.928 44.9007 123.016C44.8589 122.944 54.932 123.767 66.5352 122.987C78.0712 122.492 91.1373 120.393 95.5855 121.104C103.267 122.172 104.5 129.456 96.2802 134.423C91.3825 137.228 78.7271 142.441 67.9244 144.598C57.018 147.136 47.9654 146.61 48.0966 146.634C33.538 146.336 29.2357 137.24 27.5744 131.17Z" fill="#CDEEFF"/>
<path d="M39.6182 122.559C27.896 121.725 26.3009 125.365 27.5744 131.171C28.9561 136.629 32.6666 144.071 43.2924 146.242C42.1661 138.2 40.9105 130.26 39.6182 122.559Z" fill="white"/>
<path d="M83.7464 90.6188C110.945 87.1191 127.245 93.9696 140.535 102.128C150.988 106.004 160.729 109.456 172.149 107.74C181.148 106.387 194.004 103.142 202.049 108.955C204.375 110.63 205.918 113.555 205.013 116.172C204.021 119.049 200.186 121.288 195.991 123.025C201.739 124 207.165 125.876 210.598 129.943C212.499 132.188 213.272 135.512 211.653 137.943C208.174 143.178 194.343 143.365 188.701 143.923C178.798 144.914 168.832 144.972 158.898 145.423C136.399 146.443 113.849 146.943 91.3294 147.041C91.2029 146.941 79.3522 137.618 70.5081 126.522C59.4628 121.504 50.9626 114.547 61.0257 106.753C60.8058 99.1285 66.5635 92.8328 83.7464 90.6188Z" fill="#CDEEFF"/>
<path d="M83.7464 90.6188C110.945 87.1191 127.245 93.9696 140.535 102.128C150.988 106.004 160.729 109.456 172.149 107.74C181.148 106.387 194.004 103.142 202.049 108.955C204.375 110.63 205.918 113.555 205.013 116.172C204.021 119.049 200.186 121.288 195.991 123.025C201.739 124 207.165 125.876 210.598 129.943C212.499 132.188 213.272 135.512 211.653 137.943C208.174 143.178 194.343 143.365 188.701 143.923C178.798 144.914 168.832 144.972 158.898 145.423C136.399 146.443 113.849 146.943 91.3294 147.041C91.2029 146.941 79.3522 137.618 70.5081 126.522C59.4628 121.504 50.9626 114.547 61.0257 106.753C60.8058 99.1285 66.5635 92.8328 83.7464 90.6188Z" fill="url(#paint2_linear_124_6285)" style="mix-blend-mode:hard-light"/>
<g clip-path="url(#clip0_124_6285)">
<path d="M53.6365 78.6379C63.7361 76.7952 70.4295 67.1142 68.5869 57.0146C66.7442 46.9151 57.0631 40.2217 46.9636 42.0643C36.8641 43.907 30.1706 53.5881 32.0133 63.6876C33.856 73.7871 43.537 80.4806 53.6365 78.6379Z" fill="#CDEEFF"/>
<path d="M53.6365 78.6379C63.7361 76.7952 70.4295 67.1142 68.5869 57.0146C66.7442 46.9151 57.0631 40.2217 46.9636 42.0643C36.8641 43.907 30.1706 53.5881 32.0133 63.6876C33.856 73.7871 43.537 80.4806 53.6365 78.6379Z" fill="url(#paint3_linear_124_6285)" style="mix-blend-mode:hard-light"/>
<path d="M119.092 66.6953C129.192 64.8526 135.885 55.1716 134.043 45.0721C132.2 34.9726 122.519 28.2791 112.419 30.1218C102.32 31.9644 95.6265 41.6455 97.4692 51.745C99.3118 61.8445 108.993 68.538 119.092 66.6953Z" fill="#CDEEFF"/>
<path d="M119.092 66.6953C129.192 64.8526 135.885 55.1716 134.043 45.0721C132.2 34.9726 122.519 28.2791 112.419 30.1218C102.32 31.9644 95.6265 41.6455 97.4692 51.745C99.3118 61.8445 108.993 68.538 119.092 66.6953Z" fill="url(#paint4_linear_124_6285)" style="mix-blend-mode:hard-light"/>
<path d="M52.4946 72.378C59.1369 71.1661 63.5391 64.799 62.3272 58.1567C61.1153 51.5144 54.7482 47.1122 48.1059 48.3241C41.4636 49.536 37.0614 55.9031 38.2733 62.5454C39.4852 69.1877 45.8523 73.5899 52.4946 72.378Z" fill="#FFF0F2"/>
<path d="M117.95 60.4355C124.592 59.2236 128.995 52.8565 127.783 46.2142C126.571 39.5719 120.204 35.1697 113.561 36.3816C106.919 37.5935 102.517 43.9606 103.729 50.6029C104.941 57.2452 111.308 61.6474 117.95 60.4355Z" fill="#FFF0F2"/>
<path d="M130.292 65.2395C121.72 44.245 98.711 32.2383 74.9613 37.3045C50.9481 42.7267 37.4281 63.9261 37.3593 82.8994C31.9192 90.6456 29.3439 98.5294 30.0634 106.672C30.768 125.689 57.6676 138.431 92.1283 133.231C125.891 127.659 151.611 114.878 147.298 90.0953C145.529 79.8643 139.303 71.1833 130.292 65.2395Z" fill="#CDEEFF"/>
<path d="M130.292 65.2395C121.72 44.245 98.711 32.2383 74.9613 37.3045C50.9481 42.7267 37.4281 63.9261 37.3593 82.8994C31.9192 90.6456 29.3439 98.5294 30.0634 106.672C30.768 125.689 57.6676 138.431 92.1283 133.231C125.891 127.659 151.611 114.878 147.298 90.0953C145.529 79.8643 139.303 71.1833 130.292 65.2395Z" fill="url(#paint5_linear_124_6285)" style="mix-blend-mode:hard-light"/>
<path d="M108.101 82.1769C100.895 66.1094 86.1086 56.072 72.3724 58.8869C58.5564 61.7738 49.7253 76.3524 48.4899 92.4078C44.4736 98.4471 41.736 98.3789 42.1405 105.471C42.4455 122.473 60.595 129.567 84.0477 126.15C107.243 122.617 124.276 112.3 119.238 93.716C117.265 86.0687 114.373 86.9515 108.101 82.1769Z" fill="white"/>
<path d="M74.1946 104.719C75.7097 113.881 68.9739 122.631 59.3392 123.482C49.6597 124.285 41.483 117.322 40.5383 108.927C39.5678 100.509 45.4965 92.6585 54.625 91.0781C63.7487 89.5486 72.7103 95.5302 74.1959 104.726L74.1946 104.719Z" fill="white"/>
<path d="M122.04 96.9695C123.702 106.426 117.072 115.243 107.289 116.808C97.4945 118.382 88.4099 111.965 86.8726 102.721C85.3253 93.501 91.7138 84.7292 101.406 82.9876C111.099 81.2461 120.382 87.4975 122.04 96.9695Z" fill="white"/>
<path d="M73.0271 55.4193C76.3751 54.8032 79.639 55.9501 81.8643 58.2014C83.1201 57.1659 84.6484 56.4249 86.3626 56.1093C90.6801 55.3146 94.856 57.4533 96.8465 61.1104C97.0054 61.0731 97.1661 61.0397 97.3284 61.0098C102.704 60.0202 107.865 63.5761 108.854 68.952C109.844 74.3278 106.288 79.4881 100.912 80.4777C96.594 81.2724 92.4172 79.1336 90.427 75.4758C90.2684 75.5131 90.1082 75.5474 89.9462 75.5772C86.5977 76.1936 83.3333 75.0463 81.1079 72.7943C79.8522 73.8298 78.3249 74.5716 76.6107 74.8872C74.8965 75.2027 73.2044 75.0545 71.6623 74.534C70.3845 77.4302 67.7429 79.6641 64.395 80.2805C64.1322 80.3289 63.8691 80.3627 63.6078 80.3897C63.0592 84.5267 59.9146 88.0243 55.5885 88.8206C50.2127 89.8101 45.0524 86.2543 44.0628 80.8785C43.0732 75.5026 46.6291 70.3424 52.0049 69.3528C52.2675 69.3044 52.53 69.2698 52.791 69.2428C53.3399 65.1062 56.4856 61.609 60.8114 60.8127C62.5254 60.4973 64.217 60.6457 65.7589 61.166C67.0367 58.2697 69.679 56.0356 73.0271 55.4193Z" fill="#CDEEFF"/>
<path d="M73.0271 55.4193C76.3751 54.8032 79.639 55.9501 81.8643 58.2014C83.1201 57.1659 84.6484 56.4249 86.3626 56.1093C90.6801 55.3146 94.856 57.4533 96.8465 61.1104C97.0054 61.0731 97.1661 61.0397 97.3284 61.0098C102.704 60.0202 107.865 63.5761 108.854 68.952C109.844 74.3278 106.288 79.4881 100.912 80.4777C96.594 81.2724 92.4172 79.1336 90.427 75.4758C90.2684 75.5131 90.1082 75.5474 89.9462 75.5772C86.5977 76.1936 83.3333 75.0463 81.1079 72.7943C79.8522 73.8298 78.3249 74.5716 76.6107 74.8872C74.8965 75.2027 73.2044 75.0545 71.6623 74.534C70.3845 77.4302 67.7429 79.6641 64.395 80.2805C64.1322 80.3289 63.8691 80.3627 63.6078 80.3897C63.0592 84.5267 59.9146 88.0243 55.5885 88.8206C50.2127 89.8101 45.0524 86.2543 44.0628 80.8785C43.0732 75.5026 46.6291 70.3424 52.0049 69.3528C52.2675 69.3044 52.53 69.2698 52.791 69.2428C53.3399 65.1062 56.4856 61.609 60.8114 60.8127C62.5254 60.4973 64.217 60.6457 65.7589 61.166C67.0367 58.2697 69.679 56.0356 73.0271 55.4193Z" fill="url(#paint6_linear_124_6285)"/>
<g filter="url(#filter0_f_124_6285)">
<path d="M51.1513 114.902C55.624 114.348 58.8886 110.983 58.4429 107.386C57.9972 103.789 54.0101 101.322 49.5374 101.876C45.0647 102.431 41.8001 105.796 42.2458 109.393C42.6915 112.99 46.6786 115.456 51.1513 114.902Z" fill="#FC5E78"/>
</g>
<g filter="url(#filter1_f_124_6285)">
<path d="M106.144 108.176C113.338 107.284 118.808 103.646 118.363 100.049C117.917 96.4519 111.724 94.2585 104.53 95.1499C97.3356 96.0412 91.8649 99.6798 92.3106 103.277C92.7563 106.874 98.9495 109.067 106.144 108.176Z" fill="#FC5E78"/>
</g>
<path d="M74.7183 101.15L75.7135 106.557V106.557C73.6822 111.508 67.21 112.7 63.5487 108.796V108.796" stroke="#816363" stroke-width="1.09949" stroke-linecap="round" stroke-linejoin="bevel"/>
<path d="M75.7131 106.557V106.557C79.3744 110.46 85.8466 109.269 87.8779 104.318V104.318" stroke="#816363" stroke-width="1.09949" stroke-linecap="round" stroke-linejoin="bevel"/>
<g clip-path="url(#clip1_124_6285)">
<path d="M71.9325 97.0065C74.6704 96.1357 80.1261 95.2371 80.9395 99.01C80.8203 99.9242 78.3082 99.7951 77.3332 100.728C76.4546 101.574 76.6728 104.088 74.8394 103.93C73.7482 103.837 73.1372 102.079 72.1872 101.675C70.9471 101.15 68.6424 102.166 68.2055 101.354C67.6506 98.9678 69.9621 97.6302 71.9325 97.0065Z" fill="#816363"/>
<path d="M59.9712 100.185C59.3043 97.3697 66.3681 96.0695 66.7474 98.9375C67.1109 101.703 60.6161 102.898 59.9712 100.185Z" fill="#3A3A3A"/>
<path d="M85.5676 95.394C85.204 92.6289 91.6989 91.4333 92.3437 94.1467C93.0106 96.9617 85.9468 98.262 85.5676 95.394Z" fill="#3A3A3A"/>
</g>
<path d="M80.16 87.4488C81.1706 88.4258 84.0063 89.9308 87.2645 88.1348" stroke="#3A3A3A" stroke-width="0.980411" stroke-linecap="round"/>
<path d="M68.5895 89.5786C67.9931 90.8514 65.8792 93.2675 62.195 92.7494" stroke="#3A3A3A" stroke-width="0.980411" stroke-linecap="round"/>
</g>
<path d="M66.5778 128.652C65.754 121.265 68.5875 117.653 86.2402 121.744C86.204 121.654 97.0128 123.673 109.659 124.116C122.206 124.868 136.582 124.044 141.307 125.302C149.509 127.312 150.034 135.323 140.583 139.795C134.971 142.294 120.695 146.531 108.754 147.662C96.6688 149.192 86.9282 147.626 87.064 147.662C71.3395 145.725 67.6913 135.405 66.5688 128.652H66.5778Z" fill="#CDEEFF"/>
<path d="M66.5778 128.652C65.754 121.265 68.5875 117.653 86.2402 121.744C86.204 121.654 97.0128 123.673 109.659 124.116C122.206 124.868 136.582 124.044 141.307 125.302C149.509 127.312 150.034 135.323 140.583 139.795C134.971 142.294 120.695 146.531 108.754 147.662C96.6688 149.192 86.9282 147.626 87.064 147.662C71.3395 145.725 67.6913 135.405 66.5688 128.652H66.5778Z" fill="url(#paint7_linear_124_6285)" style="mix-blend-mode:hard-light"/>
<path d="M80.5737 120.658C67.9815 118.458 65.845 122.215 66.5783 128.652C67.4745 134.717 70.661 143.172 81.9135 146.703C81.5785 137.876 81.1078 129.14 80.5646 120.658H80.5737Z" fill="white"/>
<path d="M127.527 36.1813C128.343 35.4709 130.859 35.2136 134.398 39.8674C138.822 45.6846 138.734 52.8873 132.537 50.6503C126.34 48.4133 122.988 39.7276 127.448 42.6638C131.907 45.5999 133.574 50.663 128.042 50.5953C122.51 50.5275 122.585 44.4052 124.974 46.9558C127.364 49.5064 125.604 52.0062 123.88 51.6249C122.155 51.2436 122.177 49.4429 122.86 50.1716C123.543 50.9004 123.521 52.7011 120.759 52.3071" stroke="#4E5968" stroke-linecap="round"/>
<path d="M66.2217 13.1802C66.4399 11.7045 68.8466 9.17955 76.7281 10.8855C86.58 13.0178 92.9435 20.6472 84.4422 23.8568C75.941 27.0665 64.6424 20.966 71.9488 20.0466C79.2553 19.1272 85.5409 22.9404 79.6812 27.8279C73.8214 32.7155 68.4125 26.2305 73.2033 26.7625C77.9942 27.2945 78.3902 31.4921 76.2409 32.638C74.0915 33.7839 72.5007 31.8765 73.8695 32.0285C75.2383 32.1805 76.8292 34.0879 73.5811 36.1501" stroke="#4E5968" stroke-linecap="round"/>
<path d="M21.8581 63.337C20.6868 62.3896 19.6563 58.9573 24.9043 52.8074C31.4643 45.1202 41.1064 43.3453 39.8112 52.5556C38.5159 61.766 27.8328 68.7169 30.536 61.7396C33.2392 54.7623 39.5449 51.1093 40.9648 58.823C42.3848 66.5367 34.189 68.0453 36.9425 64.0494C39.696 60.0535 43.5145 61.8428 43.4761 64.3421C43.4377 66.8413 41.0272 67.285 41.8139 66.1433C42.6006 65.0016 45.0112 64.5579 45.239 68.5035" stroke="#4E5968" stroke-linecap="round"/>
<path d="M174.796 116.218C173.537 119.504 169.908 115.016 165.611 113.369C161.313 111.721 157.974 113.538 159.234 110.252C160.494 106.966 165.145 104.668 169.442 106.315C173.74 107.963 176.056 112.932 174.796 116.218Z" fill="white"/>
<mask id="mask0_124_6285" style="mask-type:alpha" maskUnits="userSpaceOnUse" x="189" y="101" width="21" height="22">
<path d="M202.508 122.95L189.624 103.415L206.613 101.082L209.592 111.93L202.508 122.95Z" fill="white"/>
</mask>
<g mask="url(#mask0_124_6285)">
<path d="M95.2601 134.644C116.202 129.639 137.063 140.502 157.757 134.644C166.893 132.057 176.156 129.828 185.13 126.746C190.242 124.995 203.071 121.804 205.013 116.172C205.918 113.555 204.375 110.63 202.049 108.954C194.005 103.142 181.149 106.387 172.149 107.74C142.279 112.229 123.888 81.3537 74.2254 100.022C24.5654 118.699 95.2601 134.644 95.2601 134.644Z" fill="white"/>
</g>
<mask id="mask1_124_6285" style="mask-type:alpha" maskUnits="userSpaceOnUse" x="61" y="89" width="152" height="59">
<path d="M91.3203 147.041C113.843 146.943 136.397 146.443 158.898 145.424C168.833 144.973 178.799 144.914 188.702 143.924C194.343 143.365 208.174 143.179 211.653 137.943C213.272 135.512 212.499 132.188 210.598 129.943C204.027 122.159 190.154 122.394 180.69 121.629C149.277 119.09 138.987 83.5108 83.7466 90.6187C28.5057 97.7365 91.3307 147.041 91.3307 147.041H91.3203Z" fill="#CDEEFF"/>
<path d="M91.3203 147.041C113.843 146.943 136.397 146.443 158.898 145.424C168.833 144.973 178.799 144.914 188.702 143.924C194.343 143.365 208.174 143.179 211.653 137.943C213.272 135.512 212.499 132.188 210.598 129.943C204.027 122.159 190.154 122.394 180.69 121.629C149.277 119.09 138.987 83.5108 83.7466 90.6187C28.5057 97.7365 91.3307 147.041 91.3307 147.041H91.3203Z" fill="url(#paint8_linear_124_6285)"/>
</mask>
<g mask="url(#mask1_124_6285)">
<path d="M206.767 145.516L199.517 123.266L216.517 125.516V136.766L206.767 145.516Z" fill="white"/>
</g>
<defs>
<filter id="filter0_f_124_6285" x="32.8376" y="92.4311" width="35.0134" height="31.9164" filterUnits="userSpaceOnUse" color-interpolation-filters="sRGB">
<feFlood flood-opacity="0" result="BackgroundImageFix"/>
<feBlend mode="normal" in="SourceGraphic" in2="BackgroundImageFix" result="shape"/>
<feGaussianBlur stdDeviation="4.68372" result="effect1_foregroundBlur_124_6285"/>
</filter>
<filter id="filter1_f_124_6285" x="82.9177" y="85.5839" width="44.8376" height="32.158" filterUnits="userSpaceOnUse" color-interpolation-filters="sRGB">
<feFlood flood-opacity="0" result="BackgroundImageFix"/>
<feBlend mode="normal" in="SourceGraphic" in2="BackgroundImageFix" result="shape"/>
<feGaussianBlur stdDeviation="4.68372" result="effect1_foregroundBlur_124_6285"/>
</filter>
<radialGradient id="paint0_radial_124_6285" cx="0" cy="0" r="1" gradientUnits="userSpaceOnUse" gradientTransform="translate(117.5 145.5) scale(117.5 15.5)">
<stop stop-color="#FF8AC0" stop-opacity="0.9"/>
<stop offset="1" stop-color="white" stop-opacity="0"/>
</radialGradient>
<radialGradient id="paint1_radial_124_6285" cx="0" cy="0" r="1" gradientUnits="userSpaceOnUse" gradientTransform="translate(117.497 145.5) scale(63.7288 6.5)">
<stop stop-color="#FF8AC0" stop-opacity="0.8"/>
<stop offset="1" stop-color="white" stop-opacity="0"/>
</radialGradient>
<linearGradient id="paint2_linear_124_6285" x1="136.775" y1="89.6815" x2="136.775" y2="147.042" gradientUnits="userSpaceOnUse">
<stop stop-color="#FF6567"/>
<stop offset="1" stop-color="#F77BAC" stop-opacity="0"/>
</linearGradient>
<linearGradient id="paint3_linear_124_6285" x1="46.9636" y1="42.0643" x2="53.6365" y2="78.6379" gradientUnits="userSpaceOnUse">
<stop stop-color="#FF6567"/>
<stop offset="1" stop-color="#F77BAC" stop-opacity="0"/>
</linearGradient>
<linearGradient id="paint4_linear_124_6285" x1="112.419" y1="30.1218" x2="119.092" y2="66.6953" gradientUnits="userSpaceOnUse">
<stop stop-color="#FF6567"/>
<stop offset="1" stop-color="#F77BAC" stop-opacity="0"/>
</linearGradient>
<linearGradient id="paint5_linear_124_6285" x1="77.2472" y1="36.8622" x2="94.9017" y2="132.756" gradientUnits="userSpaceOnUse">
<stop stop-color="#FF6669"/>
<stop offset="1" stop-color="#F77BAC" stop-opacity="0"/>
</linearGradient>
<linearGradient id="paint6_linear_124_6285" x1="72.8749" y1="55.4474" x2="77.0358" y2="81.8526" gradientUnits="userSpaceOnUse">
<stop stop-color="#F5CBEC"/>
<stop offset="1" stop-color="#E7DDFF"/>
</linearGradient>
<linearGradient id="paint7_linear_124_6285" x1="115.761" y1="68.1273" x2="119.928" y2="155.139" gradientUnits="userSpaceOnUse">
<stop stop-color="#FF6567"/>
<stop offset="1" stop-color="#F77BAC" stop-opacity="0"/>
</linearGradient>
<linearGradient id="paint8_linear_124_6285" x1="136.775" y1="89.6816" x2="136.775" y2="147.041" gradientUnits="userSpaceOnUse">
<stop stop-color="#FF6567"/>
<stop offset="1" stop-color="#F77BAC" stop-opacity="0"/>
</linearGradient>
<clipPath id="clip0_124_6285">
<rect width="120.943" height="113.853" fill="white" transform="translate(14.2891 31.8311) rotate(-10.4316)"/>
</clipPath>
<clipPath id="clip1_124_6285">
<rect width="34.4208" height="9.31126" fill="white" transform="translate(58.6075 96.8934) rotate(-10.43)"/>
</clipPath>
</defs>
</svg>
