<svg width="64" height="60" viewBox="0 0 64 60" fill="none" xmlns="http://www.w3.org/2000/svg">
<g filter="url(#filter0_d_4476_38021)">
<path d="M17.4079 26.289C21.9018 26.289 25.5449 22.6459 25.5449 18.152C25.5449 13.658 21.9018 10.0149 17.4079 10.0149C12.9139 10.0149 9.27081 13.658 9.27081 18.152C9.27081 22.6459 12.9139 26.289 17.4079 26.289Z" fill="url(#paint0_linear_4476_38021)"/>
<path d="M46.5336 26.289C51.0276 26.289 54.6707 22.6459 54.6707 18.152C54.6707 13.658 51.0276 10.0149 46.5336 10.0149C42.0396 10.0149 38.3965 13.658 38.3965 18.152C38.3965 22.6459 42.0396 26.289 46.5336 26.289Z" fill="url(#paint1_linear_4476_38021)"/>
<path d="M17.4078 23.5036C20.3634 23.5036 22.7594 21.1075 22.7594 18.1519C22.7594 15.1963 20.3634 12.8003 17.4078 12.8003C14.4522 12.8003 12.0562 15.1963 12.0562 18.1519C12.0562 21.1075 14.4522 23.5036 17.4078 23.5036Z" fill="#FFF0F2"/>
<path d="M46.5335 23.5036C49.4891 23.5036 51.8851 21.1075 51.8851 18.1519C51.8851 15.1963 49.4891 12.8003 46.5335 12.8003C43.5779 12.8003 41.1819 15.1963 41.1819 18.1519C41.1819 21.1075 43.5779 23.5036 46.5335 23.5036Z" fill="#FFF0F2"/>
<path d="M53.4926 29.9797C51.3602 21.1556 42.5361 14.5406 31.9724 14.5406C21.4086 14.5406 12.5845 21.1587 10.4522 29.9797C7.03114 32.9712 5 36.696 5 40.7337C5 50.5826 17.0764 54.3871 31.9724 54.3871C46.8684 54.3871 58.9448 50.5826 58.9448 40.7337C58.9448 36.696 56.9136 32.9712 53.4926 29.9828V29.9797Z" fill="url(#paint2_linear_4476_38021)"/>
<path d="M35.2122 29.9193C36.3204 31.5485 38.1889 32.6195 40.3079 32.6195C40.4103 32.6195 40.5123 32.6157 40.6135 32.6107C41.4194 35.0738 43.7347 36.8538 46.467 36.8539C46.8032 36.8539 47.1328 36.8256 47.4543 36.7738C49.4702 38.0277 50.7874 40.0963 50.7874 42.4369C50.7872 45.4587 48.592 48.0272 45.5315 48.974C42.3055 50.8231 37.5495 51.6263 32.1907 51.6263C26.8321 51.6263 22.0767 50.8229 18.8508 48.974C15.7902 48.0272 13.5952 45.4588 13.595 42.4369C13.595 40.1066 14.8998 38.045 16.9006 36.7894C17.1902 36.8312 17.4862 36.8539 17.7874 36.8539C20.5248 36.8538 22.844 35.0672 23.6458 32.597C23.8087 32.61 23.9737 32.6195 24.1399 32.6195C26.2583 32.6193 28.1263 31.5489 29.2346 29.9203C30.1199 30.4127 31.139 30.6947 32.2239 30.6947C33.3087 30.6946 34.3269 30.4117 35.2122 29.9193Z" fill="white"/>
<path d="M20 49C23.3137 49 26 46.7614 26 44C26 41.2386 23.3137 39 20 39C16.6863 39 14 41.2386 14 44C14 46.7614 16.6863 49 20 49Z" fill="url(#paint3_radial_4476_38021)"/>
<path d="M44 49C47.3137 49 50 46.7614 50 44C50 41.2386 47.3137 39 44 39C40.6863 39 38 41.2386 38 44C38 46.7614 40.6863 49 44 49Z" fill="url(#paint4_radial_4476_38021)"/>
<path d="M31.9803 41.9149V44.3695V44.3695C30.6881 46.3796 27.7498 46.3796 26.4576 44.3695V44.3695" stroke="#816363" stroke-width="0.490909" stroke-linecap="round" stroke-linejoin="bevel"/>
<path d="M31.9803 44.3695V44.3695C33.2725 46.3796 36.2108 46.3796 37.5031 44.3695V44.3695" stroke="#816363" stroke-width="0.490909" stroke-linecap="round" stroke-linejoin="bevel"/>
<g clip-path="url(#clip0_4476_38021)">
<path d="M31.0784 39.8701C32.351 39.709 34.8193 39.7555 34.8716 41.4779C34.7453 41.8697 33.6526 41.61 33.1491 41.9408C32.6949 42.2412 32.5875 43.3629 31.7952 43.1452C31.3236 43.0161 31.1974 42.1948 30.8129 41.9408C30.3108 41.61 29.2167 41.8697 29.0904 41.4779C29.0396 40.3853 30.1628 39.9847 31.0784 39.8701Z" fill="#816363"/>
<path d="M24.6287 40.571C24.5634 39.281 27.7703 39.281 27.705 40.571C27.6412 41.8146 24.6926 41.8146 24.6287 40.571Z" fill="#3A3A3A"/>
<path d="M36.2555 40.5363C36.3193 39.2927 39.268 39.2927 39.3318 40.5363C39.3971 41.8263 36.1902 41.8263 36.2555 40.5363Z" fill="#3A3A3A"/>
</g>
<path d="M34.5927 34.8565C34.9575 35.3672 36.081 36.2573 37.6569 35.732" stroke="#3A3A3A" stroke-width="0.437743" stroke-linecap="round"/>
<path d="M29.3398 34.8565C28.975 35.3672 27.8515 36.2573 26.2756 35.732" stroke="#3A3A3A" stroke-width="0.437743" stroke-linecap="round"/>
<path d="M53.7635 25.6342C54.179 25.3882 55.3046 25.4785 56.4827 27.8082C57.9552 30.7202 57.3343 33.8759 54.7939 32.3927C52.2534 30.9094 51.4837 26.8245 53.2046 28.4743C54.9255 30.1241 55.2483 32.4821 52.8246 32.0052C50.4009 31.5283 50.9286 28.8459 51.7717 30.1591C52.6148 31.4722 51.64 32.4277 50.9136 32.1208C50.1873 31.814 50.3425 31.0251 50.5834 31.4003C50.8243 31.7755 50.669 32.5644 49.4882 32.1682" stroke="#4E5968" stroke-width="0.437743" stroke-linecap="round"/>
<path d="M29.4954 6.27374C29.7105 5.64338 30.9714 4.7292 34.2944 6.11534C38.4481 7.84802 40.6257 11.7125 36.6332 12.4348C32.6408 13.157 28.1726 9.56492 31.4552 9.7518C34.7379 9.93868 37.1898 12.1212 34.2216 13.7937C31.2535 15.4662 29.4025 12.1814 31.4632 12.8022C33.524 13.4231 33.3586 15.2983 32.3222 15.6278C31.2857 15.9572 30.7413 14.9911 31.3301 15.1685C31.9189 15.3458 32.4633 16.312 30.8704 16.955" stroke="#4E5968" stroke-width="0.437743" stroke-linecap="round"/>
<path d="M5.9605 24.7123C5.52276 24.2016 5.34766 22.6111 8.14922 20.3349C11.6512 17.4895 16.0286 17.4895 14.7154 21.4292C13.4021 25.3689 8.14922 27.5576 9.90019 24.7123C11.6512 21.867 14.7154 20.7726 14.7154 24.2746C14.7154 27.7765 10.9946 27.7765 12.5267 26.2444C14.0588 24.7123 15.5909 25.8067 15.372 26.901C15.1531 27.9954 14.0588 27.9954 14.4965 27.5576C14.9342 27.1199 16.0286 27.1199 15.8097 28.8709" stroke="#4E5968" stroke-width="0.437743" stroke-linecap="round"/>
</g>
<defs>
<filter id="filter0_d_4476_38021" x="0" y="0.170898" width="63.9448" height="59.2162" filterUnits="userSpaceOnUse" color-interpolation-filters="sRGB">
<feFlood flood-opacity="0" result="BackgroundImageFix"/>
<feColorMatrix in="SourceAlpha" type="matrix" values="0 0 0 0 0 0 0 0 0 0 0 0 0 0 0 0 0 0 127 0" result="hardAlpha"/>
<feOffset/>
<feGaussianBlur stdDeviation="2.5"/>
<feComposite in2="hardAlpha" operator="out"/>
<feColorMatrix type="matrix" values="0 0 0 0 0.305882 0 0 0 0 0.34902 0 0 0 0 0.407843 0 0 0 0.1 0"/>
<feBlend mode="normal" in2="BackgroundImageFix" result="effect1_dropShadow_4476_38021"/>
<feBlend mode="normal" in="SourceGraphic" in2="effect1_dropShadow_4476_38021" result="shape"/>
</filter>
<linearGradient id="paint0_linear_4476_38021" x1="17.4079" y1="10.0149" x2="17.4079" y2="26.289" gradientUnits="userSpaceOnUse">
<stop stop-color="#FEBFD3"/>
<stop offset="0.25" stop-color="#F0D2F3"/>
<stop offset="1" stop-color="#D0EDFF"/>
</linearGradient>
<linearGradient id="paint1_linear_4476_38021" x1="46.5336" y1="10.0149" x2="46.5336" y2="26.289" gradientUnits="userSpaceOnUse">
<stop stop-color="#FEBFD3"/>
<stop offset="0.25" stop-color="#F0D2F3"/>
<stop offset="1" stop-color="#D0EDFF"/>
</linearGradient>
<linearGradient id="paint2_linear_4476_38021" x1="31.9724" y1="14.5406" x2="31.9724" y2="54.3871" gradientUnits="userSpaceOnUse">
<stop stop-color="#FEBFD3"/>
<stop offset="0.25" stop-color="#F0D2F3"/>
<stop offset="1" stop-color="#D0EDFF"/>
</linearGradient>
<radialGradient id="paint3_radial_4476_38021" cx="0" cy="0" r="1" gradientUnits="userSpaceOnUse" gradientTransform="translate(20 44) rotate(90) scale(5 6)">
<stop stop-color="#FC5E78" stop-opacity="0.9"/>
<stop offset="1" stop-color="white"/>
</radialGradient>
<radialGradient id="paint4_radial_4476_38021" cx="0" cy="0" r="1" gradientUnits="userSpaceOnUse" gradientTransform="translate(44 44) rotate(90) scale(5 6)">
<stop stop-color="#FC5E78" stop-opacity="0.9"/>
<stop offset="1" stop-color="white"/>
</radialGradient>
<clipPath id="clip0_4476_38021">
<rect width="15.3685" height="4.15738" fill="white" transform="translate(24.2959 39.0155)"/>
</clipPath>
</defs>
</svg>
