<svg width="64" height="62" viewBox="0 0 64 62" fill="none" xmlns="http://www.w3.org/2000/svg">
<g filter="url(#filter0_d_533_39450)">
<path d="M17.4079 26.289C21.9018 26.289 25.5449 22.6459 25.5449 18.1519C25.5449 13.658 21.9018 10.0149 17.4079 10.0149C12.9139 10.0149 9.27081 13.658 9.27081 18.1519C9.27081 22.6459 12.9139 26.289 17.4079 26.289Z" fill="#CDEEFF"/>
<path d="M17.4079 26.289C21.9018 26.289 25.5449 22.6459 25.5449 18.1519C25.5449 13.658 21.9018 10.0149 17.4079 10.0149C12.9139 10.0149 9.27081 13.658 9.27081 18.1519C9.27081 22.6459 12.9139 26.289 17.4079 26.289Z" fill="url(#paint0_linear_533_39450)" style="mix-blend-mode:hard-light"/>
<path d="M46.5336 26.289C51.0276 26.289 54.6707 22.6459 54.6707 18.1519C54.6707 13.6579 51.0276 10.0149 46.5336 10.0149C42.0396 10.0149 38.3965 13.6579 38.3965 18.1519C38.3965 22.6459 42.0396 26.289 46.5336 26.289Z" fill="#CDEEFF"/>
<path d="M46.5336 26.289C51.0276 26.289 54.6707 22.6459 54.6707 18.1519C54.6707 13.6579 51.0276 10.0149 46.5336 10.0149C42.0396 10.0149 38.3965 13.6579 38.3965 18.1519C38.3965 22.6459 42.0396 26.289 46.5336 26.289Z" fill="url(#paint1_linear_533_39450)" style="mix-blend-mode:hard-light"/>
<path d="M17.4078 23.5036C20.3634 23.5036 22.7594 21.1075 22.7594 18.1519C22.7594 15.1963 20.3634 12.8003 17.4078 12.8003C14.4522 12.8003 12.0562 15.1963 12.0562 18.1519C12.0562 21.1075 14.4522 23.5036 17.4078 23.5036Z" fill="#FFF0F2"/>
<path d="M46.5336 23.5036C49.4892 23.5036 51.8852 21.1075 51.8852 18.1519C51.8852 15.1963 49.4892 12.8003 46.5336 12.8003C43.578 12.8003 41.1819 15.1963 41.1819 18.1519C41.1819 21.1075 43.578 23.5036 46.5336 23.5036Z" fill="#FFF0F2"/>
<path d="M53.4926 29.9798C51.3602 21.1557 42.5361 14.5407 31.9724 14.5407C21.4086 14.5407 12.5845 21.1587 10.4522 29.9798C7.03114 32.9712 5 36.696 5 40.7337C5 50.5826 17.0764 54.3871 31.9724 54.3871C46.8684 54.3871 58.9448 50.5826 58.9448 40.7337C58.9448 36.696 56.9136 32.9712 53.4926 29.9828V29.9798Z" fill="#CDEEFF"/>
<path d="M53.4926 29.9798C51.3602 21.1557 42.5361 14.5407 31.9724 14.5407C21.4086 14.5407 12.5845 21.1587 10.4522 29.9798C7.03114 32.9712 5 36.696 5 40.7337C5 50.5826 17.0764 54.3871 31.9724 54.3871C46.8684 54.3871 58.9448 50.5826 58.9448 40.7337C58.9448 36.696 56.9136 32.9712 53.4926 29.9828V29.9798Z" fill="url(#paint2_linear_533_39450)" style="mix-blend-mode:hard-light"/>
<path d="M35.2122 29.9193C36.3204 31.5484 38.1889 32.6194 40.3079 32.6194C40.4103 32.6194 40.5123 32.6156 40.6135 32.6107C41.4194 35.0737 43.7347 36.8537 46.467 36.8538C46.8032 36.8538 47.1328 36.8256 47.4543 36.7737C49.4702 38.0277 50.7874 40.0963 50.7874 42.4368C50.7872 45.4586 48.592 48.0271 45.5315 48.9739C42.3055 50.823 37.5495 51.6263 32.1907 51.6263C26.8321 51.6262 22.0767 50.8229 18.8508 48.9739C15.7902 48.0272 13.5952 45.4588 13.595 42.4368C13.595 40.1065 14.8998 38.0449 16.9006 36.7894C17.1902 36.8311 17.4862 36.8538 17.7874 36.8538C20.5248 36.8538 22.844 35.0671 23.6458 32.597C23.8087 32.6099 23.9737 32.6194 24.1399 32.6194C26.2583 32.6193 28.1263 31.5488 29.2346 29.9202C30.1199 30.4127 31.139 30.6946 32.2239 30.6946C33.3087 30.6946 34.3269 30.4116 35.2122 29.9193Z" fill="white"/>
<g filter="url(#filter1_f_533_39450)">
<path d="M20.9255 46.8517C24.1451 46.8517 26.7551 45.5467 26.7551 43.9369C26.7551 42.3271 24.1451 41.0221 20.9255 41.0221C17.706 41.0221 15.096 42.3271 15.096 43.9369C15.096 45.5467 17.706 46.8517 20.9255 46.8517Z" fill="#FC5E78"/>
</g>
<g filter="url(#filter2_f_533_39450)">
<path d="M43.0163 46.8516C46.2359 46.8516 48.8459 45.5467 48.8459 43.9369C48.8459 42.3271 46.2359 41.0221 43.0163 41.0221C39.7967 41.0221 37.1868 42.3271 37.1868 43.9369C37.1868 45.5467 39.7967 46.8516 43.0163 46.8516Z" fill="#FC5E78"/>
</g>
<path d="M31.9803 41.915V44.3695V44.3695C30.6881 46.3796 27.7498 46.3796 26.4576 44.3695V44.3695" stroke="#816363" stroke-width="0.490909" stroke-linecap="round" stroke-linejoin="bevel"/>
<path d="M31.9803 44.3695V44.3695C33.2725 46.3796 36.2108 46.3796 37.5031 44.3695V44.3695" stroke="#816363" stroke-width="0.490909" stroke-linecap="round" stroke-linejoin="bevel"/>
<g clip-path="url(#clip0_533_39450)">
<path d="M31.0784 39.8702C32.351 39.7091 34.8193 39.7556 34.8716 41.478C34.7453 41.8698 33.6526 41.6101 33.1491 41.9409C32.6949 42.2413 32.5875 43.363 31.7952 43.1453C31.3236 43.0162 31.1974 42.1949 30.8129 41.9409C30.3108 41.6101 29.2167 41.8698 29.0904 41.478C29.0396 40.3853 30.1628 39.9848 31.0784 39.8702Z" fill="#816363"/>
<path d="M24.6287 40.571C24.5634 39.281 27.7703 39.281 27.705 40.571C27.6412 41.8146 24.6926 41.8146 24.6287 40.571Z" fill="#3A3A3A"/>
<path d="M36.2555 40.5363C36.3193 39.2927 39.268 39.2927 39.3318 40.5363C39.3971 41.8263 36.1902 41.8263 36.2555 40.5363Z" fill="#3A3A3A"/>
</g>
<path d="M34.5927 34.8564C34.9575 35.3671 36.081 36.2572 37.6569 35.7319" stroke="#3A3A3A" stroke-width="0.437743" stroke-linecap="round"/>
<path d="M29.3398 34.8564C28.975 35.3671 27.8515 36.2572 26.2756 35.7319" stroke="#3A3A3A" stroke-width="0.437743" stroke-linecap="round"/>
<path d="M53.7634 25.6342C54.179 25.3882 55.3046 25.4786 56.4826 27.8082C57.9551 30.7202 57.3342 33.8759 54.7938 32.3927C52.2534 30.9095 51.4837 26.8246 53.2046 28.4743C54.9255 30.1241 55.2483 32.4821 52.8245 32.0052C50.4008 31.5283 50.9286 28.846 51.7716 30.1591C52.6147 31.4722 51.64 32.4277 50.9136 32.1209C50.1872 31.8141 50.3424 31.0251 50.5833 31.4003C50.8242 31.7755 50.669 32.5644 49.4881 32.1682" stroke="#4E5968" stroke-width="0.437743" stroke-linecap="round"/>
<path d="M29.4953 6.27374C29.7104 5.64338 30.9713 4.7292 34.2943 6.11534C38.448 7.84802 40.6256 11.7125 36.6332 12.4348C32.6407 13.157 28.1725 9.56492 31.4552 9.7518C34.7378 9.93868 37.1897 12.1212 34.2216 13.7937C31.2534 15.4662 29.4025 12.1814 31.4632 12.8022C33.5239 13.4231 33.3585 15.2983 32.3221 15.6278C31.2857 15.9572 30.7413 14.9911 31.3301 15.1685C31.9188 15.3458 32.4632 16.312 30.8703 16.955" stroke="#4E5968" stroke-width="0.437743" stroke-linecap="round"/>
<path d="M5.96047 24.7123C5.52273 24.2016 5.34763 22.6111 8.14919 20.3348C11.6511 17.4895 16.0286 17.4895 14.7153 21.4292C13.4021 25.3689 8.14919 27.5576 9.90016 24.7123C11.6511 21.8669 14.7153 20.7726 14.7153 24.2745C14.7153 27.7765 10.9945 27.7765 12.5266 26.2444C14.0587 24.7123 15.5908 25.8066 15.372 26.901C15.1531 27.9953 14.0587 27.9953 14.4965 27.5576C14.9342 27.1199 16.0286 27.1199 15.8097 28.8708" stroke="#4E5968" stroke-width="0.437743" stroke-linecap="round"/>
</g>
<defs>
<filter id="filter0_d_533_39450" x="0" y="0.170883" width="63.9448" height="59.2163" filterUnits="userSpaceOnUse" color-interpolation-filters="sRGB">
<feFlood flood-opacity="0" result="BackgroundImageFix"/>
<feColorMatrix in="SourceAlpha" type="matrix" values="0 0 0 0 0 0 0 0 0 0 0 0 0 0 0 0 0 0 127 0" result="hardAlpha"/>
<feOffset/>
<feGaussianBlur stdDeviation="2.5"/>
<feComposite in2="hardAlpha" operator="out"/>
<feColorMatrix type="matrix" values="0 0 0 0 0.305882 0 0 0 0 0.34902 0 0 0 0 0.407843 0 0 0 0.1 0"/>
<feBlend mode="normal" in2="BackgroundImageFix" result="effect1_dropShadow_533_39450"/>
<feBlend mode="normal" in="SourceGraphic" in2="effect1_dropShadow_533_39450" result="shape"/>
</filter>
<filter id="filter1_f_533_39450" x="9.26643" y="35.1926" width="23.3182" height="17.4886" filterUnits="userSpaceOnUse" color-interpolation-filters="sRGB">
<feFlood flood-opacity="0" result="BackgroundImageFix"/>
<feBlend mode="normal" in="SourceGraphic" in2="BackgroundImageFix" result="shape"/>
<feGaussianBlur stdDeviation="2.91477" result="effect1_foregroundBlur_533_39450"/>
</filter>
<filter id="filter2_f_533_39450" x="31.3572" y="35.1926" width="23.3182" height="17.4886" filterUnits="userSpaceOnUse" color-interpolation-filters="sRGB">
<feFlood flood-opacity="0" result="BackgroundImageFix"/>
<feBlend mode="normal" in="SourceGraphic" in2="BackgroundImageFix" result="shape"/>
<feGaussianBlur stdDeviation="2.91477" result="effect1_foregroundBlur_533_39450"/>
</filter>
<linearGradient id="paint0_linear_533_39450" x1="17.4079" y1="10.0149" x2="17.4079" y2="26.289" gradientUnits="userSpaceOnUse">
<stop stop-color="#FF6567"/>
<stop offset="1" stop-color="#F77BAC" stop-opacity="0"/>
</linearGradient>
<linearGradient id="paint1_linear_533_39450" x1="46.5336" y1="10.0149" x2="46.5336" y2="26.289" gradientUnits="userSpaceOnUse">
<stop stop-color="#FF6567"/>
<stop offset="1" stop-color="#F77BAC" stop-opacity="0"/>
</linearGradient>
<linearGradient id="paint2_linear_533_39450" x1="31.9724" y1="14.5407" x2="31.9724" y2="54.3871" gradientUnits="userSpaceOnUse">
<stop stop-color="#FF6567"/>
<stop offset="1" stop-color="#F77BAC" stop-opacity="0"/>
</linearGradient>
<clipPath id="clip0_533_39450">
<rect width="15.3685" height="4.15738" fill="white" transform="translate(24.2959 39.0155)"/>
</clipPath>
</defs>
</svg>
