<svg width="24" height="24" viewBox="0 0 24 24" fill="none" xmlns="http://www.w3.org/2000/svg">
<path d="M12 2C17.5228 2 22 6.47715 22 12C22 17.5228 17.5228 22 12 22C6.47715 22 2 17.5228 2 12C2 6.47715 6.47715 2 12 2ZM16.7402 9.32715C16.3687 8.91851 15.7358 8.88831 15.3271 9.25977L10.499 13.6475L8.67285 11.9873C8.26419 11.6158 7.63127 11.646 7.25977 12.0547C6.91171 12.4377 6.91643 13.0175 7.25488 13.3945L7.32715 13.4668L9.82715 15.7402L9.90137 15.8008C10.281 16.0851 10.8153 16.0652 11.1729 15.7402L16.6729 10.7402C17.0815 10.3687 17.1117 9.73581 16.7402 9.32715Z" fill="#1EED90"/>
</svg>
